SplineFontDB: 3.2
FontName: Siele_Two
FullName: Siele_Two
FamilyName: Siele_Two
Weight: Regular
Copyright: Copyright (c) 2020, g,,,
UComments: "2020-4-8: Created with FontForge (http://fontforge.org)+AAoACgAA-Created for want of an open source 21st century Garamond.+AAoA-Design influences from various open source and historical typefaces.+AAoACgAA-The name Degarde comes from the French +IBwA-de garde+IB0A, apparently meaning +IBwA-on guard+IB0A or +IBwA-on call+IB0A."

StartChar: i
Encoding: 105 105 0
GlifName: i
Width: 255
Flags: HMW
LayerCount: 3
Back
SplineSet
42 360 m 1
 42 368 l 1
 156 416 l 1
 166 416 l 1
 166 34 l 1
 241 34 l 1
 241 0 l 1
 25 0 l 1
 25 34 l 1
 96 34 l 1
 96 315 l 1
 42 360 l 1
91 588 m 0
 91 613 111 633 136 633 c 0
 161 633 181 613 181 588 c 0
 181 563 161 543 136 543 c 0
 111 543 91 563 91 588 c 0
EndSplineSet
Fore
SplineSet
40 360 m 1
 40 370 l 1
 156 416 l 1
 166 416 l 1
 166 38 l 1
 244 38 l 1
 244 0 l 1
 22 0 l 1
 22 38 l 1
 96 38 l 1
 96 315 l 1
 40 360 l 1
91 588 m 0
 91 613 111 633 136 633 c 0
 161 633 181 613 181 588 c 0
 181 563 161 543 136 543 c 0
 111 543 91 563 91 588 c 0
EndSplineSet
Layer: 2
SplineSet
1139 657 m 0
 1139 686 1162 709 1191 709 c 0
 1220 709 1243 686 1243 657 c 0
 1243 628 1220 605 1191 605 c 0
 1162 605 1139 628 1139 657 c 0
772 658 m 0
 772 684 793 705 819 705 c 0
 845 705 866 684 866 658 c 0
 866 632 845 611 819 611 c 0
 793 611 772 632 772 658 c 0
1050 45 m 1
 1095 45 l 2
 1140 45 1145 50 1145 95 c 2
 1145 350 l 1
 1075 400 l 1
 1075 420 l 1
 1215 465 l 1
 1225 465 l 1
 1230 95 l 2
 1230 55 1240 45 1280 45 c 2
 1325 45 l 1
 1325 -1 l 1
 1286 0 1214 1 1180 1 c 0
 1142 1 1085 0 1050 -1 c 1
 1050 45 l 1
690 40 m 1
 740 40 l 2
 785 40 790 45 790 90 c 2
 790 350 l 1
 705 400 l 1
 705 420 l 1
 855 460 l 1
 865 460 l 1
 870 90 l 2
 870 50 880 40 920 40 c 2
 970 40 l 1
 970 0 l 1
 931 1 859 2 825 2 c 0
 787 2 725 1 690 0 c 1
 690 40 l 1
389 41 m 1
 430 41 l 2
 471 41 475 45 475 86 c 2
 475 317 l 1
 412 362 l 1
 412 380 l 1
 538 421 l 1
 547 421 l 1
 552 86 l 2
 552 50 561 41 597 41 c 2
 638 41 l 1
 638 -1 l 1
 603 0 538 1 507 1 c 0
 473 1 421 0 389 -1 c 1
 389 41 l 1
EndSplineSet
EndChar

StartChar: n
Encoding: 110 110 1
GlifName: n
Width: 518
Flags: HMW
AnchorPoint: "Top" 253 500 basechar 0
LayerCount: 3
Back
SplineSet
244 501 m 1
 245 500 l 1
 244 499 l 1
 243 500 l 1
 244 501 l 1
37 357 m 1
 37 365 l 1
 137 415 l 1
 147 415 l 1
 156 339 l 1
 157 338 l 1
 192 380 252 412 302 412 c 0
 370 412 422 370 422 290 c 2
 422 31 l 1
 487 31 l 1
 487 0 l 1
 299 0 l 1
 299 31 l 1
 352 31 l 1
 352 270 l 2
 352 325 315 360 265 360 c 0
 229 360 187 340 157 305 c 1
 157 31 l 1
 212 31 l 1
 212 0 l 1
 27 0 l 1
 27 31 l 1
 87 31 l 1
 87 320 l 1
 37 357 l 1
EndSplineSet
Fore
SplineSet
42 354 m 1
 42 364 l 1
 146 415 l 1
 156 415 l 1
 165 339 l 1
 166 338 l 1
 203 380 263 412 313 412 c 0
 381 412 433 370 433 290 c 2
 433 38 l 1
 501 38 l 1
 501 0 l 1
 307 0 l 1
 307 38 l 1
 363 38 l 1
 363 270 l 2
 363 325 326 360 276 360 c 0
 240 360 198 340 166 305 c 1
 166 38 l 1
 224 38 l 1
 224 0 l 1
 33 0 l 1
 33 38 l 1
 96 38 l 1
 96 316 l 1
 42 354 l 1
EndSplineSet
Layer: 2
SplineSet
42 356 m 1
 42 364 l 1
 144 415 l 1
 154 415 l 1
 163 339 l 1
 164 338 l 1
 199 380 259 412 309 412 c 0
 377 412 429 370 429 290 c 2
 429 34 l 1
 495 34 l 1
 495 0 l 1
 305 0 l 1
 305 34 l 1
 359 34 l 1
 359 270 l 2
 359 325 322 360 272 360 c 0
 236 360 194 340 164 305 c 1
 164 34 l 1
 220 34 l 1
 220 0 l 1
 33 0 l 1
 33 34 l 1
 94 34 l 1
 94 318 l 1
 42 356 l 1
EndSplineSet
EndChar

StartChar: o
Encoding: 111 111 2
GlifName: o
Width: 486
Flags: HMW
AnchorPoint: "Top" 243 500 basechar 0
LayerCount: 3
Back
SplineSet
245 501 m 1
 246 500 l 1
 245 499 l 1
 244 500 l 1
 245 501 l 1
33 200 m 0
 33 318 127 412 245 412 c 0
 363 412 457 318 457 200 c 0
 457 82 363 -12 245 -12 c 0
 127 -12 33 82 33 200 c 0
115 210 m 0
 115 110 173 23 253 23 c 0
 327 23 375 92 375 190 c 0
 375 290 317 378 238 378 c 0
 163 378 115 308 115 210 c 0
EndSplineSet
Fore
SplineSet
29 200 m 0
 29 321 122 414 243 414 c 0
 364 414 457 321 457 200 c 0
 457 79 364 -14 243 -14 c 0
 122 -14 29 79 29 200 c 0
111 210 m 0
 111 110 171 22 251 22 c 0
 325 22 375 92 375 190 c 0
 375 290 315 379 236 379 c 0
 161 379 111 308 111 210 c 0
EndSplineSet
Layer: 2
SplineSet
32 200 m 0
 32 320 124 412 244 412 c 0
 364 412 456 320 456 200 c 0
 456 80 364 -12 244 -12 c 0
 124 -12 32 80 32 200 c 0
114 210 m 0
 114 110 172 23 252 23 c 0
 326 23 374 92 374 190 c 0
 374 290 316 378 237 378 c 0
 162 378 114 308 114 210 c 0
EndSplineSet
EndChar

StartChar: t
Encoding: 116 116 3
GlifName: t
Width: 298
Flags: HMW
LayerCount: 3
Back
SplineSet
85 80 m 2
 85 357 l 1
 29 357 l 1
 29 377 l 1
 140 470 l 1
 155 470 l 1
 155 400 l 1
 287 400 l 1
 287 357 l 1
 155 357 l 1
 155 105 l 2
 155 64 177 42 209 42 c 0
 237 42 258 53 277 75 c 1
 292 60 l 1
 268 20 224 -14 174 -14 c 0
 118 -14 85 20 85 80 c 2
EndSplineSet
Fore
SplineSet
82 80 m 2
 82 354 l 1
 24 354 l 1
 24 374 l 1
 137 471 l 1
 152 471 l 1
 152 400 l 1
 285 400 l 1
 285 354 l 1
 152 354 l 1
 152 105 l 2
 152 64 174 42 206 42 c 0
 234 42 255 53 274 75 c 1
 290 60 l 1
 265 19 221 -14 171 -14 c 0
 115 -14 82 20 82 80 c 2
EndSplineSet
EndChar

StartChar: g
Encoding: 103 103 4
GlifName: g
Width: 450
Flags: HMW
LayerCount: 3
Back
SplineSet
428 -97 m 0
 428 -187 334 -275 218 -275 c 0
 107 -275 30 -211 30 -139 c 0
 30 -94 61 -61 109 -40 c 1
 109 -37 l 1
 65 -20 40 11 40 50 c 0
 40 91 75 128 131 143 c 1
 131 146 l 1
 86 167 52 213 52 268 c 0
 52 351 126 413 218 413 c 0
 250 413 283 405 309 390 c 1
 435 390 l 1
 435 350 l 1
 354 350 l 1
 354 346 l 1
 371 326 383 300 383 269 c 0
 383 186 310 125 218 125 c 2
 152 124 l 2
 120 124 99 102 99 73 c 0
 99 44 120 23 152 23 c 2
 299 23 l 2
 375 23 428 -25 428 -97 c 0
124 275 m 0
 124 202 167 154 221 154 c 0
 274 154 312 199 312 262 c 0
 312 335 269 383 215 383 c 0
 162 383 124 338 124 275 c 0
362 -118 m 0
 362 -70 332 -42 287 -42 c 2
 147 -42 l 2
 122 -42 97 -74 97 -123 c 0
 97 -189 136 -243 224 -243 c 0
 315 -243 362 -189 362 -118 c 0
EndSplineSet
Fore
SplineSet
428 -99 m 0
 428 -189 334 -277 218 -277 c 0
 107 -277 30 -213 30 -141 c 0
 30 -96 61 -61 109 -40 c 1
 109 -37 l 1
 65 -20 40 11 40 50 c 0
 40 91 75 130 131 144 c 1
 131 146 l 1
 86 167 52 213 52 268 c 0
 52 351 126 413 218 413 c 0
 250 413 283 405 309 390 c 1
 435 390 l 1
 435 348 l 1
 354 348 l 1
 354 346 l 1
 371 326 383 300 383 269 c 0
 383 186 310 125 218 125 c 2
 152 124 l 2
 120 124 99 102 99 73 c 0
 99 44 120 23 152 23 c 2
 299 23 l 2
 375 23 428 -27 428 -99 c 0
124 275 m 0
 124 202 167 154 221 154 c 0
 274 154 312 199 312 262 c 0
 312 335 269 383 215 383 c 0
 162 383 124 338 124 275 c 0
362 -120 m 0
 362 -72 332 -44 287 -44 c 2
 147 -44 l 2
 122 -44 97 -76 97 -125 c 0
 97 -191 136 -245 224 -245 c 0
 315 -245 362 -191 362 -120 c 0
EndSplineSet
EndChar

StartChar: h
Encoding: 104 104 5
GlifName: h
Width: 515
Flags: HMW
LayerCount: 3
Back
SplineSet
39 665 m 1
 39 673 l 1
 150 710 l 1
 160 710 l 1
 160 390 l 1
 157 341 l 1
 160 340 l 1
 195 380 259 412 310 412 c 0
 380 412 430 370 430 290 c 2
 430 31 l 1
 495 31 l 1
 495 0 l 1
 310 0 l 1
 310 31 l 1
 360 31 l 1
 360 270 l 2
 360 325 323 360 270 360 c 0
 233 360 192 342 160 307 c 1
 160 31 l 1
 215 31 l 1
 215 0 l 1
 30 0 l 1
 30 31 l 1
 90 31 l 1
 90 627 l 1
 39 665 l 1
EndSplineSet
Fore
SplineSet
28 661 m 1
 28 671 l 1
 148 712 l 1
 158 712 l 1
 158 390 l 1
 156 341 l 1
 158 340 l 1
 195 380 259 412 310 412 c 0
 380 412 430 370 430 290 c 2
 430 38 l 1
 498 38 l 1
 498 0 l 1
 307 0 l 1
 307 38 l 1
 360 38 l 1
 360 270 l 2
 360 325 323 360 270 360 c 0
 233 360 192 342 158 307 c 1
 158 38 l 1
 216 38 l 1
 216 0 l 1
 25 0 l 1
 25 38 l 1
 88 38 l 1
 88 621 l 1
 28 661 l 1
EndSplineSet
Layer: 2
SplineSet
33 662 m 1
 33 670 l 1
 148 712 l 1
 158 712 l 1
 158 390 l 1
 156 341 l 1
 158 340 l 1
 193 380 257 412 308 412 c 0
 378 412 428 370 428 290 c 2
 428 34 l 1
 495 34 l 1
 495 0 l 1
 306 0 l 1
 306 34 l 1
 358 34 l 1
 358 270 l 2
 358 325 321 360 268 360 c 0
 231 360 190 342 158 307 c 1
 158 34 l 1
 215 34 l 1
 215 0 l 1
 26 0 l 1
 26 34 l 1
 88 34 l 1
 88 624 l 1
 33 662 l 1
EndSplineSet
EndChar

StartChar: a
Encoding: 97 97 6
GlifName: a
Width: 410
Flags: HMW
AnchorPoint: "Top" 196 500 basechar 0
LayerCount: 3
Back
SplineSet
245 100 m 1
 245 190 l 1
 205 178 l 2
 120 153 100 127 100 93 c 0
 100 62 123 43 150 43 c 0
 178 43 212 58 245 100 c 1
195 412 m 0
 265 412 313 365 313 300 c 2
 313 65 l 2
 313 45 322 37 338 37 c 0
 355 37 369 50 380 70 c 1
 396 55 l 1
 378 15 347 -12 310 -12 c 0
 270 -12 245 15 245 60 c 1
 246 65 l 1
 243 67 l 1
 205 20 162 -10 115 -10 c 0
 70 -10 30 25 30 75 c 0
 30 122 53 160 187 202 c 2
 245 220 l 1
 245 288 l 2
 245 343 210 370 165 370 c 0
 155 370 135 367 125 362 c 1
 120 313 l 1
 45 293 l 1
 45 295 l 2
 45 345 115 412 195 412 c 0
EndSplineSet
Fore
SplineSet
251 100 m 1
 251 188 l 1
 211 176 l 2
 126 151 105 126 105 92 c 0
 105 62 129 42 156 42 c 0
 184 42 218 58 251 100 c 1
201 413 m 0
 271 413 320 365 320 300 c 2
 320 65 l 2
 320 45 329 37 345 37 c 0
 362 37 376 50 387 70 c 1
 403 55 l 1
 385 15 353 -12 315 -12 c 0
 276 -12 251 15 251 59 c 1
 252 64 l 1
 249 64 l 1
 209 19 165 -11 121 -11 c 0
 76 -11 35 24 35 74 c 0
 35 121 58 160 193 202 c 2
 251 220 l 1
 251 288 l 2
 251 343 216 371 171 371 c 0
 161 371 141 368 131 363 c 1
 128 315 l 1
 50 293 l 1
 50 295 l 2
 50 345 121 413 201 413 c 0
EndSplineSet
EndChar

StartChar: j
Encoding: 106 106 7
GlifName: j
Width: 237
Flags: HMW
LayerCount: 3
Back
SplineSet
0 -270 m 1
 -10 -250 l 1
 65 -205 85 -145 85 -60 c 2
 85 325 l 1
 35 367 l 1
 35 375 l 1
 145 415 l 1
 155 415 l 1
 155 -45 l 2
 155 -150 100 -220 0 -270 c 1
80 588 m 0
 80 613 100 633 125 633 c 0
 150 633 170 613 170 588 c 0
 170 563 150 543 125 543 c 0
 100 543 80 563 80 588 c 0
EndSplineSet
Fore
SplineSet
3 -279 m 1
 -8 -258 l 1
 67 -213 87 -153 87 -68 c 2
 87 318 l 1
 30 365 l 1
 30 375 l 1
 147 417 l 1
 157 417 l 1
 157 -54 l 2
 157 -159 102 -228 3 -279 c 1
82 588 m 0
 82 613 102 633 127 633 c 0
 152 633 172 613 172 588 c 0
 172 563 152 543 127 543 c 0
 102 543 82 563 82 588 c 0
EndSplineSet
Layer: 2
SplineSet
3 -279 m 1
 -8 -258 l 1
 67 -213 87 -153 87 -68 c 2
 87 320 l 1
 33 366 l 1
 33 374 l 1
 147 415 l 1
 157 415 l 1
 157 -54 l 2
 157 -159 102 -228 3 -279 c 1
82 588 m 0
 82 613 102 633 127 633 c 0
 152 633 172 613 172 588 c 0
 172 563 152 543 127 543 c 0
 102 543 82 563 82 588 c 0
EndSplineSet
EndChar

StartChar: period
Encoding: 46 46 8
GlifName: period
Width: 200
Flags: HMW
LayerCount: 3
Back
SplineSet
47 45 m 0
 47 74 71 98 100 98 c 0
 129 98 153 74 153 45 c 0
 153 16 129 -8 100 -8 c 0
 71 -8 47 16 47 45 c 0
EndSplineSet
Fore
SplineSet
48 45 m 0
 48 74 71 97 100 97 c 0
 129 97 152 74 152 45 c 0
 152 16 129 -7 100 -7 c 0
 71 -7 48 16 48 45 c 0
EndSplineSet
Layer: 2
SplineSet
48 45 m 0
 48 74 71 97 100 97 c 0
 129 97 152 74 152 45 c 0
 152 16 129 -7 100 -7 c 0
 71 -7 48 16 48 45 c 0
EndSplineSet
EndChar

StartChar: k
Encoding: 107 107 9
GlifName: k
Width: 471
Flags: HMW
LayerCount: 3
Back
SplineSet
437 400 m 1
 437 366 l 1
 385 366 l 1
 238 240 l 1
 425 34 l 1
 469 34 l 1
 469 0 l 1
 288 0 l 1
 288 34 l 1
 335 34 l 1
 168 220 l 1
 319 356 l 1
 322 366 l 1
 267 366 l 1
 267 400 l 1
 437 400 l 1
31 665 m 1
 31 675 l 1
 148 712 l 1
 158 712 l 1
 158 34 l 1
 218 34 l 1
 218 0 l 1
 25 0 l 1
 25 34 l 1
 88 34 l 1
 88 619 l 1
 31 665 l 1
EndSplineSet
Fore
SplineSet
440 400 m 1
 440 362 l 1
 380 362 l 1
 238 240 l 1
 421 38 l 1
 470 38 l 1
 470 0 l 1
 282 0 l 1
 282 38 l 1
 331 38 l 1
 168 220 l 1
 312 350 l 1
 320 362 l 1
 262 362 l 1
 262 400 l 1
 440 400 l 1
33 665 m 1
 33 673 l 1
 148 712 l 1
 158 712 l 1
 158 38 l 1
 220 38 l 1
 220 0 l 1
 20 0 l 1
 20 38 l 1
 88 38 l 1
 88 619 l 1
 33 665 l 1
EndSplineSet
Layer: 2
SplineSet
437 400 m 1
 437 366 l 1
 385 366 l 1
 238 240 l 1
 425 34 l 1
 469 34 l 1
 469 0 l 1
 288 0 l 1
 288 34 l 1
 335 34 l 1
 168 220 l 1
 319 356 l 1
 322 366 l 1
 267 366 l 1
 267 400 l 1
 437 400 l 1
36 666 m 1
 36 674 l 1
 148 712 l 1
 158 712 l 1
 158 34 l 1
 219 34 l 1
 219 0 l 1
 24 0 l 1
 24 34 l 1
 88 34 l 1
 88 624 l 1
 36 666 l 1
EndSplineSet
EndChar

StartChar: exclam
Encoding: 33 33 10
GlifName: exclam
Width: 230
Flags: HMW
LayerCount: 3
Back
SplineSet
74 650 m 1
 156 650 l 1
 130 180 l 1
 100 180 l 1
 74 650 l 1
69 42 m 0
 69 67 90 88 115 88 c 0
 140 88 161 67 161 42 c 0
 161 17 140 -4 115 -4 c 0
 90 -4 69 17 69 42 c 0
EndSplineSet
Fore
SplineSet
68 42 m 0
 68 68 89 89 115 89 c 0
 141 89 162 68 162 42 c 0
 162 16 141 -5 115 -5 c 0
 89 -5 68 16 68 42 c 0
70 650 m 1
 160 650 l 1
 130 180 l 1
 100 180 l 1
 70 650 l 1
EndSplineSet
Layer: 2
SplineSet
62 45 m 0
 62 74 86 98 115 98 c 0
 144 98 168 74 168 45 c 0
 168 16 144 -8 115 -8 c 0
 86 -8 62 16 62 45 c 0
EndSplineSet
EndChar

StartChar: quotedbl
Encoding: 34 34 11
GlifName: quotedbl
Width: 280
Flags: HMW
LayerCount: 3
Back
SplineSet
47 650 m 1
 115 650 l 1
 95 450 l 1
 65 450 l 1
 47 650 l 1
167 650 m 1
 235 650 l 1
 215 450 l 1
 185 450 l 1
 167 650 l 1
EndSplineSet
Fore
SplineSet
47 650 m 1
 115 650 l 1
 95 440 l 1
 65 440 l 1
 47 650 l 1
167 650 m 1
 235 650 l 1
 215 440 l 1
 185 440 l 1
 167 650 l 1
EndSplineSet
EndChar

StartChar: ampersand
Encoding: 38 38 12
GlifName: ampersand
Width: 705
Flags: HMW
LayerCount: 3
Back
SplineSet
450 375 m 1
 635 375 l 1
 635 343 l 1
 575 343 l 1
 542 269 507 204 471 153 c 1
 530 94 578 48 635 48 c 0
 664 48 683 56 703 73 c 1
 717 53 l 1
 688 20 650 -11 603 -11 c 0
 534 -11 500 18 426 95 c 1
 424 95 l 1
 367 30 300 -11 215 -11 c 0
 105 -11 35 69 35 158 c 0
 35 236 85 294 173 345 c 1
 173 347 l 1
 125 394 90 435 90 491 c 0
 90 564 150 634 240 634 c 0
 315 634 370 584 370 514 c 0
 370 449 319 405 257 368 c 1
 257 366 l 1
 446 177 l 1
 448 177 l 1
 472 213 497 258 515 307 c 1
 519 343 l 1
 450 343 l 1
 450 375 l 1
238 386 m 1
 283 416 303 455 303 504 c 0
 303 559 275 601 230 601 c 0
 190 601 155 569 155 517 c 0
 155 471 191 433 238 386 c 1
402 117 m 1
 192 327 l 1
 134 289 105 245 105 190 c 0
 105 110 167 47 245 47 c 0
 311 47 360 71 402 117 c 1
EndSplineSet
Fore
SplineSet
450 375 m 1
 635 375 l 1
 635 341 l 1
 575 341 l 1
 542 268 507 204 471 153 c 1
 530 94 578 48 635 48 c 0
 664 48 683 56 703 73 c 1
 717 53 l 1
 688 20 650 -11 603 -11 c 0
 534 -11 500 18 426 95 c 1
 424 95 l 1
 367 30 300 -11 215 -11 c 0
 105 -11 35 69 35 158 c 0
 35 236 85 294 173 345 c 1
 173 347 l 1
 125 394 90 435 90 491 c 0
 90 564 150 634 240 634 c 0
 315 634 370 584 370 514 c 0
 370 449 319 405 257 368 c 1
 257 366 l 1
 446 177 l 1
 448 177 l 1
 472 213 497 257 515 305 c 1
 519 341 l 1
 450 341 l 1
 450 375 l 1
238 386 m 1
 283 416 303 455 303 504 c 0
 303 559 275 601 230 601 c 0
 190 601 155 569 155 517 c 0
 155 471 191 433 238 386 c 1
402 117 m 1
 192 327 l 1
 134 289 105 245 105 190 c 0
 105 110 167 47 245 47 c 0
 311 47 360 71 402 117 c 1
EndSplineSet
EndChar

StartChar: quotesingle
Encoding: 39 39 13
GlifName: quotesingle
Width: 160
Flags: HMW
LayerCount: 3
Back
SplineSet
47 650 m 1
 115 650 l 1
 95 450 l 1
 65 450 l 1
 47 650 l 1
EndSplineSet
Fore
SplineSet
47 650 m 1
 115 650 l 1
 95 440 l 1
 65 440 l 1
 47 650 l 1
EndSplineSet
EndChar

StartChar: parenleft
Encoding: 40 40 14
GlifName: parenleft
Width: 285
Flags: HMW
LayerCount: 3
Back
SplineSet
98 230 m 0
 98 55 155 -95 250 -190 c 1
 229 -205 l 1
 113 -116 32 45 32 230 c 0
 32 415 113 576 229 665 c 1
 250 650 l 1
 155 555 98 405 98 230 c 0
EndSplineSet
Fore
SplineSet
103 240 m 0
 103 65 165 -85 270 -188 c 1
 250 -205 l 1
 122 -105 37 55 37 240 c 0
 37 425 122 585 250 685 c 1
 270 668 l 1
 165 565 103 415 103 240 c 0
EndSplineSet
EndChar

StartChar: parenright
Encoding: 41 41 15
GlifName: parenright
Width: 285
Flags: HMW
LayerCount: 3
Back
SplineSet
172 230 m 0
 172 405 115 555 20 650 c 1
 41 665 l 1
 157 576 238 415 238 230 c 0
 238 45 157 -116 41 -205 c 1
 20 -190 l 1
 115 -95 172 55 172 230 c 0
EndSplineSet
Fore
SplineSet
182 240 m 0
 182 415 120 565 15 668 c 1
 35 685 l 1
 163 585 248 425 248 240 c 0
 248 55 163 -105 35 -205 c 1
 15 -188 l 1
 120 -85 182 65 182 240 c 0
EndSplineSet
EndChar

StartChar: asterisk
Encoding: 42 42 16
GlifName: asterisk
Width: 380
Flags: HMW
LayerCount: 3
Back
SplineSet
223 482 m 1
 275 364 l 1
 230 344 l 1
 177 462 l 1
 81 375 l 1
 48 412 l 1
 144 499 l 1
 31 564 l 1
 57 607 l 1
 168 543 l 1
 195 670 l 1
 244 660 l 1
 217 532 l 1
 346 546 l 1
 352 496 l 1
 223 482 l 1
EndSplineSet
Fore
SplineSet
223 482 m 1
 275 364 l 1
 230 344 l 1
 177 462 l 1
 81 375 l 1
 48 412 l 1
 144 499 l 1
 31 564 l 1
 57 607 l 1
 168 543 l 1
 195 670 l 1
 244 660 l 1
 217 532 l 1
 346 546 l 1
 352 496 l 1
 223 482 l 1
EndSplineSet
EndChar

StartChar: comma
Encoding: 44 44 17
GlifName: comma
Width: 225
Flags: HMW
LayerCount: 3
Back
SplineSet
44 28 m 1
 62 105 l 1
 69 105 l 2
 120 105 170 70 170 3 c 0
 170 -62 123 -120 42 -150 c 1
 30 -126 l 1
 78 -107 105 -69 105 -33 c 0
 105 3 80 23 44 28 c 1
EndSplineSet
Fore
SplineSet
49 30 m 1
 69 105 l 1
 133 98 179 54 179 -12 c 0
 179 -79 133 -143 47 -172 c 1
 35 -147 l 1
 87 -127 115 -92 115 -47 c 0
 115 -8 89 23 49 30 c 1
EndSplineSet
Layer: 2
SplineSet
44 30 m 1
 64 105 l 1
 128 98 174 52 174 -15 c 0
 174 -82 128 -146 42 -175 c 1
 30 -150 l 1
 82 -130 110 -95 110 -50 c 0
 110 -11 84 23 44 30 c 1
234 30 m 1
 254 105 l 1
 317 98 365 53 365 -14 c 0
 365 -80 318 -145 232 -175 c 1
 220 -150 l 1
 270 -130 300 -95 300 -50 c 0
 300 -11 274 23 234 30 c 1
414 30 m 1
 430 105 l 1
 432 105 l 2
 492 105 545 55 545 -14 c 0
 545 -80 498 -145 412 -175 c 1
 400 -150 l 1
 450 -130 478 -95 478 -52 c 0
 478 -12 453 24 414 30 c 1
564 27 m 1
 580 105 l 1
 585 105 l 2
 644 105 695 52 695 -10 c 0
 695 -82 645 -146 562 -175 c 1
 550 -150 l 1
 600 -130 628 -95 628 -55 c 0
 628 -18 603 21 564 27 c 1
718 16 m 1
 738 104 l 1
 746 104 l 2
 802 104 857 64 857 -13 c 0
 857 -88 805 -155 716 -189 c 1
 703 -162 l 1
 756 -140 786 -96 786 -55 c 0
 786 -14 758 10 718 16 c 1
EndSplineSet
EndChar

StartChar: hyphen
Encoding: 45 45 18
GlifName: hyphen
Width: 235
Flags: HMW
LayerCount: 3
Back
SplineSet
20 234 m 1
 215 234 l 1
 215 176 l 1
 20 176 l 1
 20 234 l 1
EndSplineSet
Fore
SplineSet
20 234 m 1
 215 234 l 1
 215 176 l 1
 20 176 l 1
 20 234 l 1
EndSplineSet
EndChar

StartChar: zero
Encoding: 48 48 19
GlifName: zero
Width: 520
Flags: HMW
LayerCount: 3
Back
SplineSet
33 215 m 0
 33 340 135 442 260 442 c 0
 385 442 487 340 487 215 c 0
 487 90 385 -12 260 -12 c 0
 135 -12 33 90 33 215 c 0
89 217 m 0
 89 119 164 39 251 39 c 0
 340 39 393 105 393 215 c 0
 393 325 340 391 250 391 c 0
 161 391 89 316 89 217 c 0
EndSplineSet
Fore
SplineSet
33 215 m 0
 33 340 135 442 260 442 c 0
 385 442 487 340 487 215 c 0
 487 90 385 -12 260 -12 c 0
 135 -12 33 90 33 215 c 0
89 217 m 0
 89 119 164 39 251 39 c 0
 340 39 393 105 393 215 c 0
 393 325 340 391 250 391 c 0
 161 391 89 316 89 217 c 0
EndSplineSet
EndChar

StartChar: one
Encoding: 49 49 20
GlifName: one
Width: 360
Flags: HMW
LayerCount: 3
Back
SplineSet
216 37 m 1
 320 32 l 1
 320 -2 l 1
 180 2 l 1
 40 -2 l 1
 40 32 l 1
 144 37 l 1
 144 393 l 1
 40 398 l 1
 40 432 l 1
 180 428 l 1
 320 432 l 1
 320 398 l 1
 216 393 l 1
 216 37 l 1
EndSplineSet
Fore
SplineSet
216 37 m 1
 320 32 l 1
 320 -2 l 1
 180 2 l 1
 40 -2 l 1
 40 32 l 1
 144 37 l 1
 144 393 l 1
 40 398 l 1
 40 432 l 1
 180 428 l 1
 320 432 l 1
 320 398 l 1
 216 393 l 1
 216 37 l 1
EndSplineSet
EndChar

StartChar: two
Encoding: 50 50 21
GlifName: two
Width: 435
Flags: HMW
LayerCount: 3
Back
SplineSet
395 0 m 1
 40 0 l 1
 40 30 l 1
 190 165 240 222 240 305 c 0
 240 355 208 384 168 384 c 0
 132 384 105 363 85 336 c 1
 67 355 l 1
 97 405 145 443 200 443 c 0
 270 443 319 395 319 325 c 0
 319 252 272 191 165 98 c 2
 126 64 l 1
 127 61 l 1
 160 62 l 1
 346 62 l 2
 366 62 376 70 382 97 c 2
 386 115 l 1
 415 115 l 1
 395 0 l 1
EndSplineSet
Fore
SplineSet
395 0 m 1
 40 0 l 1
 40 30 l 1
 190 165 240 222 240 305 c 0
 240 355 208 384 168 384 c 0
 132 384 105 363 85 336 c 1
 67 355 l 1
 97 405 145 443 200 443 c 0
 270 443 319 395 319 325 c 0
 319 252 272 191 165 98 c 2
 126 64 l 1
 127 61 l 1
 160 62 l 1
 346 62 l 2
 366 62 376 70 382 97 c 2
 386 115 l 1
 415 115 l 1
 395 0 l 1
EndSplineSet
EndChar

StartChar: three
Encoding: 51 51 22
GlifName: three
Width: 390
Flags: HMW
LayerCount: 3
Back
SplineSet
35 -185 m 1
 165 -162 257 -87 257 23 c 0
 257 98 209 140 147 140 c 0
 128 140 105 136 85 128 c 1
 75 153 l 1
 90 161 l 2
 180 209 213 258 213 315 c 0
 213 358 182 387 148 387 c 0
 117 387 88 372 67 346 c 1
 50 364 l 1
 78 410 120 442 175 442 c 0
 237 442 285 398 285 338 c 0
 285 278 250 234 200 196 c 1
 200 193 l 1
 275 187 332 128 332 43 c 0
 332 -102 190 -192 40 -210 c 1
 35 -185 l 1
EndSplineSet
Fore
SplineSet
35 -185 m 1
 165 -162 257 -87 257 23 c 0
 257 98 209 140 147 140 c 0
 128 140 105 136 85 128 c 1
 75 153 l 1
 90 161 l 2
 180 209 213 258 213 315 c 0
 213 358 182 387 148 387 c 0
 117 387 88 372 67 346 c 1
 50 364 l 1
 78 410 120 442 175 442 c 0
 237 442 285 398 285 338 c 0
 285 278 250 234 200 196 c 1
 200 193 l 1
 275 187 332 128 332 43 c 0
 332 -102 190 -192 40 -210 c 1
 35 -185 l 1
EndSplineSet
EndChar

StartChar: four
Encoding: 52 52 23
GlifName: four
Width: 505
Flags: HMW
LayerCount: 3
Back
SplineSet
350 60 m 1
 485 60 l 1
 480 0 l 1
 350 0 l 1
 350 -200 l 1
 285 -200 l 1
 285 0 l 1
 10 0 l 1
 10 35 l 1
 325 450 l 1
 350 450 l 1
 350 60 l 1
285 60 m 1
 285 334 l 1
 284 334 l 1
 78 62 l 1
 78 60 l 1
 285 60 l 1
EndSplineSet
Fore
SplineSet
350 60 m 1
 485 60 l 1
 480 0 l 1
 350 0 l 1
 350 -200 l 1
 285 -200 l 1
 285 0 l 1
 10 0 l 1
 10 35 l 1
 325 450 l 1
 350 450 l 1
 350 60 l 1
285 60 m 1
 285 334 l 1
 284 334 l 1
 78 62 l 1
 78 60 l 1
 285 60 l 1
EndSplineSet
EndChar

StartChar: five
Encoding: 53 53 24
GlifName: five
Width: 390
Flags: HMW
LayerCount: 3
Back
SplineSet
65 214 m 1
 90 430 l 1
 340 430 l 1
 340 365 l 1
 125 365 l 1
 115 278 l 1
 214 237 301 157 301 39 c 0
 301 -92 192 -193 47 -220 c 1
 42 -194 l 1
 153 -162 226 -86 226 20 c 0
 226 118 160 184 65 214 c 1
EndSplineSet
Fore
SplineSet
65 214 m 1
 90 430 l 1
 340 430 l 1
 340 365 l 1
 125 365 l 1
 115 278 l 1
 214 237 301 157 301 39 c 0
 301 -92 192 -193 47 -220 c 1
 42 -194 l 1
 153 -162 226 -86 226 20 c 0
 226 118 160 184 65 214 c 1
EndSplineSet
EndChar

StartChar: six
Encoding: 54 54 25
GlifName: six
Width: 475
Flags: HMW
LayerCount: 3
Back
SplineSet
410 660 m 1
 420 636 l 1
 245 553 125 400 125 226 c 0
 125 98 177 23 252 23 c 0
 317 23 357 85 357 165 c 0
 357 255 308 307 240 307 c 0
 222 307 197 302 179 294 c 1
 174 315 l 1
 204 340 242 355 280 355 c 0
 362 355 436 292 436 185 c 0
 436 70 352 -12 240 -12 c 0
 140 -12 46 70 46 205 c 0
 46 415 210 588 410 660 c 1
EndSplineSet
Fore
SplineSet
410 660 m 1
 420 636 l 1
 245 553 125 400 125 226 c 0
 125 98 177 23 252 23 c 0
 317 23 357 85 357 165 c 0
 357 255 308 307 240 307 c 0
 222 307 197 302 179 294 c 1
 174 315 l 1
 204 340 242 355 280 355 c 0
 362 355 436 292 436 185 c 0
 436 70 352 -12 240 -12 c 0
 140 -12 46 70 46 205 c 0
 46 415 210 588 410 660 c 1
EndSplineSet
EndChar

StartChar: seven
Encoding: 55 55 26
GlifName: seven
Width: 445
Flags: HMW
LayerCount: 3
Back
SplineSet
415 430 m 1
 415 410 l 1
 129 -225 l 1
 79 -215 l 1
 353 363 l 1
 353 365 l 1
 103 365 l 2
 81 365 70 358 63 324 c 2
 60 310 l 1
 29 310 l 1
 47 430 l 1
 415 430 l 1
EndSplineSet
Fore
SplineSet
415 430 m 1
 415 410 l 1
 129 -225 l 1
 79 -215 l 1
 353 363 l 1
 353 365 l 1
 103 365 l 2
 81 365 70 358 63 324 c 2
 60 310 l 1
 29 310 l 1
 47 430 l 1
 415 430 l 1
EndSplineSet
EndChar

StartChar: eight
Encoding: 56 56 27
GlifName: eight
Width: 449
Flags: HMW
LayerCount: 3
Back
SplineSet
248 368 m 1
 296 405 312 450 312 503 c 0
 312 572 278 619 220 619 c 0
 169 619 131 579 131 525 c 0
 131 467 171 429 219 391 c 2
 248 368 l 1
176 328 m 1
 115 378 62 426 62 495 c 0
 62 575 132 653 230 653 c 0
 318 653 383 588 383 515 c 0
 383 442 342 397 270 352 c 1
 270 351 l 1
 341 294 407 244 407 160 c 0
 407 65 329 -13 220 -13 c 0
 121 -13 42 55 42 145 c 0
 42 220 90 277 176 327 c 1
 176 328 l 1
197 311 m 1
 146 275 117 225 117 160 c 0
 117 77 162 22 232 22 c 0
 296 22 335 66 335 130 c 0
 335 186 304 225 227 287 c 2
 197 311 l 1
EndSplineSet
Fore
SplineSet
248 368 m 1
 296 405 312 450 312 503 c 0
 312 572 278 619 220 619 c 0
 169 619 131 579 131 525 c 0
 131 467 171 429 219 391 c 2
 248 368 l 1
176 328 m 1
 115 378 62 426 62 495 c 0
 62 575 132 653 230 653 c 0
 318 653 383 588 383 515 c 0
 383 442 342 397 270 352 c 1
 270 351 l 1
 341 294 407 244 407 160 c 0
 407 65 329 -13 220 -13 c 0
 121 -13 42 55 42 145 c 0
 42 220 90 277 176 327 c 1
 176 328 l 1
197 311 m 1
 146 275 117 225 117 160 c 0
 117 77 162 22 232 22 c 0
 296 22 335 66 335 130 c 0
 335 186 304 225 227 287 c 2
 197 311 l 1
EndSplineSet
EndChar

StartChar: nine
Encoding: 57 57 28
GlifName: nine
Width: 475
Flags: HMW
LayerCount: 3
Back
SplineSet
65 -225 m 1
 55 -200 l 1
 250 -120 349 20 349 195 c 0
 349 330 299 407 224 407 c 0
 160 407 120 350 120 272 c 0
 120 180 168 125 232 125 c 0
 252 125 277 129 295 137 c 1
 300 117 l 1
 268 90 230 77 195 77 c 0
 114 77 41 139 41 245 c 0
 41 358 129 442 237 442 c 0
 340 442 429 360 429 215 c 0
 429 10 290 -155 65 -225 c 1
EndSplineSet
Fore
SplineSet
65 -225 m 1
 55 -200 l 1
 250 -120 349 20 349 195 c 0
 349 330 299 407 224 407 c 0
 160 407 120 350 120 272 c 0
 120 180 168 125 232 125 c 0
 252 125 277 129 295 137 c 1
 300 117 l 1
 268 90 230 77 195 77 c 0
 114 77 41 139 41 245 c 0
 41 358 129 442 237 442 c 0
 340 442 429 360 429 215 c 0
 429 10 290 -155 65 -225 c 1
EndSplineSet
EndChar

StartChar: colon
Encoding: 58 58 29
GlifName: colon
Width: 200
Flags: HMW
LayerCount: 3
Back
SplineSet
50 353 m 0
 50 381 72 403 100 403 c 0
 128 403 150 381 150 353 c 0
 150 325 128 303 100 303 c 0
 72 303 50 325 50 353 c 0
50 43 m 0
 50 71 72 93 100 93 c 0
 128 93 150 71 150 43 c 0
 150 15 128 -7 100 -7 c 0
 72 -7 50 15 50 43 c 0
EndSplineSet
Fore
SplineSet
49 353 m 0
 49 382 71 404 100 404 c 0
 129 404 151 382 151 353 c 0
 151 324 129 302 100 302 c 0
 71 302 49 324 49 353 c 0
49 43 m 0
 49 72 71 94 100 94 c 0
 129 94 151 72 151 43 c 0
 151 14 129 -8 100 -8 c 0
 71 -8 49 14 49 43 c 0
EndSplineSet
EndChar

StartChar: semicolon
Encoding: 59 59 30
GlifName: semicolon
Width: 200
Flags: HMW
LayerCount: 3
Back
SplineSet
50 353 m 0
 50 381 72 403 100 403 c 0
 128 403 150 381 150 353 c 0
 150 325 128 303 100 303 c 0
 72 303 50 325 50 353 c 0
39 28 m 1
 57 105 l 1
 65 105 l 2
 116 105 164 70 164 6 c 0
 164 -52 119 -110 39 -140 c 1
 26 -116 l 1
 74 -97 100 -62 100 -25 c 0
 100 7 72 23 39 28 c 1
EndSplineSet
Fore
SplineSet
49 353 m 0
 49 382 71 404 100 404 c 0
 129 404 151 382 151 353 c 0
 151 324 129 302 100 302 c 0
 71 302 49 324 49 353 c 0
39 28 m 1
 57 105 l 1
 65 105 l 2
 116 105 164 70 164 6 c 0
 164 -52 119 -110 39 -140 c 1
 26 -116 l 1
 74 -97 100 -62 100 -25 c 0
 100 7 72 23 39 28 c 1
EndSplineSet
EndChar

StartChar: question
Encoding: 63 63 31
GlifName: question
Width: 317
Flags: HMW
LayerCount: 3
Back
SplineSet
64 42 m 0
 64 67 85 88 110 88 c 0
 135 88 156 67 156 42 c 0
 156 17 135 -4 110 -4 c 0
 85 -4 64 17 64 42 c 0
257 442 m 0
 257 520 185 553 90 555 c 1
 90 668 l 1
 118 668 l 1
 118 664 l 2
 118 637 131 637 171 617 c 0
 247 580 292 525 292 440 c 0
 292 358 249 301 175 265 c 0
 135 245 125 240 125 210 c 2
 125 180 l 1
 95 180 l 1
 95 325 l 1
 185 328 257 360 257 442 c 0
EndSplineSet
Fore
SplineSet
63 42 m 0
 63 68 84 89 110 89 c 0
 136 89 157 68 157 42 c 0
 157 16 136 -5 110 -5 c 0
 84 -5 63 16 63 42 c 0
253 437 m 0
 253 510 183 544 87 546 c 1
 87 658 l 1
 118 658 l 1
 118 653 l 2
 118 627 131 627 171 607 c 0
 245 571 288 516 288 435 c 0
 288 358 246 298 175 264 c 0
 135 245 125 239 125 210 c 2
 125 180 l 1
 92 180 l 1
 92 324 l 1
 183 327 253 360 253 437 c 0
EndSplineSet
EndChar

StartChar: A
Encoding: 65 65 32
GlifName: A_
Width: 650
Flags: HMW
AnchorPoint: "CapTop" 333 710 basechar 0
LayerCount: 3
Back
SplineSet
437 227 m 1
 179 227 l 1
 121 91 l 1
 105 34 l 1
 177 34 l 1
 177 0 l 1
 0 0 l 1
 0 34 l 1
 50 34 l 1
 321 660 l 1
 345 660 l 1
 601 34 l 1
 650 34 l 1
 650 0 l 1
 447 0 l 1
 447 34 l 1
 514 34 l 1
 437 227 l 1
422 265 m 1
 314 535 l 1
 310 535 l 1
 195 265 l 1
 422 265 l 1
EndSplineSet
Fore
SplineSet
437 227 m 1
 179 227 l 1
 122 93 l 1
 108 40 l 1
 180 40 l 1
 180 0 l 1
 -2 0 l 1
 -2 40 l 1
 53 40 l 1
 321 660 l 1
 345 660 l 1
 599 40 l 1
 652 40 l 1
 652 0 l 1
 444 0 l 1
 444 40 l 1
 512 40 l 1
 437 227 l 1
421 267 m 1
 314 535 l 1
 310 535 l 1
 196 267 l 1
 421 267 l 1
EndSplineSet
Layer: 2
SplineSet
178 350 m 0
 178 362 187 371 199 371 c 0
 211 371 220 362 220 350 c 0
 220 338 211 329 199 329 c 0
 187 329 178 338 178 350 c 0
178 351 m 0
 178 362 187 371 198 371 c 0
 209 371 218 362 218 351 c 0
 218 340 209 331 198 331 c 0
 187 331 178 340 178 351 c 0
EndSplineSet
EndChar

StartChar: B
Encoding: 66 66 33
GlifName: B_
Width: 547
Flags: HMW
LayerCount: 3
Back
SplineSet
360 347 m 1
 448 330 515 273 515 188 c 0
 515 70 425 0 265 0 c 2
 33 0 l 1
 33 34 l 1
 110 34 l 1
 110 606 l 1
 33 606 l 1
 33 640 l 1
 255 640 l 2
 392 640 475 585 475 490 c 0
 475 425 425 373 360 350 c 1
 360 347 l 1
190 322 m 1
 190 69 l 2
 190 50 201 38 220 38 c 2
 260 38 l 2
 365 38 427 93 427 180 c 0
 427 265 369 322 247 322 c 2
 190 322 l 1
242 604 m 2
 190 604 l 1
 190 358 l 1
 260 358 l 2
 335 358 391 406 391 483 c 0
 391 560 347 604 242 604 c 2
EndSplineSet
Fore
SplineSet
360 347 m 1
 448 330 515 273 515 188 c 0
 515 70 425 0 265 0 c 2
 28 0 l 1
 28 40 l 1
 110 40 l 1
 110 600 l 1
 28 600 l 1
 28 640 l 1
 255 640 l 2
 392 640 475 585 475 490 c 0
 475 425 425 373 360 350 c 1
 360 347 l 1
190 322 m 1
 190 71 l 2
 190 52 201 40 220 40 c 2
 260 40 l 2
 365 40 427 93 427 180 c 0
 427 265 369 322 247 322 c 2
 190 322 l 1
242 602 m 2
 190 602 l 1
 190 360 l 1
 260 360 l 2
 335 360 391 406 391 483 c 0
 391 558 347 602 242 602 c 2
EndSplineSet
EndChar

StartChar: C
Encoding: 67 67 34
GlifName: C_
Width: 650
Flags: HMW
AnchorPoint: "CapBottom" 380 10 basechar 0
LayerCount: 3
Back
SplineSet
585 138 m 2
 605 185 l 1
 635 185 l 1
 584 30 l 1
 528 2 452 -14 385 -14 c 0
 178 -14 35 125 35 320 c 0
 35 515 198 654 385 654 c 0
 455 654 532 637 588 607 c 1
 610 460 l 1
 580 460 l 1
 573 490 l 2
 566 520 552 548 535 565 c 0
 505 595 452 618 377 618 c 0
 240 618 130 505 130 335 c 0
 130 152 235 25 390 25 c 0
 505 25 557 72 585 138 c 2
EndSplineSet
Fore
SplineSet
580 138 m 2
 600 185 l 1
 635 185 l 1
 584 30 l 1
 528 2 452 -14 385 -14 c 0
 178 -14 35 125 35 320 c 0
 35 515 198 654 385 654 c 0
 455 654 532 637 588 607 c 1
 610 460 l 1
 575 460 l 1
 568 490 l 2
 561 520 547 548 530 565 c 0
 502 593 450 616 377 616 c 0
 240 616 130 505 130 335 c 0
 130 152 235 27 390 27 c 0
 500 27 552 72 580 138 c 2
EndSplineSet
EndChar

StartChar: D
Encoding: 68 68 35
GlifName: D_
Width: 718
Flags: HMW
LayerCount: 3
Back
SplineSet
310 642 m 2
 515 642 684 530 684 332 c 0
 684 140 537 0 320 0 c 2
 35 0 l 1
 35 34 l 1
 110 34 l 1
 110 606 l 1
 35 606 l 1
 35 640 l 1
 310 642 l 2
300 605 m 2
 190 605 l 1
 190 80 l 2
 190 52 205 38 235 38 c 2
 317 38 l 2
 485 38 592 150 592 320 c 0
 592 505 472 605 300 605 c 2
EndSplineSet
Fore
SplineSet
310 642 m 2
 515 642 684 530 684 332 c 0
 684 140 537 0 320 0 c 2
 30 0 l 1
 30 40 l 1
 110 40 l 1
 110 600 l 1
 30 600 l 1
 30 640 l 1
 310 642 l 2
300 603 m 2
 190 603 l 1
 190 82 l 2
 190 54 205 40 235 40 c 2
 317 40 l 2
 485 40 592 150 592 320 c 0
 592 505 472 603 300 603 c 2
EndSplineSet
EndChar

StartChar: E
Encoding: 69 69 36
GlifName: E_
Width: 555
Flags: HMW
AnchorPoint: "CapTop" 275 710 basechar 0
LayerCount: 3
Back
SplineSet
383 604 m 2
 190 604 l 1
 190 355 l 1
 387 355 l 1
 387 423 l 1
 420 423 l 1
 420 338 l 1
 420 243 l 1
 387 243 l 1
 387 318 l 1
 190 318 l 1
 190 68 l 2
 190 48 200 38 220 38 c 2
 373 38 l 2
 433 38 461 62 485 147 c 2
 493 175 l 1
 525 175 l 1
 490 0 l 1
 25 0 l 1
 25 34 l 1
 110 34 l 1
 110 606 l 1
 32 606 l 1
 32 640 l 1
 485 640 l 1
 490 490 l 1
 459 490 l 1
 455 524 l 2
 447 590 425 604 383 604 c 2
EndSplineSet
Fore
SplineSet
378 602 m 2
 190 602 l 1
 190 355 l 1
 382 355 l 1
 382 423 l 1
 420 423 l 1
 420 338 l 1
 420 243 l 1
 382 243 l 1
 382 316 l 1
 190 316 l 1
 190 70 l 2
 190 50 200 40 220 40 c 2
 368 40 l 2
 428 40 456 64 480 149 c 2
 488 177 l 1
 525 177 l 1
 490 0 l 1
 20 0 l 1
 20 40 l 1
 110 40 l 1
 110 600 l 1
 27 600 l 1
 27 640 l 1
 485 640 l 1
 490 488 l 1
 454 488 l 1
 450 522 l 2
 442 588 420 602 378 602 c 2
EndSplineSet
EndChar

StartChar: F
Encoding: 70 70 37
GlifName: F_
Width: 505
Flags: HMW
LayerCount: 3
Back
SplineSet
190 305 m 1
 190 34 l 1
 285 34 l 1
 285 0 l 1
 35 0 l 1
 35 34 l 1
 110 34 l 1
 110 606 l 1
 28 606 l 1
 28 640 l 1
 480 640 l 1
 490 480 l 1
 458 480 l 1
 450 527 l 2
 440 585 415 604 372 604 c 2
 190 604 l 1
 190 342 l 1
 392 342 l 1
 392 420 l 1
 425 420 l 1
 425 325 l 1
 425 220 l 1
 392 220 l 1
 392 305 l 1
 190 305 l 1
EndSplineSet
Fore
SplineSet
190 303 m 1
 190 40 l 1
 290 40 l 1
 290 0 l 1
 30 0 l 1
 30 40 l 1
 110 40 l 1
 110 600 l 1
 23 600 l 1
 23 640 l 1
 480 640 l 1
 490 478 l 1
 453 478 l 1
 445 525 l 2
 435 583 410 602 367 602 c 2
 190 602 l 1
 190 342 l 1
 387 342 l 1
 387 420 l 1
 425 420 l 1
 425 325 l 1
 425 220 l 1
 387 220 l 1
 387 303 l 1
 190 303 l 1
EndSplineSet
EndChar

StartChar: G
Encoding: 71 71 38
GlifName: G_
Width: 705
Flags: HMW
LayerCount: 3
Back
SplineSet
528 52 m 1
 528 242 l 1
 434 242 l 1
 434 276 l 1
 665 276 l 1
 665 242 l 1
 605 242 l 1
 604 25 l 1
 530 0 452 -14 385 -14 c 0
 178 -14 35 125 35 320 c 0
 35 510 190 654 388 654 c 0
 462 654 537 635 592 605 c 1
 600 465 l 1
 570 465 l 1
 565 500 l 2
 561 526 551 551 534 568 c 0
 504 598 452 618 385 618 c 0
 230 618 126 500 126 330 c 0
 126 160 231 24 393 24 c 0
 437 24 489 31 528 52 c 1
EndSplineSet
Fore
SplineSet
528 53 m 1
 528 236 l 1
 430 236 l 1
 430 276 l 1
 668 276 l 1
 668 236 l 1
 605 236 l 1
 604 25 l 1
 530 0 452 -14 385 -14 c 0
 178 -14 35 125 35 320 c 0
 35 510 190 654 388 654 c 0
 462 654 537 635 592 605 c 1
 600 465 l 1
 565 465 l 1
 560 500 l 2
 556 526 546 551 529 568 c 0
 501 596 450 616 385 616 c 0
 230 616 126 500 126 330 c 0
 126 160 232 26 393 26 c 0
 437 26 489 32 528 53 c 1
EndSplineSet
EndChar

StartChar: H
Encoding: 72 72 39
GlifName: H_
Width: 765
Flags: HMW
LayerCount: 3
Back
SplineSet
33 606 m 1
 33 640 l 1
 267 640 l 1
 267 606 l 1
 190 606 l 1
 190 352 l 1
 575 352 l 1
 575 606 l 1
 498 606 l 1
 498 640 l 1
 732 640 l 1
 732 606 l 1
 655 606 l 1
 655 34 l 1
 732 34 l 1
 732 0 l 1
 498 0 l 1
 498 34 l 1
 575 34 l 1
 575 312 l 1
 190 312 l 1
 190 34 l 1
 267 34 l 1
 267 0 l 1
 33 0 l 1
 33 34 l 1
 110 34 l 1
 110 606 l 1
 33 606 l 1
EndSplineSet
Fore
SplineSet
28 600 m 1
 28 640 l 1
 272 640 l 1
 272 600 l 1
 190 600 l 1
 190 352 l 1
 575 352 l 1
 575 600 l 1
 493 600 l 1
 493 640 l 1
 737 640 l 1
 737 600 l 1
 655 600 l 1
 655 40 l 1
 737 40 l 1
 737 0 l 1
 493 0 l 1
 493 40 l 1
 575 40 l 1
 575 310 l 1
 190 310 l 1
 190 40 l 1
 272 40 l 1
 272 0 l 1
 28 0 l 1
 28 40 l 1
 110 40 l 1
 110 600 l 1
 28 600 l 1
EndSplineSet
EndChar

StartChar: I
Encoding: 73 73 40
GlifName: I_
Width: 300
Flags: HMW
AnchorPoint: "CapTop" 150 710 basechar 0
LayerCount: 3
Back
SplineSet
30 606 m 1
 30 640 l 1
 270 640 l 1
 270 606 l 1
 190 606 l 1
 190 34 l 1
 270 34 l 1
 270 0 l 1
 30 0 l 1
 30 34 l 1
 110 34 l 1
 110 606 l 1
 30 606 l 1
EndSplineSet
Fore
SplineSet
25 600 m 1
 25 640 l 1
 275 640 l 1
 275 600 l 1
 190 600 l 1
 190 40 l 1
 275 40 l 1
 275 0 l 1
 25 0 l 1
 25 40 l 1
 110 40 l 1
 110 600 l 1
 25 600 l 1
EndSplineSet
EndChar

StartChar: J
Encoding: 74 74 41
GlifName: J_
Width: 290
Flags: HMW
LayerCount: 3
Back
SplineSet
185 15 m 2
 185 -130 90 -240 -34 -240 c 0
 -65 -240 -95 -232 -115 -219 c 1
 -77 -154 l 1
 -75 -154 l 1
 -52 -173 -18 -185 12 -185 c 0
 80 -185 105 -140 105 -30 c 2
 105 606 l 1
 13 606 l 1
 13 640 l 1
 262 640 l 1
 262 606 l 1
 185 606 l 1
 185 15 l 2
EndSplineSet
Fore
SplineSet
185 15 m 2
 185 -130 90 -240 -34 -240 c 0
 -65 -240 -95 -232 -115 -219 c 1
 -77 -154 l 1
 -75 -154 l 1
 -52 -173 -18 -185 12 -185 c 0
 80 -185 105 -140 105 -30 c 2
 105 600 l 1
 8 600 l 1
 8 640 l 1
 267 640 l 1
 267 600 l 1
 185 600 l 1
 185 15 l 2
EndSplineSet
EndChar

StartChar: K
Encoding: 75 75 42
GlifName: K_
Width: 640
Flags: HMW
LayerCount: 3
Back
SplineSet
37 600 m 1
 37 640 l 1
 281 640 l 1
 281 600 l 1
 199 600 l 1
 199 40 l 1
 276 40 l 1
 276 0 l 1
 37 0 l 1
 37 40 l 1
 119 40 l 1
 119 600 l 1
 37 600 l 1
598 640 m 1
 598 606 l 1
 540 606 l 1
 293 366 l 1
 593 34 l 1
 646 34 l 1
 646 0 l 1
 420 0 l 1
 420 34 l 1
 488 34 l 1
 214 340 l 1
 457 580 l 1
 474 606 l 1
 409 606 l 1
 409 640 l 1
 598 640 l 1
EndSplineSet
Fore
SplineSet
37 600 m 1
 37 640 l 1
 281 640 l 1
 281 600 l 1
 199 600 l 1
 199 40 l 1
 276 40 l 1
 276 0 l 1
 37 0 l 1
 37 40 l 1
 119 40 l 1
 119 600 l 1
 37 600 l 1
598 640 m 1
 598 600 l 1
 534 600 l 1
 293 366 l 1
 588 40 l 1
 646 40 l 1
 646 0 l 1
 415 0 l 1
 415 40 l 1
 483 40 l 1
 214 340 l 1
 451 574 l 1
 468 600 l 1
 405 600 l 1
 405 640 l 1
 598 640 l 1
EndSplineSet
Layer: 2
SplineSet
42 608 m 1
 42 640 l 1
 276 640 l 1
 276 608 l 1
 199 608 l 1
 199 32 l 1
 271 32 l 1
 271 0 l 1
 42 0 l 1
 42 32 l 1
 119 32 l 1
 119 608 l 1
 42 608 l 1
595 640 m 1
 595 608 l 1
 542 608 l 1
 293 366 l 1
 595 32 l 1
 644 32 l 1
 644 0 l 1
 427 0 l 1
 427 32 l 1
 490 32 l 1
 214 340 l 1
 459 582 l 1
 476 608 l 1
 416 608 l 1
 416 640 l 1
 595 640 l 1
EndSplineSet
EndChar

StartChar: L
Encoding: 76 76 43
GlifName: L_
Width: 565
Flags: HMW
LayerCount: 3
Back
SplineSet
120 34 m 1
 120 606 l 1
 43 606 l 1
 43 640 l 1
 287 640 l 1
 287 606 l 1
 200 606 l 1
 200 74 l 2
 200 51 213 39 235 39 c 2
 385 39 l 2
 445 39 478 68 515 155 c 2
 530 190 l 1
 562 190 l 1
 502 0 l 1
 41 0 l 1
 41 34 l 1
 120 34 l 1
EndSplineSet
Fore
SplineSet
120 40 m 1
 120 600 l 1
 38 600 l 1
 38 640 l 1
 292 640 l 1
 292 600 l 1
 200 600 l 1
 200 76 l 2
 200 53 213 41 235 41 c 2
 385 41 l 2
 445 41 478 68 515 155 c 2
 530 190 l 1
 567 190 l 1
 507 0 l 1
 36 0 l 1
 36 40 l 1
 120 40 l 1
EndSplineSet
EndChar

StartChar: M
Encoding: 77 77 44
GlifName: M_
Width: 874
Flags: HMW
LayerCount: 3
Back
SplineSet
668 640 m 1
 824 640 l 1
 824 606 l 1
 793 606 l 2
 766 606 754 595 754 573 c 2
 754 571 l 1
 768 34 l 1
 845 34 l 1
 845 0 l 1
 611 0 l 1
 611 34 l 1
 688 34 l 1
 675 544 l 1
 672 544 l 1
 420 -8 l 1
 398 -8 l 1
 168 544 l 1
 165 544 l 1
 140 34 l 1
 220 34 l 1
 220 0 l 1
 19 0 l 1
 19 34 l 1
 96 34 l 1
 125 587 l 1
 115 602 100 606 70 606 c 2
 49 606 l 1
 49 640 l 1
 216 640 l 1
 430 115 l 1
 433 115 l 1
 668 640 l 1
EndSplineSet
Fore
SplineSet
670 640 m 1
 831 640 l 1
 831 601 l 1
 795 601 l 2
 768 601 756 590 756 568 c 2
 756 566 l 1
 770 40 l 1
 852 40 l 1
 852 0 l 1
 609 0 l 1
 609 40 l 1
 690 40 l 1
 677 544 l 1
 674 544 l 1
 422 -8 l 1
 400 -8 l 1
 170 544 l 1
 167 544 l 1
 142 40 l 1
 226 40 l 1
 226 0 l 1
 15 0 l 1
 15 40 l 1
 96 40 l 1
 125 582 l 1
 115 597 100 601 70 601 c 2
 44 601 l 1
 44 640 l 1
 218 640 l 1
 432 115 l 1
 435 115 l 1
 670 640 l 1
EndSplineSet
Layer: 2
SplineSet
123 640 m 1
 211 640 l 1
 426 113 l 1
 429 113 l 1
 665 640 l 1
 713 640 l 1
 416 -10 l 1
 394 -10 l 1
 123 640 l 1
EndSplineSet
EndChar

StartChar: N
Encoding: 78 78 45
GlifName: N_
Width: 749
Flags: HMW
AnchorPoint: "CapTop" 364 710 basechar 0
LayerCount: 3
Back
SplineSet
13 607 m 1
 13 640 l 1
 176 640 l 1
 597 140 l 1
 600 141 l 1
 600 606 l 1
 515 606 l 1
 515 640 l 1
 723 640 l 1
 723 606 l 1
 644 606 l 1
 644 -15 l 1
 614 -15 l 1
 157 528 l 1
 154 527 l 1
 154 34 l 1
 237 34 l 1
 237 0 l 1
 30 0 l 1
 30 34 l 1
 110 34 l 1
 110 570 l 1
 85 597 64 607 29 607 c 2
 13 607 l 1
EndSplineSet
Fore
SplineSet
13 601 m 1
 13 640 l 1
 176 640 l 1
 595 142 l 1
 598 143 l 1
 598 600 l 1
 515 600 l 1
 515 640 l 1
 723 640 l 1
 723 600 l 1
 644 600 l 1
 644 -15 l 1
 614 -15 l 1
 159 526 l 1
 156 525 l 1
 156 40 l 1
 237 40 l 1
 237 0 l 1
 30 0 l 1
 30 40 l 1
 110 40 l 1
 110 569 l 1
 86 595 64 601 29 601 c 2
 13 601 l 1
EndSplineSet
EndChar

StartChar: O
Encoding: 79 79 46
GlifName: O_
Width: 740
Flags: HMW
AnchorPoint: "CapTop" 369 710 basechar 0
LayerCount: 3
Back
SplineSet
35 320 m 0
 35 507 183 654 370 654 c 0
 557 654 705 507 705 320 c 0
 705 133 557 -14 370 -14 c 0
 183 -14 35 133 35 320 c 0
129 335 m 0
 129 153 236 23 380 23 c 0
 515 23 611 143 611 305 c 0
 611 487 504 618 360 618 c 0
 225 618 129 497 129 335 c 0
EndSplineSet
Fore
SplineSet
35 320 m 0
 35 507 183 654 370 654 c 0
 557 654 705 507 705 320 c 0
 705 133 557 -14 370 -14 c 0
 183 -14 35 133 35 320 c 0
129 335 m 0
 129 153 236 25 380 25 c 0
 515 25 611 143 611 305 c 0
 611 487 504 616 360 616 c 0
 225 616 129 497 129 335 c 0
EndSplineSet
EndChar

StartChar: P
Encoding: 80 80 47
GlifName: P_
Width: 510
Flags: HMW
LayerCount: 3
Back
SplineSet
220 605 m 2
 200 605 190 595 190 575 c 2
 190 34 l 1
 282 34 l 1
 282 0 l 1
 33 0 l 1
 33 34 l 1
 110 34 l 1
 110 606 l 1
 31 606 l 1
 31 640 l 1
 255 640 l 2
 402 640 500 572 500 455 c 0
 500 320 380 248 245 248 c 0
 240 248 231 249 225 250 c 1
 225 282 l 1
 250 282 l 2
 345 282 410 340 410 440 c 0
 410 547 350 605 245 605 c 2
 220 605 l 2
EndSplineSet
Fore
SplineSet
220 603 m 2
 200 603 190 593 190 573 c 2
 190 40 l 1
 287 40 l 1
 287 0 l 1
 28 0 l 1
 28 40 l 1
 110 40 l 1
 110 600 l 1
 26 600 l 1
 26 640 l 1
 255 640 l 2
 402 640 500 572 500 455 c 0
 500 320 380 248 245 248 c 0
 240 248 231 249 225 250 c 1
 225 282 l 1
 250 282 l 2
 345 282 410 340 410 440 c 0
 410 545 350 603 245 603 c 2
 220 603 l 2
EndSplineSet
EndChar

StartChar: Q
Encoding: 81 81 48
GlifName: Q_
Width: 740
Flags: HMW
LayerCount: 3
Back
SplineSet
129 335 m 0
 129 153 236 23 380 23 c 0
 515 23 611 143 611 305 c 0
 611 487 504 618 360 618 c 0
 225 618 129 497 129 335 c 0
35 320 m 0
 35 507 183 654 370 654 c 0
 557 654 705 507 705 320 c 0
 705 176 615 46 475 4 c 1
 475 0 l 1
 580 -35 645 -130 785 -130 c 0
 817 -130 859 -125 889 -110 c 1
 897 -130 l 1
 860 -160 797 -182 745 -182 c 0
 560 -182 456 -21 335 -12 c 0
 193 -1 35 120 35 320 c 0
EndSplineSet
Fore
SplineSet
465 -2 m 1
 570 -37 635 -132 775 -132 c 0
 807 -132 849 -127 879 -112 c 1
 887 -132 l 1
 850 -162 787 -184 735 -184 c 0
 550 -184 446 -26 325 -11 c 0
 160 10 35 148 35 320 c 0
 35 507 183 654 370 654 c 0
 557 654 705 507 705 320 c 0
 705 165 604 40 465 1 c 1
 465 -2 l 1
129 335 m 0
 129 153 236 25 380 25 c 0
 515 25 611 143 611 305 c 0
 611 487 504 616 360 616 c 0
 225 616 129 497 129 335 c 0
EndSplineSet
Layer: 2
SplineSet
465 2 m 1
 465 -2 l 1
 570 -37 635 -132 775 -132 c 0
 807 -132 849 -127 879 -112 c 1
 887 -132 l 1
 850 -162 787 -184 735 -184 c 0
 550 -184 446 -23 325 -14 c 1024
35 320 m 0
 35 507 183 654 370 654 c 0
 557 654 705 507 705 320 c 0
 705 133 557 -14 370 -14 c 0
 183 -14 35 133 35 320 c 0
129 335 m 0
 129 153 236 25 380 25 c 0
 515 25 611 143 611 305 c 0
 611 487 504 616 360 616 c 0
 225 616 129 497 129 335 c 0
EndSplineSet
EndChar

StartChar: R
Encoding: 82 82 49
GlifName: R_
Width: 645
Flags: HMW
LayerCount: 3
Back
SplineSet
190 284 m 1
 190 34 l 1
 267 34 l 1
 267 0 l 1
 36 0 l 1
 36 34 l 1
 110 34 l 1
 110 606 l 1
 33 606 l 1
 33 640 l 1
 247 640 l 2
 395 640 482 577 482 472 c 0
 482 392 430 334 356 303 c 1
 356 300 l 1
 435 182 l 2
 526 46 575 30 635 30 c 2
 645 30 l 1
 645 10 l 1
 628 -2 600 -10 575 -10 c 0
 502 -10 440 21 346 177 c 2
 282 283 l 1
 190 284 l 1
215 605 m 2
 200 605 190 594 190 578 c 2
 190 322 l 1
 202 320 225 318 237 318 c 0
 343 318 399 376 399 465 c 0
 399 551 343 605 240 605 c 2
 215 605 l 2
EndSplineSet
Fore
SplineSet
190 282 m 1
 190 40 l 1
 272 40 l 1
 272 0 l 1
 31 0 l 1
 31 40 l 1
 110 40 l 1
 110 600 l 1
 28 600 l 1
 28 640 l 1
 247 640 l 2
 395 640 482 577 482 472 c 0
 482 392 430 334 356 303 c 1
 356 300 l 1
 435 182 l 2
 526 46 575 30 635 30 c 2
 645 30 l 1
 645 5 l 1
 628 -3 600 -10 575 -10 c 0
 502 -10 440 21 346 177 c 2
 283 281 l 1
 190 282 l 1
215 603 m 2
 200 603 190 592 190 576 c 2
 190 322 l 1
 202 320 225 318 237 318 c 0
 343 318 399 376 399 465 c 0
 399 550 343 603 240 603 c 2
 215 603 l 2
EndSplineSet
Layer: 2
SplineSet
190 284 m 1
 190 34 l 1
 267 34 l 1
 267 0 l 1
 36 0 l 1
 36 34 l 1
 110 34 l 1
 110 606 l 1
 33 606 l 1
 33 640 l 1
 247 640 l 2
 395 640 482 575 482 470 c 0
 482 390 430 334 356 303 c 1
 356 300 l 1
 435 182 l 2
 526 46 575 30 635 30 c 2
 645 30 l 1
 645 10 l 1
 628 -2 600 -10 575 -10 c 0
 502 -10 440 21 346 177 c 2
 282 283 l 1
 190 284 l 1
215 605 m 2
 200 605 190 594 190 578 c 2
 190 322 l 1
 202 320 225 318 237 318 c 0
 343 318 399 375 399 464 c 0
 399 551 343 605 240 605 c 2
 215 605 l 2
EndSplineSet
EndChar

StartChar: S
Encoding: 83 83 50
GlifName: S_
Width: 460
Flags: HMW
AnchorPoint: "CapTop" 236 710 basechar 0
LayerCount: 3
Back
SplineSet
221 21 m 0
 301 21 340 70 340 125 c 0
 340 193 298 233 196 305 c 0
 90 380 50 427 50 500 c 0
 50 580 129 656 240 656 c 0
 298 656 349 640 386 615 c 1
 396 475 l 1
 364 475 l 1
 359 514 l 2
 351 574 306 621 231 621 c 0
 169 621 124 582 124 535 c 0
 124 475 161 440 256 373 c 0
 379 286 424 240 424 160 c 0
 424 65 335 -16 211 -16 c 0
 156 -16 95 -3 53 25 c 1
 31 185 l 1
 63 185 l 1
 73 140 l 2
 91 60 141 21 221 21 c 0
EndSplineSet
Fore
SplineSet
221 22 m 0
 301 22 340 70 340 125 c 0
 340 193 298 233 196 305 c 0
 90 380 50 427 50 500 c 0
 50 580 129 657 240 657 c 0
 298 657 350 640 388 615 c 1
 398 475 l 1
 361 475 l 1
 356 514 l 2
 348 574 307 620 231 620 c 0
 169 620 124 582 124 535 c 0
 124 475 161 440 256 373 c 0
 379 286 424 240 424 160 c 0
 424 65 335 -17 211 -17 c 0
 156 -17 95 -3 53 25 c 1
 31 185 l 1
 68 185 l 1
 78 140 l 2
 96 60 142 22 221 22 c 0
EndSplineSet
EndChar

StartChar: T
Encoding: 84 84 51
GlifName: T_
Width: 608
Flags: HMW
LayerCount: 3
Back
SplineSet
29 675 m 1
 61 675 l 1
 66 640 l 1
 562 640 l 1
 572 675 l 1
 604 675 l 1
 594 475 l 1
 562 475 l 1
 562 518 l 2
 562 585 542 602 509 602 c 2
 344 602 l 1
 344 34 l 1
 426 34 l 1
 426 0 l 1
 182 0 l 1
 182 34 l 1
 264 34 l 1
 264 602 l 1
 114 602 l 2
 76 602 53 580 38 512 c 2
 31 480 l 1
 -1 480 l 1
 29 675 l 1
EndSplineSet
Fore
SplineSet
29 675 m 1
 66 675 l 1
 71 640 l 1
 557 640 l 1
 567 675 l 1
 604 675 l 1
 594 473 l 1
 557 473 l 1
 557 516 l 2
 557 583 537 600 504 600 c 2
 344 600 l 1
 344 40 l 1
 430 40 l 1
 430 0 l 1
 178 0 l 1
 178 40 l 1
 264 40 l 1
 264 600 l 1
 119 600 l 2
 81 600 58 578 43 510 c 2
 36 478 l 1
 -1 478 l 1
 29 675 l 1
EndSplineSet
EndChar

StartChar: U
Encoding: 85 85 52
GlifName: U_
Width: 730
Flags: HMW
AnchorPoint: "CapTop" 365 710 basechar 0
LayerCount: 3
Back
SplineSet
28 606 m 1
 28 640 l 1
 257 640 l 1
 257 606 l 1
 180 606 l 1
 180 240 l 2
 180 102 250 32 380 32 c 0
 510 32 585 110 585 245 c 2
 585 606 l 1
 507 606 l 1
 507 640 l 1
 702 640 l 1
 702 606 l 1
 630 606 l 1
 630 255 l 2
 630 85 535 -15 360 -15 c 0
 200 -15 100 80 100 235 c 2
 100 606 l 1
 28 606 l 1
EndSplineSet
Fore
SplineSet
23 600 m 1
 23 640 l 1
 262 640 l 1
 262 600 l 1
 180 600 l 1
 180 242 l 2
 180 104 250 33 380 33 c 0
 509 33 583 111 583 246 c 2
 583 600 l 1
 500 600 l 1
 500 640 l 1
 707 640 l 1
 707 600 l 1
 630 600 l 1
 630 255 l 2
 630 85 535 -15 360 -15 c 0
 200 -15 100 80 100 235 c 2
 100 600 l 1
 23 600 l 1
EndSplineSet
EndChar

StartChar: V
Encoding: 86 86 53
GlifName: V_
Width: 650
Flags: HMW
AnchorPoint: "CapTop" 365 710 basechar 0
LayerCount: 3
Back
SplineSet
140 606 m 1
 336 109 l 1
 339 109 l 1
 525 546 l 1
 539 606 l 1
 468 606 l 1
 468 640 l 1
 650 640 l 1
 650 606 l 1
 597 606 l 1
 326 -20 l 1
 304 -20 l 1
 51 606 l 1
 0 606 l 1
 0 640 l 1
 207 640 l 1
 207 606 l 1
 140 606 l 1
EndSplineSet
Fore
SplineSet
142 600 m 1
 336 109 l 1
 339 109 l 1
 522 540 l 1
 536 600 l 1
 463 600 l 1
 463 640 l 1
 652 640 l 1
 652 600 l 1
 594 600 l 1
 326 -20 l 1
 304 -20 l 1
 53 600 l 1
 -2 600 l 1
 -2 640 l 1
 212 640 l 1
 212 600 l 1
 142 600 l 1
EndSplineSet
EndChar

StartChar: W
Encoding: 87 87 54
GlifName: W_
Width: 974
Flags: HMW
LayerCount: 3
Back
SplineSet
515 608 m 1
 690 121 l 1
 693 121 l 1
 855 545 l 1
 869 608 l 1
 798 608 l 1
 798 640 l 1
 974 640 l 1
 974 608 l 1
 925 608 l 1
 681 -20 l 1
 659 -20 l 1
 493 431 l 1
 490 431 l 1
 301 -20 l 1
 279 -20 l 1
 50 608 l 1
 0 608 l 1
 0 640 l 1
 207 640 l 1
 207 608 l 1
 138 608 l 1
 313 119 l 1
 316 119 l 1
 470 493 l 1
 427 608 l 1
 366 608 l 1
 366 640 l 1
 586 640 l 1
 586 608 l 1
 515 608 l 1
EndSplineSet
Fore
SplineSet
517 602 m 1
 690 121 l 1
 693 121 l 1
 853 539 l 1
 867 602 l 1
 793 602 l 1
 793 640 l 1
 976 640 l 1
 976 602 l 1
 923 602 l 1
 681 -20 l 1
 659 -20 l 1
 493 431 l 1
 490 431 l 1
 301 -20 l 1
 279 -20 l 1
 52 602 l 1
 -2 602 l 1
 -2 640 l 1
 212 640 l 1
 212 602 l 1
 140 602 l 1
 313 119 l 1
 316 119 l 1
 470 493 l 1
 429 602 l 1
 364 602 l 1
 364 640 l 1
 591 640 l 1
 591 602 l 1
 517 602 l 1
EndSplineSet
Layer: 2
SplineSet
420 608 m 1
 489 446 l 1
 492 446 l 1
 541 561 l 1
 554 608 l 1
 420 608 l 1
660 640 m 1
 660 608 l 1
 609 608 l 1
 511 395 l 1
 634 104 l 1
 829 550 l 1
 845 608 l 1
 780 608 l 1
 780 640 l 1
 945 640 l 1
 945 608 l 1
 900 608 l 1
 626 -20 l 1
 604 -20 l 1
 467 302 l 1
 464 302 l 1
 316 -20 l 1
 294 -20 l 1
 35 608 l 1
 -5 608 l 1
 -5 640 l 1
 185 640 l 1
 185 608 l 1
 122 608 l 1
 326 104 l 1
 329 104 l 1
 443 357 l 1
 335 608 l 1
 285 608 l 1
 285 640 l 1
 660 640 l 1
EndSplineSet
EndChar

StartChar: X
Encoding: 88 88 55
GlifName: X_
Width: 683
Flags: HMW
LayerCount: 3
Back
SplineSet
380 348 m 1
 626 34 l 1
 682 34 l 1
 682 0 l 1
 456 0 l 1
 456 34 l 1
 521 34 l 1
 326 286 l 1
 325 286 l 1
 151 76 l 1
 129 34 l 1
 200 34 l 1
 200 0 l 1
 0 0 l 1
 0 34 l 1
 59 34 l 1
 298 320 l 1
 73 606 l 1
 17 606 l 1
 17 640 l 1
 243 640 l 1
 243 606 l 1
 176 606 l 1
 354 382 l 1
 355 382 l 1
 507 565 l 1
 528 606 l 1
 457 606 l 1
 457 640 l 1
 655 640 l 1
 655 606 l 1
 598 606 l 1
 380 348 l 1
EndSplineSet
Fore
SplineSet
380 348 m 1
 621 40 l 1
 684 40 l 1
 684 0 l 1
 451 0 l 1
 451 40 l 1
 516 40 l 1
 326 286 l 1
 325 286 l 1
 156 82 l 1
 134 40 l 1
 205 40 l 1
 205 0 l 1
 -2 0 l 1
 -2 40 l 1
 64 40 l 1
 298 320 l 1
 78 600 l 1
 15 600 l 1
 15 640 l 1
 248 640 l 1
 248 600 l 1
 181 600 l 1
 354 382 l 1
 355 382 l 1
 502 559 l 1
 523 600 l 1
 452 600 l 1
 452 640 l 1
 657 640 l 1
 657 600 l 1
 593 600 l 1
 380 348 l 1
EndSplineSet
EndChar

StartChar: Y
Encoding: 89 89 56
GlifName: Y_
Width: 598
Flags: HMW
AnchorPoint: "CapTop" 309 710 basechar 0
LayerCount: 3
Back
SplineSet
147 606 m 1
 315 331 l 1
 318 331 l 1
 465 557 l 1
 485 606 l 1
 416 606 l 1
 416 640 l 1
 598 640 l 1
 598 606 l 1
 547 606 l 1
 334 285 l 1
 334 34 l 1
 411 34 l 1
 411 0 l 1
 177 0 l 1
 177 34 l 1
 254 34 l 1
 254 276 l 1
 51 606 l 1
 0 606 l 1
 0 640 l 1
 207 640 l 1
 207 606 l 1
 147 606 l 1
EndSplineSet
Fore
SplineSet
151 600 m 1
 315 331 l 1
 318 331 l 1
 461 551 l 1
 481 600 l 1
 410 600 l 1
 410 640 l 1
 600 640 l 1
 600 600 l 1
 543 600 l 1
 334 285 l 1
 334 40 l 1
 416 40 l 1
 416 0 l 1
 172 0 l 1
 172 40 l 1
 254 40 l 1
 254 276 l 1
 55 600 l 1
 -2 600 l 1
 -2 640 l 1
 218 640 l 1
 218 600 l 1
 151 600 l 1
EndSplineSet
Layer: 2
SplineSet
312 329 m 0
 312 341 321 350 333 350 c 0
 345 350 354 341 354 329 c 0
 354 317 345 308 333 308 c 0
 321 308 312 317 312 329 c 0
312 330 m 0
 312 341 321 350 332 350 c 0
 343 350 352 341 352 330 c 0
 352 319 343 310 332 310 c 0
 321 310 312 319 312 330 c 0
EndSplineSet
EndChar

StartChar: Z
Encoding: 90 90 57
GlifName: Z_
Width: 640
Flags: HMW
AnchorPoint: "CapTop" 325 710 basechar 0
LayerCount: 3
Back
SplineSet
78 670 m 1
 110 670 l 1
 115 640 l 1
 575 640 l 1
 575 610 l 1
 145 40 l 1
 145 38 l 1
 466 38 l 2
 516 38 544 55 568 140 c 2
 578 175 l 1
 610 175 l 1
 575 0 l 1
 35 0 l 1
 35 30 l 1
 465 602 l 1
 465 604 l 1
 175 604 l 2
 130 604 109 585 91 515 c 2
 81 475 l 1
 50 475 l 1
 78 670 l 1
EndSplineSet
Fore
SplineSet
78 670 m 1
 115 670 l 1
 120 640 l 1
 575 640 l 1
 575 610 l 1
 147 42 l 1
 147 40 l 1
 461 40 l 2
 511 40 539 55 563 140 c 2
 573 175 l 1
 610 175 l 1
 575 0 l 1
 35 0 l 1
 35 30 l 1
 463 600 l 1
 463 602 l 1
 180 602 l 2
 135 602 114 585 96 515 c 2
 86 475 l 1
 50 475 l 1
 78 670 l 1
EndSplineSet
EndChar

StartChar: bracketleft
Encoding: 91 91 58
GlifName: bracketleft
Width: 290
Flags: HMW
LayerCount: 3
Back
SplineSet
125 625 m 1
 125 -165 l 1
 265 -165 l 1
 265 -200 l 1
 65 -200 l 1
 65 660 l 1
 265 660 l 1
 265 625 l 1
 125 625 l 1
EndSplineSet
Fore
SplineSet
125 638 m 1
 125 -158 l 1
 265 -158 l 1
 265 -195 l 1
 65 -195 l 1
 65 675 l 1
 265 675 l 1
 265 638 l 1
 125 638 l 1
EndSplineSet
Layer: 2
SplineSet
98 240 m 0
 98 65 160 -85 265 -188 c 1
 245 -205 l 1
 117 -105 32 55 32 240 c 0
 32 425 117 585 245 685 c 1
 265 668 l 1
 160 565 98 415 98 240 c 0
EndSplineSet
EndChar

StartChar: bracketright
Encoding: 93 93 59
GlifName: bracketright
Width: 290
Flags: HMW
LayerCount: 3
Back
SplineSet
165 625 m 1
 25 625 l 1
 25 660 l 1
 225 660 l 1
 225 -200 l 1
 25 -200 l 1
 25 -165 l 1
 165 -165 l 1
 165 625 l 1
EndSplineSet
Fore
SplineSet
165 638 m 1
 25 638 l 1
 25 675 l 1
 225 675 l 1
 225 -195 l 1
 25 -195 l 1
 25 -158 l 1
 165 -158 l 1
 165 638 l 1
EndSplineSet
EndChar

StartChar: b
Encoding: 98 98 60
GlifName: b
Width: 492
Flags: HMW
LayerCount: 3
Fore
SplineSet
150 73 m 1
 172 45 210 28 250 28 c 0
 325 28 384 82 384 185 c 0
 384 295 316 357 247 357 c 0
 210 357 173 343 150 326 c 1
 150 73 l 1
80 25 m 1
 80 621 l 1
 20 663 l 1
 20 673 l 1
 140 712 l 1
 150 712 l 1
 150 390 l 1
 148 353 l 1
 150 352 l 1
 180 382 227 412 280 412 c 0
 365 412 455 339 455 220 c 0
 455 85 350 -12 230 -12 c 0
 188 -12 125 0 80 25 c 1
EndSplineSet
Layer: 2
SplineSet
150 73 m 1
 172 45 210 28 250 28 c 0
 325 28 384 82 384 185 c 0
 384 295 316 357 247 357 c 0
 210 357 173 343 150 326 c 1
 150 73 l 1
80 25 m 1
 80 624 l 1
 25 664 l 1
 25 672 l 1
 140 712 l 1
 150 712 l 1
 150 390 l 1
 148 353 l 1
 150 352 l 1
 180 382 227 412 280 412 c 0
 365 412 455 339 455 220 c 0
 455 85 350 -12 230 -12 c 0
 188 -12 125 0 80 25 c 1
EndSplineSet
EndChar

StartChar: c
Encoding: 99 99 61
GlifName: c
Width: 395
Flags: HMW
AnchorPoint: "Bottom" 221 10 basechar 0
LayerCount: 3
Back
SplineSet
322 318 m 1
 297 345 262 368 222 368 c 0
 157 368 106 317 106 215 c 0
 106 108 169 50 247 50 c 0
 292 50 331 67 358 103 c 1
 374 89 l 1
 342 28 285 -12 212 -12 c 0
 112 -12 32 67 32 185 c 0
 32 310 137 412 247 412 c 0
 290 412 339 398 369 375 c 1
 324 318 l 1
 322 318 l 1
EndSplineSet
Fore
SplineSet
331 314 m 1
 303 344 266 365 224 365 c 0
 162 365 109 315 109 215 c 0
 109 109 173 50 250 50 c 0
 295 50 333 66 361 102 c 1
 377 86 l 1
 344 27 288 -12 215 -12 c 0
 116 -12 36 67 36 185 c 0
 36 310 141 412 251 412 c 0
 296 412 343 398 378 372 c 1
 333 314 l 1
 331 314 l 1
EndSplineSet
Layer: 2
SplineSet
325 314 m 1
 297 344 259 368 219 368 c 0
 157 368 104 317 104 214 c 0
 104 108 167 50 244 50 c 0
 289 50 327 66 355 102 c 1
 371 88 l 1
 338 27 282 -12 209 -12 c 0
 110 -12 30 67 30 185 c 0
 30 310 135 412 245 412 c 0
 290 412 337 398 372 372 c 1
 327 314 l 1
 325 314 l 1
-65 315 m 1
 -93 344 -130 367 -170 367 c 0
 -233 367 -284 317 -284 215 c 0
 -284 108 -221 50 -143 50 c 0
 -98 50 -59 67 -32 103 c 1
 -16 89 l 1
 -48 28 -105 -12 -178 -12 c 0
 -278 -12 -358 67 -358 185 c 0
 -358 310 -253 412 -143 412 c 0
 -100 412 -51 398 -19 373 c 1
 -63 315 l 1
 -65 315 l 1
-515 314 m 1
 -542 343 -579 367 -619 368 c 0
 -682 369 -734 320 -736 218 c 0
 -738 111 -676 51 -598 50 c 0
 -553 49 -514 65 -486 101 c 1
 -470 87 l 1
 -503 27 -561 -12 -634 -11 c 0
 -734 -9 -812 71 -810 189 c 0
 -808 314 -701 414 -591 412 c 0
 -548 411 -500 397 -468 371 c 1
 -513 314 l 1
 -515 314 l 1
EndSplineSet
EndChar

StartChar: d
Encoding: 100 100 62
GlifName: d
Width: 497
Flags: HMW
LayerCount: 3
Back
SplineSet
342 325 m 1
 320 352 282 370 239 370 c 0
 167 370 108 315 108 215 c 0
 108 105 171 46 244 46 c 0
 282 46 317 58 342 80 c 1
 342 325 l 1
282 664 m 1
 282 672 l 1
 402 710 l 1
 412 710 l 1
 412 50 l 1
 482 60 l 1
 482 30 l 1
 357 -10 l 1
 342 -10 l 1
 347 55 l 1
 342 55 l 1
 310 17 261 -12 209 -12 c 0
 117 -12 37 68 37 180 c 0
 37 312 145 409 255 409 c 0
 287 409 317 402 342 393 c 1
 344 395 l 1
 342 435 l 1
 342 627 l 1
 282 664 l 1
EndSplineSet
Fore
SplineSet
342 325 m 1
 320 352 282 370 239 370 c 0
 167 370 108 315 108 215 c 0
 108 105 171 46 244 46 c 0
 282 46 317 58 342 80 c 1
 342 325 l 1
276 663 m 1
 276 673 l 1
 402 712 l 1
 412 712 l 1
 412 52 l 1
 482 61 l 1
 482 28 l 1
 357 -10 l 1
 342 -10 l 1
 347 55 l 1
 342 55 l 1
 310 17 261 -12 209 -12 c 0
 117 -12 37 68 37 180 c 0
 37 312 145 409 255 409 c 0
 287 409 317 402 342 393 c 1
 344 394 l 1
 342 435 l 1
 342 622 l 1
 276 663 l 1
EndSplineSet
Layer: 2
SplineSet
340 325 m 1
 318 352 280 370 237 370 c 0
 165 370 106 315 106 215 c 0
 106 105 169 46 242 46 c 0
 280 46 315 58 340 80 c 1
 340 325 l 1
276 664 m 1
 276 672 l 1
 400 712 l 1
 410 712 l 1
 410 52 l 1
 480 61 l 1
 480 30 l 1
 355 -10 l 1
 340 -10 l 1
 345 55 l 1
 340 55 l 1
 308 17 259 -12 207 -12 c 0
 115 -12 35 68 35 180 c 0
 35 312 143 409 253 409 c 0
 285 409 315 402 340 393 c 1
 342 394 l 1
 340 435 l 1
 340 626 l 1
 276 664 l 1
EndSplineSet
EndChar

StartChar: e
Encoding: 101 101 63
GlifName: e
Width: 412
Flags: HMW
AnchorPoint: "Top" 220 500 basechar 0
LayerCount: 3
Back
SplineSet
219 11 m 1
 220 10 l 1
 219 9 l 1
 218 10 l 1
 219 11 l 1
214 501 m 1
 215 500 l 1
 214 499 l 1
 213 500 l 1
 214 501 l 1
109 280 m 1
 297 280 l 1
 297 340 265 376 217 376 c 0
 167 376 126 343 109 280 c 1
103 250 m 1
 102 240 101 227 101 215 c 0
 101 115 166 52 247 52 c 0
 294 52 332 70 356 96 c 1
 371 83 l 1
 342 33 287 -12 217 -12 c 0
 117 -12 32 67 32 195 c 0
 32 310 118 412 229 412 c 0
 312 412 372 353 372 265 c 2
 372 250 l 1
 103 250 l 1
EndSplineSet
Fore
SplineSet
115 280 m 1
 303 280 l 1
 303 340 271 376 223 376 c 0
 173 376 132 343 115 280 c 1
109 250 m 1
 108 240 107 227 107 215 c 0
 107 115 172 52 253 52 c 0
 300 52 338 70 362 96 c 1
 377 80 l 1
 348 32 293 -12 223 -12 c 0
 123 -12 38 67 38 195 c 0
 38 310 124 412 235 412 c 0
 318 412 378 353 378 265 c 2
 378 250 l 1
 109 250 l 1
EndSplineSet
EndChar

StartChar: f
Encoding: 102 102 64
GlifName: f
Width: 282
Flags: HMW
LayerCount: 3
Fore
SplineSet
343 622 m 1
 321 636 291 645 268 645 c 0
 210 645 165 605 165 480 c 2
 165 400 l 1
 282 400 l 1
 277 355 l 1
 165 355 l 1
 165 38 l 1
 255 38 l 1
 255 0 l 1
 31 0 l 1
 31 38 l 1
 95 38 l 1
 95 355 l 1
 35 355 l 1
 35 378 l 1
 95 405 l 1
 95 440 l 2
 95 600 220 703 305 703 c 0
 330 703 356 695 375 681 c 1
 345 622 l 1
 343 622 l 1
EndSplineSet
Layer: 2
SplineSet
343 617 m 1
 321 631 291 640 268 640 c 0
 210 640 165 600 165 475 c 2
 165 400 l 1
 280 400 l 1
 275 357 l 1
 165 357 l 1
 165 34 l 1
 250 34 l 1
 250 0 l 1
 34 0 l 1
 34 34 l 1
 95 34 l 1
 95 357 l 1
 37 357 l 1
 37 378 l 1
 95 404 l 1
 95 435 l 2
 95 595 220 698 305 698 c 0
 330 698 356 690 375 676 c 1
 345 617 l 1
 343 617 l 1
EndSplineSet
Substitution2: "'ss01' Style Set 1 in Latin lookup 0-1" f.alt
EndChar

StartChar: l
Encoding: 108 108 65
GlifName: l
Width: 243
Flags: HMW
LayerCount: 3
Fore
SplineSet
29 663 m 1
 29 673 l 1
 148 712 l 1
 158 712 l 1
 158 38 l 1
 235 38 l 1
 235 0 l 1
 15 0 l 1
 15 38 l 1
 88 38 l 1
 88 621 l 1
 29 663 l 1
EndSplineSet
Layer: 2
SplineSet
34 664 m 1
 34 672 l 1
 148 712 l 1
 158 712 l 1
 158 34 l 1
 233 34 l 1
 233 0 l 1
 18 0 l 1
 18 34 l 1
 88 34 l 1
 88 624 l 1
 34 664 l 1
EndSplineSet
EndChar

StartChar: m
Encoding: 109 109 66
GlifName: m
Width: 775
Flags: HMW
LayerCount: 3
Back
SplineSet
37 357 m 1
 37 365 l 1
 137 415 l 1
 147 415 l 1
 156 339 l 1
 157 338 l 1
 192 380 247 412 300 412 c 0
 352 412 397 385 409 330 c 1
 412 330 l 1
 447 375 502 412 559 412 c 0
 624 412 677 370 677 290 c 2
 677 31 l 1
 742 31 l 1
 742 0 l 1
 557 0 l 1
 557 31 l 1
 607 31 l 1
 607 270 l 2
 607 325 574 360 522 360 c 0
 482 360 444 335 415 300 c 0
 416 297 417 288 417 282 c 2
 417 31 l 1
 482 31 l 1
 482 0 l 1
 297 0 l 1
 297 31 l 1
 347 31 l 1
 347 270 l 2
 347 325 316 360 264 360 c 0
 228 360 187 340 157 305 c 1
 157 31 l 1
 212 31 l 1
 212 0 l 1
 27 0 l 1
 27 31 l 1
 87 31 l 1
 87 320 l 1
 37 357 l 1
EndSplineSet
Fore
SplineSet
42 354 m 1
 42 364 l 1
 146 415 l 1
 156 415 l 1
 165 339 l 1
 166 338 l 1
 203 380 258 412 311 412 c 0
 363 412 408 385 420 330 c 1
 423 330 l 1
 460 375 515 412 572 412 c 0
 637 412 690 370 690 290 c 2
 690 38 l 1
 758 38 l 1
 758 0 l 1
 567 0 l 1
 567 38 l 1
 620 38 l 1
 620 270 l 2
 620 325 587 360 535 360 c 0
 495 360 457 335 426 300 c 0
 424 298 428 288 428 282 c 2
 428 38 l 1
 496 38 l 1
 496 0 l 1
 305 0 l 1
 305 38 l 1
 358 38 l 1
 358 270 l 2
 358 325 327 360 275 360 c 0
 239 360 198 340 166 305 c 1
 166 38 l 1
 224 38 l 1
 224 0 l 1
 33 0 l 1
 33 38 l 1
 96 38 l 1
 96 316 l 1
 42 354 l 1
EndSplineSet
EndChar

StartChar: p
Encoding: 112 112 67
GlifName: p
Width: 498
Flags: HMW
LayerCount: 3
Back
SplineSet
154 350 m 1
 155 348 l 1
 186 382 232 412 283 412 c 0
 380 412 461 334 461 212 c 0
 461 83 352 -10 245 -10 c 0
 212 -10 177 -3 156 5 c 1
 154 3 l 1
 155 -40 l 1
 155 -239 l 1
 235 -239 l 1
 235 -270 l 1
 20 -270 l 1
 20 -239 l 1
 85 -239 l 1
 85 324 l 1
 35 373 l 1
 35 381 l 1
 140 416 l 1
 150 416 l 1
 154 350 l 1
155 71 m 1
 179 46 213 30 260 30 c 0
 332 30 390 83 390 183 c 0
 390 290 325 357 250 357 c 0
 216 357 181 344 155 322 c 1
 155 71 l 1
EndSplineSet
Fore
SplineSet
156 350 m 1
 157 348 l 1
 188 382 234 412 285 412 c 0
 382 412 463 334 463 212 c 0
 463 83 354 -10 247 -10 c 0
 214 -10 179 -3 158 5 c 1
 156 4 l 1
 157 -40 l 1
 157 -238 l 1
 245 -238 l 1
 245 -276 l 1
 15 -276 l 1
 15 -238 l 1
 87 -238 l 1
 87 319 l 1
 33 368 l 1
 33 378 l 1
 142 416 l 1
 152 416 l 1
 156 350 l 1
157 71 m 1
 181 46 215 30 262 30 c 0
 334 30 392 83 392 183 c 0
 392 290 327 358 252 358 c 0
 218 358 183 344 157 322 c 1
 157 71 l 1
EndSplineSet
EndChar

StartChar: q
Encoding: 113 113 68
GlifName: q
Width: 492
Flags: HMW
LayerCount: 3
Back
SplineSet
346 313 m 1
 326 346 286 370 243 370 c 0
 174 370 111 315 111 215 c 0
 111 100 184 43 256 43 c 0
 289 43 321 54 346 75 c 1
 346 313 l 1
366 390 m 1
 368 390 l 1
 396 419 l 1
 416 419 l 1
 416 -239 l 1
 486 -239 l 1
 486 -270 l 1
 261 -270 l 1
 261 -239 l 1
 346 -239 l 1
 346 10 l 1
 348 49 l 1
 346 50 l 1
 311 12 266 -12 218 -12 c 0
 126 -12 40 66 40 180 c 0
 40 307 148 412 265 412 c 0
 298 412 335 403 366 390 c 1
EndSplineSet
Fore
SplineSet
343 313 m 1
 323 346 283 370 240 370 c 0
 171 370 108 315 108 215 c 0
 108 100 181 43 253 43 c 0
 286 43 318 54 343 75 c 1
 343 313 l 1
363 390 m 1
 365 390 l 1
 393 419 l 1
 413 419 l 1
 413 -238 l 1
 490 -238 l 1
 490 -276 l 1
 252 -276 l 1
 252 -238 l 1
 343 -238 l 1
 343 10 l 1
 345 49 l 1
 343 50 l 1
 308 12 263 -12 215 -12 c 0
 123 -12 37 66 37 180 c 0
 37 307 145 412 262 412 c 0
 295 412 332 403 363 390 c 1
EndSplineSet
EndChar

StartChar: r
Encoding: 114 114 69
GlifName: r
Width: 335
Flags: HMW
LayerCount: 3
Back
SplineSet
291 330 m 2
 282 333 269 335 257 335 c 0
 222 335 187 320 157 280 c 1
 157 31 l 1
 244 31 l 1
 244 0 l 1
 22 0 l 1
 22 31 l 1
 87 31 l 1
 87 323 l 1
 34 362 l 1
 34 370 l 1
 142 415 l 1
 152 415 l 1
 152 318 l 1
 157 315 l 1
 197 370 237 413 282 413 c 0
 297 413 312 410 322 404 c 1
 292 330 l 1
 291 330 l 2
EndSplineSet
Fore
SplineSet
300 330 m 2
 291 333 278 335 266 335 c 0
 231 335 196 320 166 280 c 1
 166 38 l 1
 250 38 l 1
 250 0 l 1
 26 0 l 1
 26 38 l 1
 96 38 l 1
 96 318 l 1
 39 359 l 1
 39 369 l 1
 151 415 l 1
 161 415 l 1
 161 318 l 1
 166 315 l 1
 206 370 247 414 293 414 c 0
 307 414 320 411 331 405 c 1
 301 330 l 1
 300 330 l 2
EndSplineSet
EndChar

StartChar: s
Encoding: 115 115 70
GlifName: s
Width: 325
Flags: HMW
AnchorPoint: "Top" 165 500 basechar 0
LayerCount: 3
Back
SplineSet
170 501 m 1
 171 500 l 1
 170 499 l 1
 169 500 l 1
 170 501 l 1
161 20 m 0
 203 20 228 45 228 80 c 0
 228 110 203 138 136 182 c 0
 71 225 51 262 51 307 c 0
 51 367 106 413 176 413 c 0
 214 413 251 400 271 385 c 1
 280 290 l 1
 251 290 l 1
 247 314 l 2
 240 355 211 381 168 381 c 0
 136 381 111 362 111 332 c 0
 111 300 132 277 192 237 c 0
 263 189 293 157 293 108 c 0
 293 36 231 -13 151 -13 c 0
 116 -13 78 -3 53 14 c 1
 39 125 l 1
 68 125 l 1
 74 95 l 2
 83 48 113 20 161 20 c 0
EndSplineSet
Fore
SplineSet
156 21 m 0
 198 21 223 45 223 80 c 0
 223 110 198 138 131 182 c 0
 66 225 46 262 46 307 c 0
 46 366 101 414 171 414 c 0
 209 414 247 400 267 385 c 1
 276 290 l 1
 242 290 l 1
 238 314 l 2
 231 353 206 380 163 380 c 0
 131 380 106 361 106 332 c 0
 106 300 127 277 187 237 c 0
 258 189 288 157 288 108 c 0
 288 36 226 -14 146 -14 c 0
 111 -14 72 -3 47 14 c 1
 33 125 l 1
 67 125 l 1
 73 95 l 2
 82 50 108 21 156 21 c 0
EndSplineSet
Layer: 2
SplineSet
156 21 m 0
 198 21 223 45 223 80 c 0
 223 110 198 138 131 182 c 0
 66 225 46 262 46 307 c 0
 46 366 101 413 171 413 c 0
 209 413 247 400 267 385 c 1
 276 290 l 1
 245 290 l 1
 241 314 l 2
 234 353 206 380 163 380 c 0
 131 380 106 361 106 332 c 0
 106 300 127 277 187 237 c 0
 258 189 288 157 288 108 c 0
 288 36 226 -13 146 -13 c 0
 111 -13 72 -3 47 14 c 1
 33 125 l 1
 64 125 l 1
 70 95 l 2
 79 50 108 21 156 21 c 0
EndSplineSet
EndChar

StartChar: u
Encoding: 117 117 71
GlifName: u
Width: 507
Flags: HMW
AnchorPoint: "Top" 249 500 basechar 0
LayerCount: 3
Back
SplineSet
243 501 m 1
 244 500 l 1
 243 499 l 1
 242 500 l 1
 243 501 l 1
411 415 m 1
 411 48 l 1
 479 57 l 1
 479 27 l 1
 356 -10 l 1
 341 -10 l 1
 346 64 l 1
 341 65 l 1
 304 20 246 -12 191 -12 c 0
 126 -12 81 25 81 110 c 2
 81 331 l 1
 31 371 l 1
 31 379 l 1
 141 414 l 1
 151 414 l 1
 151 130 l 2
 151 70 181 40 231 40 c 0
 268 40 311 62 341 100 c 1
 341 331 l 1
 271 367 l 1
 271 375 l 1
 401 415 l 1
 411 415 l 1
EndSplineSet
Fore
SplineSet
417 415 m 1
 417 50 l 1
 487 59 l 1
 487 26 l 1
 362 -10 l 1
 347 -10 l 1
 352 64 l 1
 347 65 l 1
 308 20 250 -12 195 -12 c 0
 130 -12 85 25 85 110 c 2
 85 326 l 1
 32 368 l 1
 32 378 l 1
 145 414 l 1
 155 414 l 1
 155 130 l 2
 155 70 185 40 235 40 c 0
 272 40 315 62 347 100 c 1
 347 326 l 1
 275 364 l 1
 275 374 l 1
 407 415 l 1
 417 415 l 1
EndSplineSet
EndChar

StartChar: v
Encoding: 118 118 72
GlifName: v
Width: 425
Flags: HMW
LayerCount: 3
Back
SplineSet
123 366 m 1
 229 95 l 1
 231 95 l 1
 329 325 l 1
 338 366 l 1
 282 366 l 1
 282 400 l 1
 435 400 l 1
 435 366 l 1
 389 366 l 1
 220 -16 l 1
 200 -16 l 1
 46 366 l 1
 0 366 l 1
 0 400 l 1
 175 400 l 1
 175 366 l 1
 123 366 l 1
EndSplineSet
Fore
SplineSet
125 362 m 1
 229 95 l 1
 231 95 l 1
 327 321 l 1
 336 362 l 1
 277 362 l 1
 277 400 l 1
 437 400 l 1
 437 362 l 1
 387 362 l 1
 220 -16 l 1
 200 -16 l 1
 48 362 l 1
 -2 362 l 1
 -2 400 l 1
 180 400 l 1
 180 362 l 1
 125 362 l 1
EndSplineSet
EndChar

StartChar: w
Encoding: 119 119 73
GlifName: w
Width: 640
Flags: HMW
LayerCount: 3
Back
SplineSet
275 366 m 1
 126 366 l 1
 229 93 l 1
 229 88 l 1
 313 269 l 1
 275 366 l 1
4 400 m 1
 398 400 l 1
 398 366 l 1
 351 366 l 1
 451 99 l 1
 451 94 l 1
 543 326 l 1
 552 366 l 1
 500 366 l 1
 500 400 l 1
 645 400 l 1
 645 366 l 1
 602 366 l 1
 443 -16 l 1
 423 -16 l 1
 332 223 l 1
 330 223 l 1
 218 -16 l 1
 198 -16 l 1
 49 366 l 1
 4 366 l 1
 4 400 l 1
EndSplineSet
Fore
SplineSet
277 362 m 1
 128 362 l 1
 229 93 l 1
 229 88 l 1
 313 269 l 1
 277 362 l 1
2 400 m 1
 403 400 l 1
 403 362 l 1
 353 362 l 1
 451 99 l 1
 451 94 l 1
 541 322 l 1
 550 362 l 1
 498 362 l 1
 498 400 l 1
 647 400 l 1
 647 362 l 1
 600 362 l 1
 443 -16 l 1
 423 -16 l 1
 332 223 l 1
 330 223 l 1
 218 -16 l 1
 198 -16 l 1
 51 362 l 1
 2 362 l 1
 2 400 l 1
EndSplineSet
Substitution2: "'ss01' Style Set 1 in Latin lookup 0-1" w.alt
EndChar

StartChar: x
Encoding: 120 120 74
GlifName: x
Width: 442
Flags: HMW
LayerCount: 3
Back
SplineSet
185 196 m 1
 58 366 l 1
 16 366 l 1
 16 400 l 1
 184 400 l 1
 184 366 l 1
 145 366 l 1
 234 247 l 1
 236 247 l 1
 315 341 l 1
 325 366 l 1
 282 366 l 1
 282 400 l 1
 429 400 l 1
 429 366 l 1
 384 366 l 1
 257 217 l 1
 395 34 l 1
 441 34 l 1
 441 0 l 1
 266 0 l 1
 266 34 l 1
 307 34 l 1
 209 165 l 1
 207 165 l 1
 119 61 l 1
 109 34 l 1
 157 34 l 1
 157 0 l 1
 6 0 l 1
 6 34 l 1
 49 34 l 1
 185 196 l 1
EndSplineSet
Fore
SplineSet
185 196 m 1
 61 362 l 1
 16 362 l 1
 16 400 l 1
 188 400 l 1
 188 362 l 1
 148 362 l 1
 234 247 l 1
 236 247 l 1
 312 337 l 1
 322 362 l 1
 278 362 l 1
 278 400 l 1
 429 400 l 1
 429 362 l 1
 381 362 l 1
 257 217 l 1
 392 38 l 1
 441 38 l 1
 441 0 l 1
 262 0 l 1
 262 38 l 1
 304 38 l 1
 209 165 l 1
 207 165 l 1
 122 65 l 1
 112 38 l 1
 161 38 l 1
 161 0 l 1
 6 0 l 1
 6 38 l 1
 52 38 l 1
 185 196 l 1
EndSplineSet
EndChar

StartChar: y
Encoding: 121 121 75
GlifName: y
Width: 438
Flags: HMW
AnchorPoint: "Top" 227 500 basechar 0
LayerCount: 3
Back
SplineSet
154 -178 m 2
 124 -246 89 -278 54 -278 c 1
 30 -212 l 1
 30 -209 l 1
 87 -202 117 -179 137 -131 c 2
 196 8 l 1
 52 366 l 1
 4 366 l 1
 4 400 l 1
 182 400 l 1
 182 366 l 1
 128 366 l 1
 235 98 l 1
 237 98 l 1
 333 325 l 1
 342 366 l 1
 286 366 l 1
 286 400 l 1
 441 400 l 1
 441 366 l 1
 393 366 l 1
 154 -178 l 2
EndSplineSet
Fore
SplineSet
154 -178 m 2
 124 -246 89 -278 54 -278 c 1
 30 -212 l 1
 30 -209 l 1
 87 -202 117 -179 137 -131 c 2
 196 8 l 1
 54 362 l 1
 2 362 l 1
 2 400 l 1
 187 400 l 1
 187 362 l 1
 130 362 l 1
 235 98 l 1
 237 98 l 1
 331 321 l 1
 340 362 l 1
 281 362 l 1
 281 400 l 1
 443 400 l 1
 443 362 l 1
 391 362 l 1
 154 -178 l 2
EndSplineSet
Layer: 2
SplineSet
150 -178 m 2
 120 -246 85 -278 50 -278 c 1
 27 -214 l 1
 27 -211 l 1
 82 -205 112 -181 132 -133 c 2
 192 8 l 1
 48 366 l 1
 0 366 l 1
 0 400 l 1
 178 400 l 1
 178 366 l 1
 124 366 l 1
 231 98 l 1
 233 98 l 1
 329 325 l 1
 338 366 l 1
 282 366 l 1
 282 400 l 1
 437 400 l 1
 437 366 l 1
 389 366 l 1
 150 -178 l 2
EndSplineSet
EndChar

StartChar: z
Encoding: 122 122 76
GlifName: z
Width: 412
Flags: HMW
AnchorPoint: "Top" 216 500 basechar 0
LayerCount: 3
Back
SplineSet
58 426 m 1
 85 426 l 1
 85 400 l 1
 364 400 l 1
 364 370 l 1
 120 34 l 1
 275 34 l 2
 315 34 334 50 350 119 c 2
 355 140 l 1
 382 140 l 1
 355 0 l 1
 30 0 l 1
 30 30 l 1
 275 367 l 1
 130 367 l 2
 92 367 80 360 69 305 c 2
 65 285 l 1
 38 285 l 1
 58 426 l 1
EndSplineSet
Fore
SplineSet
62 426 m 1
 94 426 l 1
 94 400 l 1
 369 400 l 1
 369 370 l 1
 125 34 l 1
 276 34 l 2
 316 34 335 50 351 119 c 2
 356 140 l 1
 388 140 l 1
 361 0 l 1
 35 0 l 1
 35 30 l 1
 280 367 l 1
 139 367 l 2
 101 367 89 360 78 305 c 2
 74 285 l 1
 42 285 l 1
 62 426 l 1
EndSplineSet
EndChar

StartChar: germandbls
Encoding: 223 223 77
GlifName: germandbls
Width: 508
Flags: HMW
LayerCount: 3
Fore
SplineSet
383 555 m 0
 383 605 343 650 288 650 c 0
 218 650 168 604 168 480 c 2
 168 38 l 1
 214 38 l 1
 214 0 l 1
 34 0 l 1
 34 38 l 1
 98 38 l 1
 98 355 l 1
 38 355 l 1
 38 378 l 1
 98 405 l 1
 98 435 l 2
 98 595 213 695 308 695 c 0
 378 695 443 640 443 570 c 0
 443 515 417 480 367 435 c 0
 332 404 313 385 313 355 c 0
 313 322 342 300 398 255 c 0
 470 198 495 165 495 115 c 0
 495 43 433 -13 353 -13 c 0
 318 -13 279 -3 254 14 c 1
 244 105 l 1
 278 105 l 1
 280 93 l 2
 288 45 315 20 363 20 c 0
 405 20 430 48 430 85 c 0
 430 120 410 145 338 200 c 0
 276 247 248 280 248 325 c 0
 248 370 279 393 338 451 c 0
 373 486 383 515 383 555 c 0
EndSplineSet
EndChar

StartChar: ae
Encoding: 230 230 78
GlifName: ae
Width: 605
Flags: HMW
LayerCount: 3
Back
SplineSet
321 239 m 1
 497 282 l 1
 497 340 465 376 420 376 c 0
 360 376 325 322 321 239 c 1
256 110 m 1
 253 122 250 142 250 160 c 2
 250 192 l 1
 208 181 l 2
 125 159 104 129 104 94 c 0
 104 61 128 42 155 42 c 0
 190 42 229 68 256 110 c 1
269 88 m 1
 222 21 174 -11 120 -11 c 0
 75 -11 34 24 34 76 c 0
 34 126 64 170 189 205 c 2
 250 222 l 1
 250 288 l 2
 250 343 215 371 170 371 c 0
 160 371 140 368 130 363 c 1
 125 315 l 1
 49 293 l 1
 49 295 l 2
 49 345 120 413 200 413 c 0
 247 413 288 390 307 350 c 1
 310 350 l 1
 332 385 385 412 432 412 c 0
 516 412 573 358 573 277 c 2
 573 270 l 1
 320 209 l 1
 323 110 372 52 450 52 c 0
 500 52 534 70 557 100 c 1
 573 85 l 1
 543 30 490 -12 415 -12 c 0
 353 -12 300 27 272 88 c 1
 269 88 l 1
EndSplineSet
Fore
SplineSet
321 239 m 1
 497 282 l 1
 497 340 465 376 420 376 c 0
 360 376 325 322 321 239 c 1
256 110 m 1
 253 122 250 142 250 160 c 2
 250 192 l 1
 208 181 l 2
 125 159 104 129 104 94 c 0
 104 61 128 42 155 42 c 0
 190 42 229 68 256 110 c 1
270 87 m 1
 222 20 174 -11 120 -11 c 0
 75 -11 34 24 34 76 c 0
 34 126 64 171 189 206 c 2
 250 223 l 1
 250 288 l 2
 250 343 215 371 170 371 c 0
 160 371 140 368 130 363 c 1
 125 315 l 1
 49 293 l 1
 49 295 l 2
 49 345 120 413 200 413 c 0
 247 413 288 390 307 350 c 1
 310 350 l 1
 332 385 385 412 432 412 c 0
 516 412 573 357 573 276 c 2
 573 269 l 1
 320 208 l 1
 323 110 372 52 450 52 c 0
 500 52 534 70 557 100 c 1
 573 85 l 1
 543 30 490 -12 415 -12 c 0
 353 -12 301 26 273 87 c 1
 270 87 l 1
EndSplineSet
EndChar

StartChar: eth
Encoding: 240 240 79
GlifName: eth
Width: 481
Flags: HMW
LayerCount: 3
Back
SplineSet
32 192 m 0
 32 311 121 404 241 404 c 0
 271 404 311 395 335 380 c 1
 337 382 l 1
 319 446 286 508 248 556 c 1
 139 502 l 1
 124 534 l 1
 225 583 l 1
 225 584 l 1
 184 628 137 663 84 690 c 1
 99 710 l 1
 164 686 223 650 273 606 c 1
 379 658 l 1
 394 627 l 1
 300 581 l 1
 300 580 l 1
 386 492 439 373 439 245 c 0
 439 84 347 -12 229 -12 c 0
 110 -12 32 73 32 192 c 0
362 212 m 0
 362 247 359 285 352 312 c 1
 329 343 286 364 238 364 c 0
 166 364 112 297 112 205 c 0
 112 94 165 25 243 25 c 0
 315 25 362 100 362 212 c 0
EndSplineSet
Fore
SplineSet
32 192 m 0
 32 311 121 404 241 404 c 0
 271 404 311 395 335 380 c 1
 337 382 l 1
 319 446 286 508 249 555 c 1
 140 501 l 1
 123 535 l 1
 224 584 l 1
 224 585 l 1
 183 629 137 663 84 690 c 1
 99 711 l 1
 164 686 223 650 272 607 c 1
 378 659 l 1
 395 626 l 1
 301 580 l 1
 301 579 l 1
 387 491 439 373 439 245 c 0
 439 84 347 -12 229 -12 c 0
 110 -12 32 73 32 192 c 0
362 212 m 0
 362 247 359 285 352 312 c 1
 329 343 286 364 238 364 c 0
 166 364 112 297 112 205 c 0
 112 94 165 26 243 26 c 0
 315 26 362 100 362 212 c 0
EndSplineSet
Layer: 2
SplineSet
32 195 m 0
 32 315 119 409 239 409 c 0
 269 409 309 400 332 386 c 1
 334 388 l 1
 315 452 285 508 247 556 c 1
 138 502 l 1
 123 534 l 1
 224 583 l 1
 224 584 l 1
 183 628 136 663 83 690 c 1
 98 710 l 1
 163 686 222 650 272 606 c 1
 378 658 l 1
 393 627 l 1
 299 581 l 1
 299 580 l 1
 385 492 438 373 438 235 c 0
 438 82 346 -12 228 -12 c 0
 109 -12 32 75 32 195 c 0
361 210 m 0
 361 245 357 294 349 323 c 1
 323 353 277 369 236 369 c 0
 164 369 110 301 110 208 c 0
 110 95 162 25 240 25 c 0
 313 25 361 100 361 210 c 0
EndSplineSet
EndChar

StartChar: oslash
Encoding: 248 248 80
GlifName: oslash
Width: 490
Flags: HMW
LayerCount: 3
Back
SplineSet
30 200 m 0
 30 321 123 414 244 414 c 0
 365 414 458 321 458 200 c 0
 458 79 365 -14 244 -14 c 0
 123 -14 30 79 30 200 c 0
112 210 m 0
 112 110 172 21 252 21 c 0
 326 21 376 92 376 190 c 0
 376 290 316 380 237 380 c 0
 162 380 112 308 112 210 c 0
34 -11 m 1
 430 434 l 1
 454 411 l 1
 58 -34 l 1
 34 -11 l 1
-335 76 m 1
 -310 43 -276 23 -238 23 c 0
 -164 23 -116 92 -116 190 c 0
 -116 230 -125 265 -140 296 c 1
 -141 296 l 1
 -335 76 l 1
-352 105 m 1
 -351 105 l 1
 -157 324 l 1
 -157 325 l 1
 -182 358 -215 378 -253 378 c 0
 -328 378 -376 308 -376 210 c 0
 -376 170 -367 135 -352 105 c 1
-458 200 m 0
 -458 318 -364 412 -246 412 c 0
 -198 412 -151 396 -118 368 c 1
 -60 434 l 1
 -36 413 l 1
 -95 347 l 1
 -56 309 -34 258 -34 200 c 0
 -34 82 -128 -12 -246 -12 c 0
 -294 -12 -339 4 -375 31 c 1
 -432 -34 l 1
 -456 -13 l 1
 -398 52 l 1
 -436 90 -458 142 -458 200 c 0
EndSplineSet
Fore
SplineSet
47 45 m 0
 47 74 71 98 100 98 c 0
 129 98 153 74 153 45 c 0
 153 16 129 -8 100 -8 c 0
 71 -8 47 16 47 45 c 0
34 497 m 1
 166 497 l 1
 166 442 l 1
 34 442 l 1
 34 497 l 1
EndSplineSet
Layer: 2
SplineSet
-355 107 m 1
 -353 107 l 1
 -156 326 l 1
 -180 358 -214 379 -252 379 c 0
 -327 379 -376 308 -376 210 c 0
 -376 173 -368 137 -355 107 c 1
-334 74 m 1
 -309 42 -275 22 -237 22 c 0
 -163 22 -114 92 -114 190 c 0
 -114 227 -122 264 -135 294 c 1
 -137 294 l 1
 -334 74 l 1
-458 200 m 0
 -458 321 -366 413 -245 413 c 0
 -196 413 -151 397 -116 371 c 1
 -62 431 l 1
 -35 407 l 1
 -89 347 l 1
 -54 309 -32 258 -32 200 c 0
 -32 79 -124 -13 -245 -13 c 0
 -294 -13 -340 3 -375 29 c 1
 -430 -33 l 1
 -457 -9 l 1
 -401 53 l 1
 -436 91 -458 142 -458 200 c 0
33 -9 m 1
 428 431 l 1
 455 407 l 1
 60 -33 l 1
 33 -9 l 1
32 200 m 0
 32 321 124 413 245 413 c 0
 366 413 458 321 458 200 c 0
 458 79 366 -13 245 -13 c 0
 124 -13 32 79 32 200 c 0
114 210 m 0
 114 110 173 22 253 22 c 0
 327 22 376 92 376 190 c 0
 376 290 317 379 238 379 c 0
 163 379 114 308 114 210 c 0
EndSplineSet
EndChar

StartChar: thorn
Encoding: 254 254 81
GlifName: thorn
Width: 494
Flags: HMW
LayerCount: 3
Fore
SplineSet
148 351 m 1
 149 349 l 1
 181 385 229 412 279 412 c 0
 379 412 457 328 457 212 c 0
 457 80 349 -10 239 -10 c 0
 211 -10 175 -5 150 6 c 1
 148 5 l 1
 149 -35 l 1
 149 -238 l 1
 232 -238 l 1
 232 -276 l 1
 7 -276 l 1
 7 -238 l 1
 79 -238 l 1
 79 619 l 1
 21 664 l 1
 21 674 l 1
 139 712 l 1
 149 712 l 1
 149 388 l 1
 148 351 l 1
149 73 m 1
 174 45 209 30 254 30 c 0
 326 30 383 85 383 185 c 0
 383 292 324 359 249 359 c 0
 210 359 173 344 149 323 c 1
 149 73 l 1
EndSplineSet
Layer: 2
SplineSet
146 351 m 1
 147 349 l 1
 179 385 227 412 277 412 c 0
 377 412 455 328 455 212 c 0
 455 80 347 -10 237 -10 c 0
 209 -10 173 -5 148 6 c 1
 146 5 l 1
 147 -35 l 1
 147 -242 l 1
 225 -242 l 1
 225 -276 l 1
 10 -276 l 1
 10 -242 l 1
 77 -242 l 1
 77 624 l 1
 22 667 l 1
 22 675 l 1
 137 712 l 1
 147 712 l 1
 147 388 l 1
 146 351 l 1
147 73 m 1
 172 45 207 30 252 30 c 0
 324 30 381 85 381 185 c 0
 381 292 322 359 247 359 c 0
 208 359 171 344 147 323 c 1
 147 73 l 1
EndSplineSet
EndChar

StartChar: quoteleft
Encoding: 8216 8216 82
GlifName: quoteleft
Width: 190
Flags: HMW
LayerCount: 3
Back
SplineSet
147 499 m 1
 132 426 l 1
 131 426 l 1
 73 430 29 466 29 528 c 0
 29 583 72 641 143 668 c 1
 153 645 l 1
 111 625 87 592 87 559 c 0
 87 525 111 505 147 499 c 1
EndSplineSet
Fore
SplineSet
147 499 m 1
 132 426 l 1
 131 426 l 1
 73 430 29 466 29 528 c 0
 29 583 72 641 143 668 c 1
 153 645 l 1
 111 625 87 592 87 559 c 0
 87 525 111 505 147 499 c 1
EndSplineSet
EndChar

StartChar: quoteright
Encoding: 8217 8217 83
GlifName: quoteright
Width: 190
Flags: HMW
LayerCount: 3
Back
SplineSet
41 581 m 1
 56 654 l 1
 57 654 l 1
 115 650 159 614 159 552 c 0
 159 497 116 439 45 412 c 1
 35 435 l 1
 77 455 101 488 101 521 c 0
 101 555 77 575 41 581 c 1
EndSplineSet
Fore
SplineSet
41 581 m 1
 56 654 l 1
 57 654 l 1
 115 650 159 614 159 552 c 0
 159 497 116 439 45 412 c 1
 35 435 l 1
 77 455 101 488 101 521 c 0
 101 555 77 575 41 581 c 1
EndSplineSet
EndChar

StartChar: quotedblleft
Encoding: 8220 8220 84
GlifName: quotedblleft
Width: 348
Flags: HMW
LayerCount: 3
Back
SplineSet
306 499 m 1
 290 426 l 1
 289 426 l 1
 232 431 190 466 190 528 c 0
 190 583 232 641 303 668 c 1
 313 645 l 1
 271 625 247 592 247 559 c 0
 247 526 270 505 306 499 c 1
146 499 m 1
 130 426 l 1
 129 426 l 1
 72 431 30 466 30 528 c 0
 30 583 72 641 143 668 c 1
 153 645 l 1
 111 625 87 592 87 559 c 0
 87 526 110 505 146 499 c 1
EndSplineSet
Fore
SplineSet
306 499 m 1
 290 426 l 1
 289 426 l 1
 232 431 190 466 190 528 c 0
 190 583 232 641 303 668 c 1
 313 645 l 1
 271 625 247 592 247 559 c 0
 247 526 270 505 306 499 c 1
146 499 m 1
 130 426 l 1
 129 426 l 1
 72 431 30 466 30 528 c 0
 30 583 72 641 143 668 c 1
 153 645 l 1
 111 625 87 592 87 559 c 0
 87 526 110 505 146 499 c 1
EndSplineSet
EndChar

StartChar: quotedblright
Encoding: 8221 8221 85
GlifName: quotedblright
Width: 348
Flags: HMW
LayerCount: 3
Back
SplineSet
42 581 m 1
 58 654 l 1
 59 654 l 1
 116 649 158 614 158 552 c 0
 158 497 116 439 45 412 c 1
 35 435 l 1
 77 455 101 488 101 521 c 0
 101 554 78 575 42 581 c 1
202 581 m 1
 218 654 l 1
 219 654 l 1
 276 649 318 614 318 552 c 0
 318 497 276 439 205 412 c 1
 195 435 l 1
 237 455 261 488 261 521 c 0
 261 554 238 575 202 581 c 1
EndSplineSet
Fore
SplineSet
42 581 m 1
 58 654 l 1
 59 654 l 1
 116 649 158 614 158 552 c 0
 158 497 116 439 45 412 c 1
 35 435 l 1
 77 455 101 488 101 521 c 0
 101 554 78 575 42 581 c 1
202 581 m 1
 218 654 l 1
 219 654 l 1
 276 649 318 614 318 552 c 0
 318 497 276 439 205 412 c 1
 195 435 l 1
 237 455 261 488 261 521 c 0
 261 554 238 575 202 581 c 1
EndSplineSet
EndChar

StartChar: kgreenlandic
Encoding: 312 312 87
GlifName: kgreenlandic
Width: 480
Flags: HMW
LayerCount: 3
Back
SplineSet
442 400 m 1
 442 369 l 1
 392 369 l 1
 242 240 l 1
 432 31 l 1
 472 31 l 1
 472 0 l 1
 297 0 l 1
 297 31 l 1
 342 31 l 1
 172 220 l 1
 326 359 l 1
 329 369 l 1
 277 369 l 1
 277 400 l 1
 442 400 l 1
43 364 m 1
 43 372 l 1
 152 415 l 1
 162 415 l 1
 162 31 l 1
 219 31 l 1
 219 0 l 1
 27 0 l 1
 27 31 l 1
 92 31 l 1
 92 330 l 1
 43 364 l 1
EndSplineSet
Fore
SplineSet
448 400 m 1
 448 362 l 1
 388 362 l 1
 246 240 l 1
 429 38 l 1
 478 38 l 1
 478 0 l 1
 290 0 l 1
 290 38 l 1
 339 38 l 1
 176 220 l 1
 320 350 l 1
 328 362 l 1
 270 362 l 1
 270 400 l 1
 448 400 l 1
41 361 m 1
 41 371 l 1
 156 417 l 1
 166 417 l 1
 166 38 l 1
 229 38 l 1
 229 0 l 1
 24 0 l 1
 24 38 l 1
 96 38 l 1
 96 320 l 1
 41 361 l 1
EndSplineSet
Layer: 2
SplineSet
41 360 m 1
 41 368 l 1
 155 416 l 1
 165 416 l 1
 165 34 l 1
 240 34 l 1
 240 0 l 1
 24 0 l 1
 24 34 l 1
 95 34 l 1
 95 315 l 1
 41 360 l 1
EndSplineSet
EndChar

StartChar: oe
Encoding: 339 339 88
GlifName: oe
Width: 750
Flags: HMW
LayerCount: 3
Back
SplineSet
453 280 m 1
 640 280 l 1
 640 340 608 376 560 376 c 0
 512 376 468 343 453 280 c 1
110 210 m 0
 110 110 168 23 248 23 c 0
 322 23 370 92 370 190 c 0
 370 290 312 378 233 378 c 0
 158 378 110 308 110 210 c 0
28 200 m 0
 28 318 122 412 240 412 c 0
 315 412 375 375 410 316 c 1
 413 316 l 1
 445 375 506 412 572 412 c 0
 658 412 715 350 715 265 c 2
 715 250 l 1
 447 250 l 1
 446 242 445 227 445 215 c 0
 445 115 510 52 590 52 c 0
 640 52 675 71 700 100 c 1
 715 87 l 1
 685 30 625 -12 557 -12 c 0
 495 -12 437 22 408 77 c 1
 405 77 l 1
 370 20 308 -12 240 -12 c 0
 122 -12 28 82 28 200 c 0
EndSplineSet
Fore
SplineSet
455 280 m 1
 642 280 l 1
 642 340 610 376 562 376 c 0
 514 376 470 343 455 280 c 1
111 210 m 0
 111 110 170 24 250 24 c 0
 324 24 372 92 372 190 c 0
 372 290 314 377 235 377 c 0
 160 377 111 308 111 210 c 0
29 200 m 0
 29 318 124 412 242 412 c 0
 317 412 377 375 412 316 c 1
 415 316 l 1
 447 375 508 412 574 412 c 0
 660 412 717 350 717 265 c 2
 717 250 l 1
 449 250 l 1
 448 242 447 227 447 215 c 0
 447 115 512 52 592 52 c 0
 642 52 677 71 701 100 c 1
 717 85 l 1
 687 30 627 -12 559 -12 c 0
 497 -12 439 22 410 77 c 1
 407 77 l 1
 372 20 310 -12 242 -12 c 0
 124 -12 29 82 29 200 c 0
EndSplineSet
Layer: 2
SplineSet
28 200 m 0
 28 321 120 413 241 413 c 0
 362 413 454 321 454 200 c 0
 454 79 362 -13 241 -13 c 0
 120 -13 28 79 28 200 c 0
110 210 m 0
 110 110 169 22 249 22 c 0
 323 22 372 92 372 190 c 0
 372 290 313 379 234 379 c 0
 159 379 110 308 110 210 c 0
452 280 m 1
 640 280 l 1
 640 340 608 376 560 376 c 0
 510 376 469 343 452 280 c 1
446 250 m 1
 445 240 444 227 444 215 c 0
 444 115 509 52 590 52 c 0
 637 52 675 70 699 96 c 1
 714 82 l 1
 685 33 630 -12 560 -12 c 0
 460 -12 375 67 375 195 c 0
 375 310 461 412 572 412 c 0
 655 412 715 353 715 265 c 2
 715 250 l 1
 446 250 l 1
EndSplineSet
EndChar

StartChar: dotlessi
Encoding: 305 305 89
GlifName: dotlessi
Width: 255
Flags: HMW
LayerCount: 3
Back
SplineSet
-360.560546875 501 m 1
 -359.560546875 500 l 1
 -360.560546875 499 l 1
 -361.560546875 500 l 1
 -360.560546875 501 l 1
-443.560546875 361 m 1
 -443.560546875 369 l 1
 -332.560546875 415 l 1
 -322.560546875 415 l 1
 -322.560546875 31 l 1
 -250.560546875 31 l 1
 -250.560546875 0 l 1
 -460.560546875 0 l 1
 -460.560546875 31 l 1
 -392.560546875 31 l 1
 -392.560546875 319 l 1
 -443.560546875 361 l 1
EndSplineSet
Fore
SplineSet
40 360 m 1
 40 370 l 1
 156 416 l 1
 166 416 l 1
 166 38 l 1
 246 38 l 1
 246 0 l 1
 20 0 l 1
 20 38 l 1
 96 38 l 1
 96 315 l 1
 40 360 l 1
EndSplineSet
Layer: 2
SplineSet
37 359 m 1
 37 367 l 1
 152 415 l 1
 162 415 l 1
 162 32 l 1
 234 32 l 1
 234 0 l 1
 24 0 l 1
 24 32 l 1
 92 32 l 1
 92 314 l 1
 37 359 l 1
EndSplineSet
EndChar

StartChar: f.alt
Encoding: 65541 -1 90
GlifName: f.alt
Width: 272
Flags: HMW
LayerCount: 3
Back
SplineSet
244 626 m 1
 234 630 219 632 211 632 c 0
 179 632 163 612 163 526 c 2
 163 400 l 1
 265 400 l 1
 260 357 l 1
 163 357 l 1
 163 34 l 1
 246 34 l 1
 246 0 l 1
 32 0 l 1
 32 34 l 1
 93 34 l 1
 93 357 l 1
 33 357 l 1
 33 378 l 1
 93 405 l 1
 93 455 l 2
 93 605 188 703 250 703 c 0
 255 703 265 702 270 700 c 1
 246 626 l 1
 244 626 l 1
EndSplineSet
Fore
SplineSet
250 627 m 1
 240 632 224 635 214 635 c 0
 181 635 165 612 165 526 c 2
 165 400 l 1
 269 400 l 1
 264 355 l 1
 165 355 l 1
 165 38 l 1
 250 38 l 1
 250 0 l 1
 32 0 l 1
 32 38 l 1
 95 38 l 1
 95 355 l 1
 35 355 l 1
 35 378 l 1
 95 405 l 1
 95 455 l 2
 95 605 190 703 252 703 c 0
 258 703 267 702 275 699 c 1
 252 627 l 1
 250 627 l 1
EndSplineSet
EndChar

StartChar: w.alt
Encoding: 65545 -1 91
GlifName: w.alt
Width: 659
Flags: HMW
LayerCount: 3
Back
SplineSet
365 366 m 1
 465 96 l 1
 467 96 l 1
 561 324 l 1
 570 366 l 1
 517 366 l 1
 517 400 l 1
 664 400 l 1
 664 366 l 1
 621 366 l 1
 457 -16 l 1
 437 -16 l 1
 334 250 l 1
 332 250 l 1
 217 -16 l 1
 197 -16 l 1
 48 366 l 1
 2 366 l 1
 2 400 l 1
 169 400 l 1
 169 366 l 1
 125 366 l 1
 225 97 l 1
 227 97 l 1
 315 300 l 1
 288 366 l 1
 249 366 l 1
 249 400 l 1
 417 400 l 1
 417 366 l 1
 365 366 l 1
EndSplineSet
Fore
SplineSet
367 362 m 1
 465 96 l 1
 467 96 l 1
 559 320 l 1
 568 362 l 1
 514 362 l 1
 514 400 l 1
 665 400 l 1
 665 362 l 1
 619 362 l 1
 457 -16 l 1
 437 -16 l 1
 334 250 l 1
 332 250 l 1
 217 -16 l 1
 197 -16 l 1
 50 362 l 1
 1 362 l 1
 1 400 l 1
 174 400 l 1
 174 362 l 1
 127 362 l 1
 225 97 l 1
 227 97 l 1
 315 300 l 1
 290 362 l 1
 247 362 l 1
 247 400 l 1
 422 400 l 1
 422 362 l 1
 367 362 l 1
EndSplineSet
EndChar

StartChar: plus
Encoding: 43 43 92
Width: 480
Flags: HMW
LayerCount: 3
Fore
SplineSet
217 243 m 1
 217 430 l 1
 263 430 l 1
 263 243 l 1
 450 243 l 1
 450 197 l 1
 263 197 l 1
 263 5 l 1
 217 5 l 1
 217 197 l 1
 30 197 l 1
 30 243 l 1
 217 243 l 1
EndSplineSet
EndChar

StartChar: slash
Encoding: 47 47 93
Width: 310
Flags: HMW
LayerCount: 3
Fore
SplineSet
274 660 m 1
 320 660 l 1
 36 -100 l 1
 -10 -100 l 1
 274 660 l 1
EndSplineSet
EndChar

StartChar: numbersign
Encoding: 35 35 94
Width: 480
Flags: HMW
LayerCount: 3
Fore
SplineSet
145 149 m 1
 305 149 l 1
 335 311 l 1
 175 311 l 1
 145 149 l 1
40 311 m 1
 40 355 l 1
 143 355 l 1
 180 560 l 1
 220 560 l 1
 183 355 l 1
 343 355 l 1
 380 560 l 1
 420 560 l 1
 383 355 l 1
 465 355 l 1
 465 311 l 1
 375 311 l 1
 345 149 l 1
 440 149 l 1
 440 105 l 1
 337 105 l 1
 300 -100 l 1
 260 -100 l 1
 297 105 l 1
 137 105 l 1
 100 -100 l 1
 60 -100 l 1
 97 105 l 1
 15 105 l 1
 15 149 l 1
 105 149 l 1
 135 311 l 1
 40 311 l 1
EndSplineSet
EndChar

StartChar: dollar
Encoding: 36 36 95
Width: 430
Flags: HMW
LayerCount: 3
Fore
SplineSet
234 270 m 1
 232 270 l 1
 232 32 l 1
 293 41 323 86 323 135 c 0
 323 192 290 228 234 270 c 1
190 400 m 1
 192 400 l 1
 192 609 l 1
 142 602 110 568 110 523 c 0
 110 473 135 442 190 400 c 1
192 32 m 1
 192 294 l 1
 76 374 40 418 40 493 c 0
 40 564 100 632 192 643 c 1
 192 700 l 1
 232 700 l 1
 232 645 l 1
 283 643 330 628 362 605 c 1
 370 493 l 1
 341 493 l 1
 340 499 l 2
 330 560 294 602 232 610 c 1
 232 376 l 1
 360 288 400 244 400 167 c 0
 400 83 333 10 232 -3 c 1
 232 -60 l 1
 192 -60 l 1
 192 -5 l 1
 142 -4 89 10 51 37 c 1
 33 165 l 1
 62 165 l 1
 65 153 l 2
 83 80 124 38 192 32 c 1
EndSplineSet
EndChar

StartChar: percent
Encoding: 37 37 96
Width: 780
Flags: HMW
LayerCount: 3
Fore
SplineSet
567 645 m 1
 615 645 l 1
 213 -40 l 1
 165 -40 l 1
 567 645 l 1
445 150 m 0
 445 238 512 310 595 310 c 0
 678 310 745 238 745 150 c 0
 745 62 678 -10 595 -10 c 0
 512 -10 445 62 445 150 c 0
504 165 m 0
 504 78 548 24 603 24 c 0
 650 24 686 72 686 135 c 0
 686 222 642 276 587 276 c 0
 540 276 504 228 504 165 c 0
35 455 m 0
 35 543 102 615 185 615 c 0
 268 615 335 543 335 455 c 0
 335 367 268 295 185 295 c 0
 102 295 35 367 35 455 c 0
94 470 m 0
 94 383 138 329 193 329 c 0
 240 329 276 377 276 440 c 0
 276 527 232 581 177 581 c 0
 130 581 94 533 94 470 c 0
EndSplineSet
EndChar

StartChar: less
Encoding: 60 60 97
Width: 480
Flags: HMW
LayerCount: 3
Fore
SplineSet
450 47 m 1
 450 -5 l 1
 30 205 l 1
 30 235 l 1
 450 445 l 1
 450 393 l 1
 108 222 l 1
 108 218 l 1
 450 47 l 1
EndSplineSet
EndChar

StartChar: equal
Encoding: 61 61 98
Width: 480
Flags: HMW
LayerCount: 3
Fore
SplineSet
30 294 m 1
 30 340 l 1
 450 340 l 1
 450 294 l 1
 30 294 l 1
30 100 m 1
 30 146 l 1
 450 146 l 1
 450 100 l 1
 30 100 l 1
EndSplineSet
EndChar

StartChar: greater
Encoding: 62 62 99
Width: 480
Flags: HMW
LayerCount: 3
Fore
SplineSet
30 393 m 1
 30 445 l 1
 450 235 l 1
 450 205 l 1
 30 -5 l 1
 30 47 l 1
 372 218 l 1
 372 222 l 1
 30 393 l 1
EndSplineSet
EndChar

StartChar: at
Encoding: 64 64 100
Width: 790
Flags: HMW
LayerCount: 3
Fore
SplineSet
500 -3 m 0
 425 -3 395 35 395 70 c 0
 395 95 400 125 408 156 c 1
 405 158 l 1
 330 53 285 22 245 22 c 0
 225 22 205 40 205 75 c 0
 205 205 355 395 450 395 c 0
 463 395 479 391 492 384 c 1
 522 405 l 1
 549 405 l 1
 549 400 l 1
 525 325 l 2
 479 182 465 127 465 98 c 0
 465 70 475 42 530 42 c 0
 615 42 705 115 705 240 c 0
 705 382 575 520 397 520 c 0
 222 520 85 380 85 203 c 0
 85 23 225 -120 403 -120 c 0
 500 -120 580 -80 638 -13 c 1
 660 -30 l 1
 595 -110 510 -160 397 -160 c 0
 200 -160 40 0 40 198 c 0
 40 399 201 560 402 560 c 0
 600 560 750 405 750 245 c 0
 750 70 610 -3 500 -3 c 0
445 310 m 0
 445 325 435 335 420 335 c 0
 350 335 258 200 258 115 c 0
 258 100 268 92 278 92 c 0
 333 92 445 225 445 310 c 0
EndSplineSet
EndChar

StartChar: backslash
Encoding: 92 92 101
Width: 310
Flags: HMW
LayerCount: 3
Fore
SplineSet
36 660 m 1
 320 -100 l 1
 274 -100 l 1
 -10 660 l 1
 36 660 l 1
EndSplineSet
EndChar

StartChar: asciicircum
Encoding: 94 94 102
Width: 200
Flags: HMW
LayerCount: 3
Fore
SplineSet
47 45 m 0
 47 74 71 98 100 98 c 0
 129 98 153 74 153 45 c 0
 153 16 129 -8 100 -8 c 0
 71 -8 47 16 47 45 c 0
EndSplineSet
EndChar

StartChar: underscore
Encoding: 95 95 103
Width: 480
Flags: HMW
LayerCount: 3
Fore
SplineSet
20 -40 m 1
 460 -40 l 1
 460 -75 l 1
 20 -75 l 1
 20 -40 l 1
EndSplineSet
EndChar

StartChar: grave
Encoding: 96 96 104
Width: 200
Flags: HMW
LayerCount: 3
Fore
SplineSet
47 45 m 0
 47 74 71 98 100 98 c 0
 129 98 153 74 153 45 c 0
 153 16 129 -8 100 -8 c 0
 71 -8 47 16 47 45 c 0
EndSplineSet
EndChar

StartChar: braceleft
Encoding: 123 123 105
Width: 300
Flags: HMW
LayerCount: 3
Fore
SplineSet
100 242 m 1
 100 238 l 1
 155 225 175 185 175 130 c 2
 175 -67 l 2
 175 -127 200 -162 265 -162 c 2
 285 -162 l 1
 285 -195 l 1
 255 -195 l 2
 160 -195 112 -135 112 -50 c 2
 112 140 l 2
 112 195 93 225 25 225 c 1
 20 225 l 1
 20 255 l 1
 25 255 l 1
 93 255 112 285 112 340 c 2
 112 530 l 2
 112 615 160 675 255 675 c 2
 285 675 l 1
 285 642 l 1
 265 642 l 2
 200 642 175 607 175 547 c 2
 175 350 l 2
 175 295 155 255 100 242 c 1
EndSplineSet
EndChar

StartChar: bar
Encoding: 124 124 106
Width: 180
Flags: HMW
LayerCount: 3
Fore
SplineSet
69 640 m 1
 111 640 l 1
 111 -200 l 1
 69 -200 l 1
 69 640 l 1
EndSplineSet
EndChar

StartChar: braceright
Encoding: 125 125 107
Width: 300
Flags: HMW
LayerCount: 3
Back
SplineSet
100 242 m 1
 100 238 l 1
 155 225 175 185 175 130 c 2
 175 -67 l 2
 175 -127 200 -162 265 -162 c 2
 285 -162 l 1
 285 -195 l 1
 255 -195 l 2
 160 -195 112 -135 112 -50 c 2
 112 140 l 2
 112 195 93 225 25 225 c 1
 20 225 l 1
 20 255 l 1
 25 255 l 1
 93 255 112 285 112 340 c 2
 112 530 l 2
 112 615 160 675 255 675 c 2
 285 675 l 1
 285 642 l 1
 265 642 l 2
 200 642 175 607 175 547 c 2
 175 350 l 2
 175 295 155 255 100 242 c 1
EndSplineSet
Fore
SplineSet
200 238 m 1
 200 242 l 1
 145 255 125 295 125 350 c 2
 125 547 l 2
 125 607 100 642 35 642 c 2
 15 642 l 1
 15 675 l 1
 45 675 l 2
 140 675 188 615 188 530 c 2
 188 340 l 2
 188 285 207 255 275 255 c 1
 280 255 l 1
 280 225 l 1
 275 225 l 1
 207 225 188 195 188 140 c 2
 188 -50 l 2
 188 -135 140 -195 45 -195 c 2
 15 -195 l 1
 15 -162 l 1
 35 -162 l 2
 100 -162 125 -127 125 -67 c 2
 125 130 l 2
 125 185 145 225 200 238 c 1
EndSplineSet
EndChar

StartChar: asciitilde
Encoding: 126 126 108
Width: 200
Flags: HMW
LayerCount: 3
Fore
SplineSet
47 45 m 0
 47 74 71 98 100 98 c 0
 129 98 153 74 153 45 c 0
 153 16 129 -8 100 -8 c 0
 71 -8 47 16 47 45 c 0
EndSplineSet
EndChar

StartChar: exclamdown
Encoding: 161 161 109
Width: 200
Flags: HMW
LayerCount: 3
Fore
SplineSet
47 45 m 0
 47 74 71 98 100 98 c 0
 129 98 153 74 153 45 c 0
 153 16 129 -8 100 -8 c 0
 71 -8 47 16 47 45 c 0
EndSplineSet
EndChar

StartChar: cent
Encoding: 162 162 110
Width: 200
Flags: HMW
LayerCount: 3
Fore
SplineSet
47 45 m 0
 47 74 71 98 100 98 c 0
 129 98 153 74 153 45 c 0
 153 16 129 -8 100 -8 c 0
 71 -8 47 16 47 45 c 0
EndSplineSet
EndChar

StartChar: sterling
Encoding: 163 163 111
Width: 200
Flags: HMW
LayerCount: 3
Fore
SplineSet
47 45 m 0
 47 74 71 98 100 98 c 0
 129 98 153 74 153 45 c 0
 153 16 129 -8 100 -8 c 0
 71 -8 47 16 47 45 c 0
EndSplineSet
EndChar

StartChar: currency
Encoding: 164 164 112
Width: 200
Flags: HMW
LayerCount: 3
Fore
SplineSet
47 45 m 0
 47 74 71 98 100 98 c 0
 129 98 153 74 153 45 c 0
 153 16 129 -8 100 -8 c 0
 71 -8 47 16 47 45 c 0
EndSplineSet
EndChar

StartChar: yen
Encoding: 165 165 113
Width: 200
Flags: HMW
LayerCount: 3
Fore
SplineSet
47 45 m 0
 47 74 71 98 100 98 c 0
 129 98 153 74 153 45 c 0
 153 16 129 -8 100 -8 c 0
 71 -8 47 16 47 45 c 0
EndSplineSet
EndChar

StartChar: brokenbar
Encoding: 166 166 114
Width: 200
Flags: HMW
LayerCount: 3
Fore
SplineSet
47 45 m 0
 47 74 71 98 100 98 c 0
 129 98 153 74 153 45 c 0
 153 16 129 -8 100 -8 c 0
 71 -8 47 16 47 45 c 0
EndSplineSet
EndChar

StartChar: section
Encoding: 167 167 115
Width: 200
Flags: HMW
LayerCount: 3
Fore
SplineSet
47 45 m 0
 47 74 71 98 100 98 c 0
 129 98 153 74 153 45 c 0
 153 16 129 -8 100 -8 c 0
 71 -8 47 16 47 45 c 0
EndSplineSet
EndChar

StartChar: dieresis
Encoding: 168 168 116
Width: 200
Flags: HMW
LayerCount: 3
Fore
SplineSet
47 45 m 0
 47 74 71 98 100 98 c 0
 129 98 153 74 153 45 c 0
 153 16 129 -8 100 -8 c 0
 71 -8 47 16 47 45 c 0
EndSplineSet
EndChar

StartChar: copyright
Encoding: 169 169 117
Width: 200
Flags: HMW
LayerCount: 3
Fore
SplineSet
47 45 m 0
 47 74 71 98 100 98 c 0
 129 98 153 74 153 45 c 0
 153 16 129 -8 100 -8 c 0
 71 -8 47 16 47 45 c 0
EndSplineSet
EndChar

StartChar: ordfeminine
Encoding: 170 170 118
Width: 200
Flags: HMW
LayerCount: 3
Fore
SplineSet
47 45 m 0
 47 74 71 98 100 98 c 0
 129 98 153 74 153 45 c 0
 153 16 129 -8 100 -8 c 0
 71 -8 47 16 47 45 c 0
EndSplineSet
EndChar

StartChar: guillemotleft
Encoding: 171 171 119
Width: 200
Flags: HMW
LayerCount: 3
Fore
SplineSet
47 45 m 0
 47 74 71 98 100 98 c 0
 129 98 153 74 153 45 c 0
 153 16 129 -8 100 -8 c 0
 71 -8 47 16 47 45 c 0
EndSplineSet
EndChar

StartChar: logicalnot
Encoding: 172 172 120
Width: 480
Flags: HMW
LayerCount: 3
Fore
SplineSet
440 305 m 1
 440 90 l 1
 394 90 l 1
 394 259 l 1
 30 259 l 1
 30 305 l 1
 440 305 l 1
EndSplineSet
EndChar

StartChar: uni00AD
Encoding: 173 173 121
Width: 200
Flags: HMW
LayerCount: 3
Fore
SplineSet
47 45 m 0
 47 74 71 98 100 98 c 0
 129 98 153 74 153 45 c 0
 153 16 129 -8 100 -8 c 0
 71 -8 47 16 47 45 c 0
EndSplineSet
EndChar

StartChar: registered
Encoding: 174 174 122
Width: 200
Flags: HMW
LayerCount: 3
Fore
SplineSet
47 45 m 0
 47 74 71 98 100 98 c 0
 129 98 153 74 153 45 c 0
 153 16 129 -8 100 -8 c 0
 71 -8 47 16 47 45 c 0
EndSplineSet
EndChar

StartChar: macron
Encoding: 175 175 123
Width: 200
Flags: HMW
LayerCount: 3
Fore
SplineSet
47 45 m 0
 47 74 71 98 100 98 c 0
 129 98 153 74 153 45 c 0
 153 16 129 -8 100 -8 c 0
 71 -8 47 16 47 45 c 0
EndSplineSet
EndChar

StartChar: degree
Encoding: 176 176 124
Width: 240
Flags: HMW
LayerCount: 3
Back
SplineSet
20 550 m 0
 20 605 65 650 120 650 c 0
 175 650 220 605 220 550 c 0
 220 495 175 450 120 450 c 0
 65 450 20 495 20 550 c 0
50 550 m 0
 50 511 81 480 120 480 c 0
 159 480 190 511 190 550 c 0
 190 589 159 620 120 620 c 0
 81 620 50 589 50 550 c 0
EndSplineSet
Fore
SplineSet
53 550 m 0
 53 513 83 483 120 483 c 0
 157 483 187 513 187 550 c 0
 187 587 157 617 120 617 c 0
 83 617 53 587 53 550 c 0
22 550 m 0
 22 604 66 648 120 648 c 0
 174 648 218 604 218 550 c 0
 218 496 174 452 120 452 c 0
 66 452 22 496 22 550 c 0
EndSplineSet
EndChar

StartChar: plusminus
Encoding: 177 177 125
Width: 480
Flags: HMW
LayerCount: 3
Back
SplineSet
217 293 m 1
 217 405 l 1
 263 405 l 1
 263 293 l 1
 445 293 l 1
 445 247 l 1
 263 247 l 1
 263 130 l 1
 217 130 l 1
 217 247 l 1
 35 247 l 1
 35 293 l 1
 217 293 l 1
30 39 m 1
 30 85 l 1
 450 85 l 1
 450 39 l 1
 30 39 l 1
EndSplineSet
Fore
SplineSet
217 293 m 1
 217 405 l 1
 263 405 l 1
 263 293 l 1
 445 293 l 1
 445 247 l 1
 263 247 l 1
 263 130 l 1
 217 130 l 1
 217 247 l 1
 35 247 l 1
 35 293 l 1
 217 293 l 1
30 39 m 1
 30 85 l 1
 450 85 l 1
 450 39 l 1
 30 39 l 1
EndSplineSet
EndChar

StartChar: uni00B2
Encoding: 178 178 126
Width: 200
Flags: HMW
LayerCount: 3
Fore
SplineSet
47 45 m 0
 47 74 71 98 100 98 c 0
 129 98 153 74 153 45 c 0
 153 16 129 -8 100 -8 c 0
 71 -8 47 16 47 45 c 0
EndSplineSet
EndChar

StartChar: uni00B3
Encoding: 179 179 127
Width: 200
Flags: HMW
LayerCount: 3
Fore
SplineSet
47 45 m 0
 47 74 71 98 100 98 c 0
 129 98 153 74 153 45 c 0
 153 16 129 -8 100 -8 c 0
 71 -8 47 16 47 45 c 0
EndSplineSet
EndChar

StartChar: acute
Encoding: 180 180 128
Width: 200
Flags: HMW
LayerCount: 3
Fore
SplineSet
47 45 m 0
 47 74 71 98 100 98 c 0
 129 98 153 74 153 45 c 0
 153 16 129 -8 100 -8 c 0
 71 -8 47 16 47 45 c 0
EndSplineSet
EndChar

StartChar: mu
Encoding: 181 181 129
Width: 200
Flags: HMW
LayerCount: 3
Fore
SplineSet
47 45 m 0
 47 74 71 98 100 98 c 0
 129 98 153 74 153 45 c 0
 153 16 129 -8 100 -8 c 0
 71 -8 47 16 47 45 c 0
EndSplineSet
EndChar

StartChar: paragraph
Encoding: 182 182 130
Width: 200
Flags: HMW
LayerCount: 3
Fore
SplineSet
47 45 m 0
 47 74 71 98 100 98 c 0
 129 98 153 74 153 45 c 0
 153 16 129 -8 100 -8 c 0
 71 -8 47 16 47 45 c 0
EndSplineSet
EndChar

StartChar: periodcentered
Encoding: 183 183 131
Width: 200
Flags: HMW
LayerCount: 3
Fore
SplineSet
47 45 m 0
 47 74 71 98 100 98 c 0
 129 98 153 74 153 45 c 0
 153 16 129 -8 100 -8 c 0
 71 -8 47 16 47 45 c 0
EndSplineSet
EndChar

StartChar: cedilla
Encoding: 184 184 132
Width: 200
Flags: HMW
LayerCount: 3
Fore
SplineSet
47 45 m 0
 47 74 71 98 100 98 c 0
 129 98 153 74 153 45 c 0
 153 16 129 -8 100 -8 c 0
 71 -8 47 16 47 45 c 0
EndSplineSet
EndChar

StartChar: uni00B9
Encoding: 185 185 133
Width: 200
Flags: HMW
LayerCount: 3
Fore
SplineSet
47 45 m 0
 47 74 71 98 100 98 c 0
 129 98 153 74 153 45 c 0
 153 16 129 -8 100 -8 c 0
 71 -8 47 16 47 45 c 0
EndSplineSet
EndChar

StartChar: ordmasculine
Encoding: 186 186 134
Width: 200
Flags: HMW
LayerCount: 3
Fore
SplineSet
47 45 m 0
 47 74 71 98 100 98 c 0
 129 98 153 74 153 45 c 0
 153 16 129 -8 100 -8 c 0
 71 -8 47 16 47 45 c 0
EndSplineSet
EndChar

StartChar: guillemotright
Encoding: 187 187 135
Width: 420
Flags: HMW
LayerCount: 3
Fore
SplineSet
220 213 m 1
 220 207 l 1
 50 35 l 1
 25 45 l 1
 135 208 l 1
 135 210 l 1
 25 375 l 1
 50 385 l 1
 220 213 l 1
400 213 m 1
 400 207 l 1
 230 35 l 1
 205 45 l 1
 315 208 l 1
 315 210 l 1
 205 375 l 1
 230 385 l 1
 400 213 l 1
EndSplineSet
EndChar

StartChar: onequarter
Encoding: 188 188 136
Width: 200
Flags: HMW
LayerCount: 3
Fore
SplineSet
47 45 m 0
 47 74 71 98 100 98 c 0
 129 98 153 74 153 45 c 0
 153 16 129 -8 100 -8 c 0
 71 -8 47 16 47 45 c 0
EndSplineSet
EndChar

StartChar: onehalf
Encoding: 189 189 137
Width: 200
Flags: HMW
LayerCount: 3
Fore
SplineSet
47 45 m 0
 47 74 71 98 100 98 c 0
 129 98 153 74 153 45 c 0
 153 16 129 -8 100 -8 c 0
 71 -8 47 16 47 45 c 0
EndSplineSet
EndChar

StartChar: threequarters
Encoding: 190 190 138
Width: 200
Flags: HMW
LayerCount: 3
Fore
SplineSet
47 45 m 0
 47 74 71 98 100 98 c 0
 129 98 153 74 153 45 c 0
 153 16 129 -8 100 -8 c 0
 71 -8 47 16 47 45 c 0
EndSplineSet
EndChar

StartChar: questiondown
Encoding: 191 191 139
Width: 200
Flags: HMW
LayerCount: 3
Fore
SplineSet
47 45 m 0
 47 74 71 98 100 98 c 0
 129 98 153 74 153 45 c 0
 153 16 129 -8 100 -8 c 0
 71 -8 47 16 47 45 c 0
EndSplineSet
EndChar

StartChar: Agrave
Encoding: 192 192 140
Width: 200
Flags: HMW
LayerCount: 3
Fore
SplineSet
47 45 m 0
 47 74 71 98 100 98 c 0
 129 98 153 74 153 45 c 0
 153 16 129 -8 100 -8 c 0
 71 -8 47 16 47 45 c 0
EndSplineSet
EndChar

StartChar: Aacute
Encoding: 193 193 141
Width: 200
Flags: HMW
LayerCount: 3
Fore
SplineSet
47 45 m 0
 47 74 71 98 100 98 c 0
 129 98 153 74 153 45 c 0
 153 16 129 -8 100 -8 c 0
 71 -8 47 16 47 45 c 0
EndSplineSet
EndChar

StartChar: Acircumflex
Encoding: 194 194 142
Width: 200
Flags: HMW
LayerCount: 3
Fore
SplineSet
47 45 m 0
 47 74 71 98 100 98 c 0
 129 98 153 74 153 45 c 0
 153 16 129 -8 100 -8 c 0
 71 -8 47 16 47 45 c 0
EndSplineSet
EndChar

StartChar: Atilde
Encoding: 195 195 143
Width: 200
Flags: HMW
LayerCount: 3
Fore
SplineSet
47 45 m 0
 47 74 71 98 100 98 c 0
 129 98 153 74 153 45 c 0
 153 16 129 -8 100 -8 c 0
 71 -8 47 16 47 45 c 0
EndSplineSet
EndChar

StartChar: Adieresis
Encoding: 196 196 144
Width: 200
Flags: HMW
LayerCount: 3
Fore
SplineSet
47 45 m 0
 47 74 71 98 100 98 c 0
 129 98 153 74 153 45 c 0
 153 16 129 -8 100 -8 c 0
 71 -8 47 16 47 45 c 0
EndSplineSet
EndChar

StartChar: Aring
Encoding: 197 197 145
Width: 200
Flags: HMW
LayerCount: 3
Fore
SplineSet
47 45 m 0
 47 74 71 98 100 98 c 0
 129 98 153 74 153 45 c 0
 153 16 129 -8 100 -8 c 0
 71 -8 47 16 47 45 c 0
EndSplineSet
EndChar

StartChar: AE
Encoding: 198 198 146
Width: 834
Flags: HMW
LayerCount: 3
Back
SplineSet
394 604 m 1
 237 322 l 1
 395 322 l 1
 395 545 l 1
 397 604 l 1
 394 604 l 1
291 640 m 1
 760 640 l 1
 765 490 l 1
 736 490 l 1
 732 524 l 2
 724 590 702 604 660 604 c 2
 475 604 l 1
 475 322 l 1
 670 322 l 1
 670 390 l 1
 700 390 l 1
 700 305 l 1
 700 210 l 1
 670 210 l 1
 670 285 l 1
 475 285 l 1
 475 68 l 2
 475 48 485 38 505 38 c 2
 660 38 l 2
 720 38 748 62 772 147 c 2
 780 175 l 1
 810 175 l 1
 775 0 l 1
 323 0 l 1
 323 32 l 1
 395 32 l 1
 395 285 l 1
 216 285 l 1
 102 81 l 1
 84 32 l 1
 155 32 l 1
 155 0 l 1
 -11 0 l 1
 -11 32 l 1
 28 32 l 1
 354 608 l 1
 291 608 l 1
 291 640 l 1
EndSplineSet
Fore
SplineSet
394 604 m 1
 238 324 l 1
 395 324 l 1
 395 545 l 1
 397 604 l 1
 394 604 l 1
280 640 m 1
 760 640 l 1
 765 490 l 1
 729 490 l 1
 725 524 l 2
 717 590 695 602 653 602 c 2
 475 602 l 1
 475 324 l 1
 662 324 l 1
 662 390 l 1
 700 390 l 1
 700 305 l 1
 700 210 l 1
 662 210 l 1
 662 285 l 1
 475 285 l 1
 475 69 l 2
 475 49 485 39 505 39 c 2
 653 39 l 2
 713 39 741 62 765 147 c 2
 773 175 l 1
 810 175 l 1
 775 0 l 1
 317 0 l 1
 317 40 l 1
 395 40 l 1
 395 285 l 1
 216 285 l 1
 106 89 l 1
 88 40 l 1
 160 40 l 1
 160 0 l 1
 -14 0 l 1
 -14 40 l 1
 32 40 l 1
 350 601 l 1
 280 601 l 1
 280 640 l 1
EndSplineSet
Layer: 2
SplineSet
394 604 m 1
 238 324 l 1
 395 324 l 1
 395 545 l 1
 397 604 l 1
 394 604 l 1
288 640 m 1
 760 640 l 1
 765 490 l 1
 729 490 l 1
 725 524 l 2
 717 590 695 602 653 602 c 2
 475 602 l 1
 475 324 l 1
 662 324 l 1
 662 390 l 1
 700 390 l 1
 700 305 l 1
 700 210 l 1
 662 210 l 1
 662 285 l 1
 475 285 l 1
 475 70 l 2
 475 50 485 40 505 40 c 2
 653 40 l 2
 713 40 741 62 765 147 c 2
 773 175 l 1
 810 175 l 1
 775 0 l 1
 322 0 l 1
 322 34 l 1
 395 34 l 1
 395 285 l 1
 216 285 l 1
 103 83 l 1
 85 34 l 1
 155 34 l 1
 155 0 l 1
 -11 0 l 1
 -11 34 l 1
 29 34 l 1
 353 606 l 1
 288 606 l 1
 288 640 l 1
EndSplineSet
EndChar

StartChar: Ccedilla
Encoding: 199 199 147
Width: 200
Flags: HMW
LayerCount: 3
Fore
SplineSet
47 45 m 0
 47 74 71 98 100 98 c 0
 129 98 153 74 153 45 c 0
 153 16 129 -8 100 -8 c 0
 71 -8 47 16 47 45 c 0
EndSplineSet
EndChar

StartChar: Egrave
Encoding: 200 200 148
Width: 200
Flags: HMW
LayerCount: 3
Fore
SplineSet
47 45 m 0
 47 74 71 98 100 98 c 0
 129 98 153 74 153 45 c 0
 153 16 129 -8 100 -8 c 0
 71 -8 47 16 47 45 c 0
EndSplineSet
EndChar

StartChar: Eacute
Encoding: 201 201 149
Width: 200
Flags: HMW
LayerCount: 3
Fore
SplineSet
47 45 m 0
 47 74 71 98 100 98 c 0
 129 98 153 74 153 45 c 0
 153 16 129 -8 100 -8 c 0
 71 -8 47 16 47 45 c 0
EndSplineSet
EndChar

StartChar: Ecircumflex
Encoding: 202 202 150
Width: 200
Flags: HMW
LayerCount: 3
Fore
SplineSet
47 45 m 0
 47 74 71 98 100 98 c 0
 129 98 153 74 153 45 c 0
 153 16 129 -8 100 -8 c 0
 71 -8 47 16 47 45 c 0
EndSplineSet
EndChar

StartChar: Edieresis
Encoding: 203 203 151
Width: 200
Flags: HMW
LayerCount: 3
Fore
SplineSet
47 45 m 0
 47 74 71 98 100 98 c 0
 129 98 153 74 153 45 c 0
 153 16 129 -8 100 -8 c 0
 71 -8 47 16 47 45 c 0
EndSplineSet
EndChar

StartChar: Igrave
Encoding: 204 204 152
Width: 200
Flags: HMW
LayerCount: 3
Fore
SplineSet
47 45 m 0
 47 74 71 98 100 98 c 0
 129 98 153 74 153 45 c 0
 153 16 129 -8 100 -8 c 0
 71 -8 47 16 47 45 c 0
EndSplineSet
EndChar

StartChar: Iacute
Encoding: 205 205 153
Width: 200
Flags: HMW
LayerCount: 3
Fore
SplineSet
47 45 m 0
 47 74 71 98 100 98 c 0
 129 98 153 74 153 45 c 0
 153 16 129 -8 100 -8 c 0
 71 -8 47 16 47 45 c 0
EndSplineSet
EndChar

StartChar: Icircumflex
Encoding: 206 206 154
Width: 200
Flags: HMW
LayerCount: 3
Fore
SplineSet
47 45 m 0
 47 74 71 98 100 98 c 0
 129 98 153 74 153 45 c 0
 153 16 129 -8 100 -8 c 0
 71 -8 47 16 47 45 c 0
EndSplineSet
EndChar

StartChar: Idieresis
Encoding: 207 207 155
Width: 200
Flags: HMW
LayerCount: 3
Fore
SplineSet
47 45 m 0
 47 74 71 98 100 98 c 0
 129 98 153 74 153 45 c 0
 153 16 129 -8 100 -8 c 0
 71 -8 47 16 47 45 c 0
EndSplineSet
EndChar

StartChar: Eth
Encoding: 208 208 156
Width: 723
Flags: HMW
LayerCount: 3
Back
SplineSet
315 642 m 2
 522 642 689 530 689 332 c 0
 689 140 545 0 325 0 c 2
 38 0 l 1
 38 32 l 1
 115 32 l 1
 115 315 l 1
 47 315 l 1
 47 350 l 1
 115 350 l 1
 115 608 l 1
 38 608 l 1
 38 640 l 1
 315 642 l 2
305 605 m 2
 195 605 l 1
 195 350 l 1
 325 350 l 1
 325 315 l 1
 195 315 l 1
 195 80 l 2
 195 52 210 38 240 38 c 2
 322 38 l 2
 494 38 597 150 597 320 c 0
 597 505 479 605 305 605 c 2
EndSplineSet
Fore
SplineSet
315 642 m 2
 522 642 689 530 689 332 c 0
 689 140 545 0 325 0 c 2
 33 0 l 1
 33 40 l 1
 115 40 l 1
 115 314 l 1
 46 314 l 1
 46 351 l 1
 115 351 l 1
 115 600 l 1
 33 600 l 1
 33 640 l 1
 315 642 l 2
305 603 m 2
 195 603 l 1
 195 351 l 1
 325 351 l 1
 325 314 l 1
 195 314 l 1
 195 82 l 2
 195 54 210 40 240 40 c 2
 322 40 l 2
 494 40 597 150 597 320 c 0
 597 505 479 603 305 603 c 2
EndSplineSet
Layer: 2
SplineSet
310 642 m 2
 515 642 684 530 684 332 c 0
 684 140 537 0 320 0 c 2
 35 0 l 1
 35 34 l 1
 110 34 l 1
 110 606 l 1
 35 606 l 1
 35 640 l 1
 310 642 l 2
300 605 m 2
 190 605 l 1
 190 80 l 2
 190 52 205 38 235 38 c 2
 317 38 l 2
 485 38 592 150 592 320 c 0
 592 505 472 605 300 605 c 2
EndSplineSet
EndChar

StartChar: Ntilde
Encoding: 209 209 157
Width: 200
Flags: HMW
LayerCount: 3
Fore
SplineSet
47 45 m 0
 47 74 71 98 100 98 c 0
 129 98 153 74 153 45 c 0
 153 16 129 -8 100 -8 c 0
 71 -8 47 16 47 45 c 0
EndSplineSet
EndChar

StartChar: Ograve
Encoding: 210 210 158
Width: 200
Flags: HMW
LayerCount: 3
Fore
SplineSet
47 45 m 0
 47 74 71 98 100 98 c 0
 129 98 153 74 153 45 c 0
 153 16 129 -8 100 -8 c 0
 71 -8 47 16 47 45 c 0
EndSplineSet
EndChar

StartChar: Oacute
Encoding: 211 211 159
Width: 200
Flags: HMW
LayerCount: 3
Fore
SplineSet
47 45 m 0
 47 74 71 98 100 98 c 0
 129 98 153 74 153 45 c 0
 153 16 129 -8 100 -8 c 0
 71 -8 47 16 47 45 c 0
EndSplineSet
EndChar

StartChar: Ocircumflex
Encoding: 212 212 160
Width: 200
Flags: HMW
LayerCount: 3
Fore
SplineSet
47 45 m 0
 47 74 71 98 100 98 c 0
 129 98 153 74 153 45 c 0
 153 16 129 -8 100 -8 c 0
 71 -8 47 16 47 45 c 0
EndSplineSet
EndChar

StartChar: Otilde
Encoding: 213 213 161
Width: 200
Flags: HMW
LayerCount: 3
Fore
SplineSet
47 45 m 0
 47 74 71 98 100 98 c 0
 129 98 153 74 153 45 c 0
 153 16 129 -8 100 -8 c 0
 71 -8 47 16 47 45 c 0
EndSplineSet
EndChar

StartChar: Odieresis
Encoding: 214 214 162
Width: 200
Flags: HMW
LayerCount: 3
Fore
SplineSet
47 45 m 0
 47 74 71 98 100 98 c 0
 129 98 153 74 153 45 c 0
 153 16 129 -8 100 -8 c 0
 71 -8 47 16 47 45 c 0
EndSplineSet
EndChar

StartChar: multiply
Encoding: 215 215 163
Width: 200
Flags: HMW
LayerCount: 3
Fore
SplineSet
47 45 m 0
 47 74 71 98 100 98 c 0
 129 98 153 74 153 45 c 0
 153 16 129 -8 100 -8 c 0
 71 -8 47 16 47 45 c 0
EndSplineSet
EndChar

StartChar: Oslash
Encoding: 216 216 164
Width: 200
Flags: HMW
LayerCount: 3
Fore
SplineSet
47 45 m 0
 47 74 71 98 100 98 c 0
 129 98 153 74 153 45 c 0
 153 16 129 -8 100 -8 c 0
 71 -8 47 16 47 45 c 0
EndSplineSet
EndChar

StartChar: Ugrave
Encoding: 217 217 165
Width: 200
Flags: HMW
LayerCount: 3
Fore
SplineSet
47 45 m 0
 47 74 71 98 100 98 c 0
 129 98 153 74 153 45 c 0
 153 16 129 -8 100 -8 c 0
 71 -8 47 16 47 45 c 0
EndSplineSet
EndChar

StartChar: Uacute
Encoding: 218 218 166
Width: 200
Flags: HMW
LayerCount: 3
Fore
SplineSet
47 45 m 0
 47 74 71 98 100 98 c 0
 129 98 153 74 153 45 c 0
 153 16 129 -8 100 -8 c 0
 71 -8 47 16 47 45 c 0
EndSplineSet
EndChar

StartChar: Ucircumflex
Encoding: 219 219 167
Width: 200
Flags: HMW
LayerCount: 3
Fore
SplineSet
47 45 m 0
 47 74 71 98 100 98 c 0
 129 98 153 74 153 45 c 0
 153 16 129 -8 100 -8 c 0
 71 -8 47 16 47 45 c 0
EndSplineSet
EndChar

StartChar: Udieresis
Encoding: 220 220 168
Width: 200
Flags: HMW
LayerCount: 3
Fore
SplineSet
47 45 m 0
 47 74 71 98 100 98 c 0
 129 98 153 74 153 45 c 0
 153 16 129 -8 100 -8 c 0
 71 -8 47 16 47 45 c 0
EndSplineSet
EndChar

StartChar: Yacute
Encoding: 221 221 169
Width: 200
Flags: HMW
LayerCount: 3
Fore
SplineSet
47 45 m 0
 47 74 71 98 100 98 c 0
 129 98 153 74 153 45 c 0
 153 16 129 -8 100 -8 c 0
 71 -8 47 16 47 45 c 0
EndSplineSet
EndChar

StartChar: Thorn
Encoding: 222 222 170
Width: 505
Flags: HMW
LayerCount: 3
Back
SplineSet
28 608 m 1
 28 640 l 1
 262 640 l 1
 262 608 l 1
 185 608 l 1
 185 520 l 1
 245 520 l 2
 385 520 489 455 489 345 c 0
 489 210 368 143 233 143 c 0
 228 143 220 144 215 145 c 1
 215 177 l 1
 235 177 l 2
 330 177 400 230 400 330 c 0
 400 430 340 485 235 485 c 2
 210 485 l 2
 192 485 185 478 185 460 c 2
 185 32 l 1
 265 32 l 1
 265 0 l 1
 28 0 l 1
 28 32 l 1
 105 32 l 1
 105 608 l 1
 28 608 l 1
EndSplineSet
Fore
SplineSet
28 600 m 1
 28 640 l 1
 272 640 l 1
 272 600 l 1
 190 600 l 1
 190 520 l 1
 250 520 l 2
 390 520 494 455 494 345 c 0
 494 210 373 143 238 143 c 0
 233 143 225 144 220 145 c 1
 220 177 l 1
 240 177 l 2
 335 177 405 230 405 330 c 0
 405 429 345 483 240 483 c 2
 215 483 l 2
 197 483 190 476 190 458 c 2
 190 40 l 1
 275 40 l 1
 275 0 l 1
 28 0 l 1
 28 40 l 1
 110 40 l 1
 110 600 l 1
 28 600 l 1
EndSplineSet
EndChar

StartChar: agrave
Encoding: 224 224 171
Width: 200
Flags: HMW
LayerCount: 3
Fore
SplineSet
47 45 m 0
 47 74 71 98 100 98 c 0
 129 98 153 74 153 45 c 0
 153 16 129 -8 100 -8 c 0
 71 -8 47 16 47 45 c 0
EndSplineSet
EndChar

StartChar: aacute
Encoding: 225 225 172
Width: 200
Flags: HMW
LayerCount: 3
Fore
SplineSet
47 45 m 0
 47 74 71 98 100 98 c 0
 129 98 153 74 153 45 c 0
 153 16 129 -8 100 -8 c 0
 71 -8 47 16 47 45 c 0
EndSplineSet
EndChar

StartChar: acircumflex
Encoding: 226 226 173
Width: 200
Flags: HMW
LayerCount: 3
Fore
SplineSet
47 45 m 0
 47 74 71 98 100 98 c 0
 129 98 153 74 153 45 c 0
 153 16 129 -8 100 -8 c 0
 71 -8 47 16 47 45 c 0
EndSplineSet
EndChar

StartChar: atilde
Encoding: 227 227 174
Width: 200
Flags: HMW
LayerCount: 3
Fore
SplineSet
47 45 m 0
 47 74 71 98 100 98 c 0
 129 98 153 74 153 45 c 0
 153 16 129 -8 100 -8 c 0
 71 -8 47 16 47 45 c 0
EndSplineSet
EndChar

StartChar: adieresis
Encoding: 228 228 175
Width: 200
Flags: HMW
LayerCount: 3
Fore
SplineSet
47 45 m 0
 47 74 71 98 100 98 c 0
 129 98 153 74 153 45 c 0
 153 16 129 -8 100 -8 c 0
 71 -8 47 16 47 45 c 0
EndSplineSet
EndChar

StartChar: aring
Encoding: 229 229 176
Width: 200
Flags: HMW
LayerCount: 3
Fore
SplineSet
47 45 m 0
 47 74 71 98 100 98 c 0
 129 98 153 74 153 45 c 0
 153 16 129 -8 100 -8 c 0
 71 -8 47 16 47 45 c 0
EndSplineSet
EndChar

StartChar: ccedilla
Encoding: 231 231 177
Width: 200
Flags: HMW
LayerCount: 3
Fore
SplineSet
47 45 m 0
 47 74 71 98 100 98 c 0
 129 98 153 74 153 45 c 0
 153 16 129 -8 100 -8 c 0
 71 -8 47 16 47 45 c 0
EndSplineSet
EndChar

StartChar: egrave
Encoding: 232 232 178
Width: 200
Flags: HMW
LayerCount: 3
Fore
SplineSet
47 45 m 0
 47 74 71 98 100 98 c 0
 129 98 153 74 153 45 c 0
 153 16 129 -8 100 -8 c 0
 71 -8 47 16 47 45 c 0
EndSplineSet
EndChar

StartChar: eacute
Encoding: 233 233 179
Width: 200
Flags: HMW
LayerCount: 3
Fore
SplineSet
47 45 m 0
 47 74 71 98 100 98 c 0
 129 98 153 74 153 45 c 0
 153 16 129 -8 100 -8 c 0
 71 -8 47 16 47 45 c 0
EndSplineSet
EndChar

StartChar: ecircumflex
Encoding: 234 234 180
Width: 200
Flags: HMW
LayerCount: 3
Fore
SplineSet
47 45 m 0
 47 74 71 98 100 98 c 0
 129 98 153 74 153 45 c 0
 153 16 129 -8 100 -8 c 0
 71 -8 47 16 47 45 c 0
EndSplineSet
EndChar

StartChar: edieresis
Encoding: 235 235 181
Width: 200
Flags: HMW
LayerCount: 3
Fore
SplineSet
47 45 m 0
 47 74 71 98 100 98 c 0
 129 98 153 74 153 45 c 0
 153 16 129 -8 100 -8 c 0
 71 -8 47 16 47 45 c 0
EndSplineSet
EndChar

StartChar: igrave
Encoding: 236 236 182
Width: 200
Flags: HMW
LayerCount: 3
Fore
SplineSet
47 45 m 0
 47 74 71 98 100 98 c 0
 129 98 153 74 153 45 c 0
 153 16 129 -8 100 -8 c 0
 71 -8 47 16 47 45 c 0
EndSplineSet
EndChar

StartChar: iacute
Encoding: 237 237 183
Width: 200
Flags: HMW
LayerCount: 3
Fore
SplineSet
47 45 m 0
 47 74 71 98 100 98 c 0
 129 98 153 74 153 45 c 0
 153 16 129 -8 100 -8 c 0
 71 -8 47 16 47 45 c 0
EndSplineSet
EndChar

StartChar: icircumflex
Encoding: 238 238 184
Width: 200
Flags: HMW
LayerCount: 3
Fore
SplineSet
47 45 m 0
 47 74 71 98 100 98 c 0
 129 98 153 74 153 45 c 0
 153 16 129 -8 100 -8 c 0
 71 -8 47 16 47 45 c 0
EndSplineSet
EndChar

StartChar: idieresis
Encoding: 239 239 185
Width: 200
Flags: HMW
LayerCount: 3
Fore
SplineSet
47 45 m 0
 47 74 71 98 100 98 c 0
 129 98 153 74 153 45 c 0
 153 16 129 -8 100 -8 c 0
 71 -8 47 16 47 45 c 0
EndSplineSet
EndChar

StartChar: ntilde
Encoding: 241 241 186
Width: 200
Flags: HMW
LayerCount: 3
Fore
SplineSet
47 45 m 0
 47 74 71 98 100 98 c 0
 129 98 153 74 153 45 c 0
 153 16 129 -8 100 -8 c 0
 71 -8 47 16 47 45 c 0
EndSplineSet
EndChar

StartChar: ograve
Encoding: 242 242 187
Width: 200
Flags: HMW
LayerCount: 3
Fore
SplineSet
47 45 m 0
 47 74 71 98 100 98 c 0
 129 98 153 74 153 45 c 0
 153 16 129 -8 100 -8 c 0
 71 -8 47 16 47 45 c 0
EndSplineSet
EndChar

StartChar: oacute
Encoding: 243 243 188
Width: 200
Flags: HMW
LayerCount: 3
Fore
SplineSet
47 45 m 0
 47 74 71 98 100 98 c 0
 129 98 153 74 153 45 c 0
 153 16 129 -8 100 -8 c 0
 71 -8 47 16 47 45 c 0
EndSplineSet
EndChar

StartChar: ocircumflex
Encoding: 244 244 189
Width: 200
Flags: HMW
LayerCount: 3
Fore
SplineSet
47 45 m 0
 47 74 71 98 100 98 c 0
 129 98 153 74 153 45 c 0
 153 16 129 -8 100 -8 c 0
 71 -8 47 16 47 45 c 0
EndSplineSet
EndChar

StartChar: otilde
Encoding: 245 245 190
Width: 200
Flags: HMW
LayerCount: 3
Fore
SplineSet
47 45 m 0
 47 74 71 98 100 98 c 0
 129 98 153 74 153 45 c 0
 153 16 129 -8 100 -8 c 0
 71 -8 47 16 47 45 c 0
EndSplineSet
EndChar

StartChar: odieresis
Encoding: 246 246 191
Width: 200
Flags: HMW
LayerCount: 3
Fore
SplineSet
47 45 m 0
 47 74 71 98 100 98 c 0
 129 98 153 74 153 45 c 0
 153 16 129 -8 100 -8 c 0
 71 -8 47 16 47 45 c 0
EndSplineSet
EndChar

StartChar: divide
Encoding: 247 247 192
Width: 200
Flags: HMW
LayerCount: 3
Fore
SplineSet
47 45 m 0
 47 74 71 98 100 98 c 0
 129 98 153 74 153 45 c 0
 153 16 129 -8 100 -8 c 0
 71 -8 47 16 47 45 c 0
EndSplineSet
EndChar

StartChar: ugrave
Encoding: 249 249 193
Width: 200
Flags: HMW
LayerCount: 3
Fore
SplineSet
47 45 m 0
 47 74 71 98 100 98 c 0
 129 98 153 74 153 45 c 0
 153 16 129 -8 100 -8 c 0
 71 -8 47 16 47 45 c 0
EndSplineSet
EndChar

StartChar: uacute
Encoding: 250 250 194
Width: 200
Flags: HMW
LayerCount: 3
Fore
SplineSet
47 45 m 0
 47 74 71 98 100 98 c 0
 129 98 153 74 153 45 c 0
 153 16 129 -8 100 -8 c 0
 71 -8 47 16 47 45 c 0
EndSplineSet
EndChar

StartChar: ucircumflex
Encoding: 251 251 195
Width: 200
Flags: HMW
LayerCount: 3
Fore
SplineSet
47 45 m 0
 47 74 71 98 100 98 c 0
 129 98 153 74 153 45 c 0
 153 16 129 -8 100 -8 c 0
 71 -8 47 16 47 45 c 0
EndSplineSet
EndChar

StartChar: udieresis
Encoding: 252 252 196
Width: 200
Flags: HMW
LayerCount: 3
Fore
SplineSet
47 45 m 0
 47 74 71 98 100 98 c 0
 129 98 153 74 153 45 c 0
 153 16 129 -8 100 -8 c 0
 71 -8 47 16 47 45 c 0
EndSplineSet
EndChar

StartChar: yacute
Encoding: 253 253 197
Width: 200
Flags: HMW
LayerCount: 3
Fore
SplineSet
47 45 m 0
 47 74 71 98 100 98 c 0
 129 98 153 74 153 45 c 0
 153 16 129 -8 100 -8 c 0
 71 -8 47 16 47 45 c 0
EndSplineSet
EndChar

StartChar: ydieresis
Encoding: 255 255 198
Width: 200
Flags: HMW
LayerCount: 3
Fore
SplineSet
47 45 m 0
 47 74 71 98 100 98 c 0
 129 98 153 74 153 45 c 0
 153 16 129 -8 100 -8 c 0
 71 -8 47 16 47 45 c 0
EndSplineSet
EndChar

StartChar: Amacron
Encoding: 256 256 199
Width: 200
Flags: HMW
LayerCount: 3
Fore
SplineSet
47 45 m 0
 47 74 71 98 100 98 c 0
 129 98 153 74 153 45 c 0
 153 16 129 -8 100 -8 c 0
 71 -8 47 16 47 45 c 0
EndSplineSet
EndChar

StartChar: amacron
Encoding: 257 257 200
Width: 200
Flags: HMW
LayerCount: 3
Fore
SplineSet
47 45 m 0
 47 74 71 98 100 98 c 0
 129 98 153 74 153 45 c 0
 153 16 129 -8 100 -8 c 0
 71 -8 47 16 47 45 c 0
EndSplineSet
EndChar

StartChar: Emacron
Encoding: 274 274 201
Width: 200
Flags: HMW
LayerCount: 3
Fore
SplineSet
47 45 m 0
 47 74 71 98 100 98 c 0
 129 98 153 74 153 45 c 0
 153 16 129 -8 100 -8 c 0
 71 -8 47 16 47 45 c 0
EndSplineSet
EndChar

StartChar: emacron
Encoding: 275 275 202
Width: 200
Flags: HMW
LayerCount: 3
Fore
SplineSet
47 45 m 0
 47 74 71 98 100 98 c 0
 129 98 153 74 153 45 c 0
 153 16 129 -8 100 -8 c 0
 71 -8 47 16 47 45 c 0
EndSplineSet
EndChar

StartChar: Imacron
Encoding: 298 298 203
Width: 200
Flags: HMW
LayerCount: 3
Fore
SplineSet
47 45 m 0
 47 74 71 98 100 98 c 0
 129 98 153 74 153 45 c 0
 153 16 129 -8 100 -8 c 0
 71 -8 47 16 47 45 c 0
EndSplineSet
EndChar

StartChar: imacron
Encoding: 299 299 204
Width: 200
Flags: HMW
LayerCount: 3
Fore
SplineSet
47 45 m 0
 47 74 71 98 100 98 c 0
 129 98 153 74 153 45 c 0
 153 16 129 -8 100 -8 c 0
 71 -8 47 16 47 45 c 0
EndSplineSet
EndChar

StartChar: IJ
Encoding: 306 306 205
Width: 200
Flags: HMW
LayerCount: 3
Fore
SplineSet
47 45 m 0
 47 74 71 98 100 98 c 0
 129 98 153 74 153 45 c 0
 153 16 129 -8 100 -8 c 0
 71 -8 47 16 47 45 c 0
EndSplineSet
EndChar

StartChar: ij
Encoding: 307 307 206
Width: 200
Flags: HMW
LayerCount: 3
Fore
SplineSet
47 45 m 0
 47 74 71 98 100 98 c 0
 129 98 153 74 153 45 c 0
 153 16 129 -8 100 -8 c 0
 71 -8 47 16 47 45 c 0
EndSplineSet
EndChar

StartChar: Omacron
Encoding: 332 332 207
Width: 200
Flags: HMW
LayerCount: 3
Fore
SplineSet
47 45 m 0
 47 74 71 98 100 98 c 0
 129 98 153 74 153 45 c 0
 153 16 129 -8 100 -8 c 0
 71 -8 47 16 47 45 c 0
EndSplineSet
EndChar

StartChar: omacron
Encoding: 333 333 208
Width: 200
Flags: HMW
LayerCount: 3
Fore
SplineSet
47 45 m 0
 47 74 71 98 100 98 c 0
 129 98 153 74 153 45 c 0
 153 16 129 -8 100 -8 c 0
 71 -8 47 16 47 45 c 0
EndSplineSet
EndChar

StartChar: Umacron
Encoding: 362 362 209
Width: 200
Flags: HMW
LayerCount: 3
Fore
SplineSet
47 45 m 0
 47 74 71 98 100 98 c 0
 129 98 153 74 153 45 c 0
 153 16 129 -8 100 -8 c 0
 71 -8 47 16 47 45 c 0
EndSplineSet
EndChar

StartChar: umacron
Encoding: 363 363 210
Width: 200
Flags: HMW
LayerCount: 3
Fore
SplineSet
47 45 m 0
 47 74 71 98 100 98 c 0
 129 98 153 74 153 45 c 0
 153 16 129 -8 100 -8 c 0
 71 -8 47 16 47 45 c 0
EndSplineSet
EndChar

StartChar: quotesinglbase
Encoding: 8218 8218 211
Width: 200
Flags: HMW
LayerCount: 3
Fore
SplineSet
47 45 m 0
 47 74 71 98 100 98 c 0
 129 98 153 74 153 45 c 0
 153 16 129 -8 100 -8 c 0
 71 -8 47 16 47 45 c 0
EndSplineSet
EndChar

StartChar: quotereversed
Encoding: 8219 8219 212
Width: 200
Flags: HMW
LayerCount: 3
Fore
SplineSet
47 45 m 0
 47 74 71 98 100 98 c 0
 129 98 153 74 153 45 c 0
 153 16 129 -8 100 -8 c 0
 71 -8 47 16 47 45 c 0
EndSplineSet
EndChar

StartChar: dagger
Encoding: 8224 8224 213
Width: 200
Flags: HMW
LayerCount: 3
Fore
SplineSet
47 45 m 0
 47 74 71 98 100 98 c 0
 129 98 153 74 153 45 c 0
 153 16 129 -8 100 -8 c 0
 71 -8 47 16 47 45 c 0
EndSplineSet
EndChar

StartChar: daggerdbl
Encoding: 8225 8225 214
Width: 200
Flags: HMW
LayerCount: 3
Fore
SplineSet
47 45 m 0
 47 74 71 98 100 98 c 0
 129 98 153 74 153 45 c 0
 153 16 129 -8 100 -8 c 0
 71 -8 47 16 47 45 c 0
EndSplineSet
EndChar

StartChar: quotedblbase
Encoding: 8222 8222 215
Width: 200
Flags: HMW
LayerCount: 3
Fore
SplineSet
47 45 m 0
 47 74 71 98 100 98 c 0
 129 98 153 74 153 45 c 0
 153 16 129 -8 100 -8 c 0
 71 -8 47 16 47 45 c 0
EndSplineSet
EndChar

StartChar: uni201F
Encoding: 8223 8223 216
Width: 200
Flags: HMW
LayerCount: 3
Fore
SplineSet
47 45 m 0
 47 74 71 98 100 98 c 0
 129 98 153 74 153 45 c 0
 153 16 129 -8 100 -8 c 0
 71 -8 47 16 47 45 c 0
EndSplineSet
EndChar

StartChar: onedotenleader
Encoding: 8228 8228 217
Width: 200
Flags: HMW
LayerCount: 3
Fore
SplineSet
47 45 m 0
 47 74 71 98 100 98 c 0
 129 98 153 74 153 45 c 0
 153 16 129 -8 100 -8 c 0
 71 -8 47 16 47 45 c 0
EndSplineSet
EndChar

StartChar: twodotenleader
Encoding: 8229 8229 218
Width: 200
Flags: HMW
LayerCount: 3
Fore
SplineSet
47 45 m 0
 47 74 71 98 100 98 c 0
 129 98 153 74 153 45 c 0
 153 16 129 -8 100 -8 c 0
 71 -8 47 16 47 45 c 0
EndSplineSet
EndChar

StartChar: ellipsis
Encoding: 8230 8230 219
Width: 200
Flags: HMW
LayerCount: 3
Fore
SplineSet
47 45 m 0
 47 74 71 98 100 98 c 0
 129 98 153 74 153 45 c 0
 153 16 129 -8 100 -8 c 0
 71 -8 47 16 47 45 c 0
EndSplineSet
EndChar

StartChar: uni2027
Encoding: 8231 8231 220
Width: 200
Flags: HMW
LayerCount: 3
Fore
SplineSet
47 45 m 0
 47 74 71 98 100 98 c 0
 129 98 153 74 153 45 c 0
 153 16 129 -8 100 -8 c 0
 71 -8 47 16 47 45 c 0
EndSplineSet
EndChar

StartChar: exclamdbl
Encoding: 8252 8252 221
Width: 200
Flags: HMW
LayerCount: 3
Fore
SplineSet
47 45 m 0
 47 74 71 98 100 98 c 0
 129 98 153 74 153 45 c 0
 153 16 129 -8 100 -8 c 0
 71 -8 47 16 47 45 c 0
EndSplineSet
EndChar

StartChar: uni203D
Encoding: 8253 8253 222
Width: 200
Flags: HMW
LayerCount: 3
Fore
SplineSet
47 45 m 0
 47 74 71 98 100 98 c 0
 129 98 153 74 153 45 c 0
 153 16 129 -8 100 -8 c 0
 71 -8 47 16 47 45 c 0
EndSplineSet
EndChar

StartChar: uni2047
Encoding: 8263 8263 223
Width: 200
Flags: HMW
LayerCount: 3
Fore
SplineSet
47 45 m 0
 47 74 71 98 100 98 c 0
 129 98 153 74 153 45 c 0
 153 16 129 -8 100 -8 c 0
 71 -8 47 16 47 45 c 0
EndSplineSet
EndChar

StartChar: uni2048
Encoding: 8264 8264 224
Width: 200
Flags: HMW
LayerCount: 3
Fore
SplineSet
47 45 m 0
 47 74 71 98 100 98 c 0
 129 98 153 74 153 45 c 0
 153 16 129 -8 100 -8 c 0
 71 -8 47 16 47 45 c 0
EndSplineSet
EndChar

StartChar: uni2049
Encoding: 8265 8265 225
Width: 200
Flags: HMW
LayerCount: 3
Fore
SplineSet
47 45 m 0
 47 74 71 98 100 98 c 0
 129 98 153 74 153 45 c 0
 153 16 129 -8 100 -8 c 0
 71 -8 47 16 47 45 c 0
EndSplineSet
EndChar

StartChar: uni2074
Encoding: 8308 8308 226
Width: 200
Flags: HMW
LayerCount: 3
Fore
SplineSet
47 45 m 0
 47 74 71 98 100 98 c 0
 129 98 153 74 153 45 c 0
 153 16 129 -8 100 -8 c 0
 71 -8 47 16 47 45 c 0
EndSplineSet
EndChar

StartChar: uni2075
Encoding: 8309 8309 227
Width: 200
Flags: HMW
LayerCount: 3
Fore
SplineSet
47 45 m 0
 47 74 71 98 100 98 c 0
 129 98 153 74 153 45 c 0
 153 16 129 -8 100 -8 c 0
 71 -8 47 16 47 45 c 0
EndSplineSet
EndChar

StartChar: uni2076
Encoding: 8310 8310 228
Width: 200
Flags: HMW
LayerCount: 3
Fore
SplineSet
47 45 m 0
 47 74 71 98 100 98 c 0
 129 98 153 74 153 45 c 0
 153 16 129 -8 100 -8 c 0
 71 -8 47 16 47 45 c 0
EndSplineSet
EndChar

StartChar: uni2077
Encoding: 8311 8311 229
Width: 200
Flags: HMW
LayerCount: 3
Fore
SplineSet
47 45 m 0
 47 74 71 98 100 98 c 0
 129 98 153 74 153 45 c 0
 153 16 129 -8 100 -8 c 0
 71 -8 47 16 47 45 c 0
EndSplineSet
EndChar

StartChar: uni2078
Encoding: 8312 8312 230
Width: 200
Flags: HMW
LayerCount: 3
Fore
SplineSet
47 45 m 0
 47 74 71 98 100 98 c 0
 129 98 153 74 153 45 c 0
 153 16 129 -8 100 -8 c 0
 71 -8 47 16 47 45 c 0
EndSplineSet
EndChar

StartChar: uni2079
Encoding: 8313 8313 231
Width: 200
Flags: HMW
LayerCount: 3
Fore
SplineSet
47 45 m 0
 47 74 71 98 100 98 c 0
 129 98 153 74 153 45 c 0
 153 16 129 -8 100 -8 c 0
 71 -8 47 16 47 45 c 0
EndSplineSet
EndChar

StartChar: uni2080
Encoding: 8320 8320 232
Width: 200
Flags: HMW
LayerCount: 3
Fore
SplineSet
47 45 m 0
 47 74 71 98 100 98 c 0
 129 98 153 74 153 45 c 0
 153 16 129 -8 100 -8 c 0
 71 -8 47 16 47 45 c 0
EndSplineSet
EndChar

StartChar: uni2081
Encoding: 8321 8321 233
Width: 200
Flags: HMW
LayerCount: 3
Fore
SplineSet
47 45 m 0
 47 74 71 98 100 98 c 0
 129 98 153 74 153 45 c 0
 153 16 129 -8 100 -8 c 0
 71 -8 47 16 47 45 c 0
EndSplineSet
EndChar

StartChar: uni2082
Encoding: 8322 8322 234
Width: 200
Flags: HMW
LayerCount: 3
Fore
SplineSet
47 45 m 0
 47 74 71 98 100 98 c 0
 129 98 153 74 153 45 c 0
 153 16 129 -8 100 -8 c 0
 71 -8 47 16 47 45 c 0
EndSplineSet
EndChar

StartChar: uni2083
Encoding: 8323 8323 235
Width: 200
Flags: HMW
LayerCount: 3
Fore
SplineSet
47 45 m 0
 47 74 71 98 100 98 c 0
 129 98 153 74 153 45 c 0
 153 16 129 -8 100 -8 c 0
 71 -8 47 16 47 45 c 0
EndSplineSet
EndChar

StartChar: uni2084
Encoding: 8324 8324 236
Width: 200
Flags: HMW
LayerCount: 3
Fore
SplineSet
47 45 m 0
 47 74 71 98 100 98 c 0
 129 98 153 74 153 45 c 0
 153 16 129 -8 100 -8 c 0
 71 -8 47 16 47 45 c 0
EndSplineSet
EndChar

StartChar: uni2085
Encoding: 8325 8325 237
Width: 200
Flags: HMW
LayerCount: 3
Fore
SplineSet
47 45 m 0
 47 74 71 98 100 98 c 0
 129 98 153 74 153 45 c 0
 153 16 129 -8 100 -8 c 0
 71 -8 47 16 47 45 c 0
EndSplineSet
EndChar

StartChar: uni2086
Encoding: 8326 8326 238
Width: 200
Flags: HMW
LayerCount: 3
Fore
SplineSet
47 45 m 0
 47 74 71 98 100 98 c 0
 129 98 153 74 153 45 c 0
 153 16 129 -8 100 -8 c 0
 71 -8 47 16 47 45 c 0
EndSplineSet
EndChar

StartChar: uni2087
Encoding: 8327 8327 239
Width: 200
Flags: HMW
LayerCount: 3
Fore
SplineSet
47 45 m 0
 47 74 71 98 100 98 c 0
 129 98 153 74 153 45 c 0
 153 16 129 -8 100 -8 c 0
 71 -8 47 16 47 45 c 0
EndSplineSet
EndChar

StartChar: uni2088
Encoding: 8328 8328 240
Width: 200
Flags: HMW
LayerCount: 3
Fore
SplineSet
47 45 m 0
 47 74 71 98 100 98 c 0
 129 98 153 74 153 45 c 0
 153 16 129 -8 100 -8 c 0
 71 -8 47 16 47 45 c 0
EndSplineSet
EndChar

StartChar: uni2089
Encoding: 8329 8329 241
Width: 200
Flags: HMW
LayerCount: 3
Fore
SplineSet
47 45 m 0
 47 74 71 98 100 98 c 0
 129 98 153 74 153 45 c 0
 153 16 129 -8 100 -8 c 0
 71 -8 47 16 47 45 c 0
EndSplineSet
EndChar

StartChar: arrowleft
Encoding: 8592 8592 242
Width: 200
Flags: HMW
LayerCount: 3
Fore
SplineSet
47 45 m 0
 47 74 71 98 100 98 c 0
 129 98 153 74 153 45 c 0
 153 16 129 -8 100 -8 c 0
 71 -8 47 16 47 45 c 0
EndSplineSet
EndChar

StartChar: arrowup
Encoding: 8593 8593 243
Width: 200
Flags: HMW
LayerCount: 3
Fore
SplineSet
47 45 m 0
 47 74 71 98 100 98 c 0
 129 98 153 74 153 45 c 0
 153 16 129 -8 100 -8 c 0
 71 -8 47 16 47 45 c 0
EndSplineSet
EndChar

StartChar: arrowright
Encoding: 8594 8594 244
Width: 200
Flags: HMW
LayerCount: 3
Fore
SplineSet
47 45 m 0
 47 74 71 98 100 98 c 0
 129 98 153 74 153 45 c 0
 153 16 129 -8 100 -8 c 0
 71 -8 47 16 47 45 c 0
EndSplineSet
EndChar

StartChar: arrowdown
Encoding: 8595 8595 245
Width: 200
Flags: HMW
LayerCount: 3
Fore
SplineSet
47 45 m 0
 47 74 71 98 100 98 c 0
 129 98 153 74 153 45 c 0
 153 16 129 -8 100 -8 c 0
 71 -8 47 16 47 45 c 0
EndSplineSet
EndChar

StartChar: uni2196
Encoding: 8598 8598 246
Width: 200
Flags: HMW
LayerCount: 3
Fore
SplineSet
47 45 m 0
 47 74 71 98 100 98 c 0
 129 98 153 74 153 45 c 0
 153 16 129 -8 100 -8 c 0
 71 -8 47 16 47 45 c 0
EndSplineSet
EndChar

StartChar: uni2197
Encoding: 8599 8599 247
Width: 200
Flags: HMW
LayerCount: 3
Fore
SplineSet
47 45 m 0
 47 74 71 98 100 98 c 0
 129 98 153 74 153 45 c 0
 153 16 129 -8 100 -8 c 0
 71 -8 47 16 47 45 c 0
EndSplineSet
EndChar

StartChar: uni2198
Encoding: 8600 8600 248
Width: 200
Flags: HMW
LayerCount: 3
Fore
SplineSet
47 45 m 0
 47 74 71 98 100 98 c 0
 129 98 153 74 153 45 c 0
 153 16 129 -8 100 -8 c 0
 71 -8 47 16 47 45 c 0
EndSplineSet
EndChar

StartChar: uni2199
Encoding: 8601 8601 249
Width: 200
Flags: HMW
LayerCount: 3
Fore
SplineSet
47 45 m 0
 47 74 71 98 100 98 c 0
 129 98 153 74 153 45 c 0
 153 16 129 -8 100 -8 c 0
 71 -8 47 16 47 45 c 0
EndSplineSet
EndChar

StartChar: radical
Encoding: 8730 8730 250
Width: 200
Flags: HMW
LayerCount: 3
Fore
SplineSet
47 45 m 0
 47 74 71 98 100 98 c 0
 129 98 153 74 153 45 c 0
 153 16 129 -8 100 -8 c 0
 71 -8 47 16 47 45 c 0
EndSplineSet
EndChar

StartChar: uni2219
Encoding: 8729 8729 251
Width: 200
Flags: HMW
LayerCount: 3
Fore
SplineSet
47 45 m 0
 47 74 71 98 100 98 c 0
 129 98 153 74 153 45 c 0
 153 16 129 -8 100 -8 c 0
 71 -8 47 16 47 45 c 0
EndSplineSet
EndChar

StartChar: uni2766
Encoding: 10086 10086 252
Width: 200
Flags: HMW
LayerCount: 3
Fore
SplineSet
47 45 m 0
 47 74 71 98 100 98 c 0
 129 98 153 74 153 45 c 0
 153 16 129 -8 100 -8 c 0
 71 -8 47 16 47 45 c 0
EndSplineSet
EndChar

StartChar: uni2767
Encoding: 10087 10087 253
Width: 200
Flags: HMW
LayerCount: 3
Fore
SplineSet
47 45 m 0
 47 74 71 98 100 98 c 0
 129 98 153 74 153 45 c 0
 153 16 129 -8 100 -8 c 0
 71 -8 47 16 47 45 c 0
EndSplineSet
EndChar

StartChar: OE
Encoding: 338 338 254
Width: 925
Flags: HMW
LayerCount: 3
Back
SplineSet
490 57 m 1
 490 577 l 1
 455 602 410 614 361 614 c 0
 225 614 129 497 129 333 c 0
 129 150 235 27 379 27 c 0
 425 27 465 37 490 57 c 1
485 640 m 2
 860 640 l 1
 865 490 l 1
 836 490 l 1
 832 524 l 2
 824 590 802 604 760 604 c 2
 570 604 l 1
 570 352 l 1
 765 352 l 1
 765 420 l 1
 795 420 l 1
 795 335 l 1
 795 240 l 1
 765 240 l 1
 765 315 l 1
 570 315 l 1
 570 68 l 2
 570 48 580 38 600 38 c 2
 750 38 l 2
 810 38 838 62 862 147 c 2
 870 175 l 1
 900 175 l 1
 865 0 l 1
 485 0 l 2
 450 0 425 -10 370 -10 c 0
 183 -10 35 133 35 320 c 0
 35 507 183 650 370 650 c 0
 425 650 450 640 485 640 c 2
EndSplineSet
Fore
SplineSet
490 59 m 1
 490 575 l 1
 455 600 410 612 361 612 c 0
 225 612 129 497 129 333 c 0
 129 150 235 29 379 29 c 0
 425 29 465 39 490 59 c 1
485 640 m 2
 860 640 l 1
 865 488 l 1
 829 488 l 1
 825 522 l 2
 817 588 795 602 753 602 c 2
 570 602 l 1
 570 352 l 1
 757 352 l 1
 757 420 l 1
 795 420 l 1
 795 335 l 1
 795 240 l 1
 757 240 l 1
 757 313 l 1
 570 313 l 1
 570 70 l 2
 570 50 580 40 600 40 c 2
 743 40 l 2
 803 40 831 62 855 147 c 2
 863 175 l 1
 900 175 l 1
 865 0 l 1
 485 0 l 2
 450 0 425 -10 370 -10 c 0
 183 -10 35 133 35 320 c 0
 35 507 183 650 370 650 c 0
 425 650 450 640 485 640 c 2
EndSplineSet
EndChar

StartChar: uni1E9E
Encoding: 7838 7838 255
Width: 655
Flags: HMW
LayerCount: 3
Back
SplineSet
490 531 m 1
 462 575 409 615 342 615 c 0
 250 615 185 545 185 450 c 2
 185 34 l 1
 257 34 l 1
 257 0 l 1
 28 0 l 1
 28 34 l 1
 105 34 l 1
 105 420 l 2
 105 550 205 650 352 650 c 0
 435 650 506 618 565 563 c 1
 565 560 l 1
 425 380 l 1
 567 310 631 240 631 155 c 0
 631 62 545 -14 435 -14 c 0
 385 -14 332 -2 293 22 c 1
 271 167 l 1
 303 167 l 1
 312 127 l 2
 328 56 371 21 442 21 c 0
 510 21 550 68 550 125 c 0
 550 201 488 268 342 333 c 1
 342 336 l 1
 490 531 l 1
EndSplineSet
Fore
SplineSet
490 531 m 1
 462 575 409 615 342 615 c 0
 250 615 185 545 185 450 c 2
 185 40 l 1
 257 40 l 1
 257 0 l 1
 23 0 l 1
 23 40 l 1
 105 40 l 1
 105 420 l 2
 105 550 205 650 352 650 c 0
 435 650 506 618 565 563 c 1
 565 560 l 1
 425 380 l 1
 567 310 631 240 631 155 c 0
 631 62 545 -14 435 -14 c 0
 385 -14 332 -2 293 22 c 1
 271 167 l 1
 308 167 l 1
 317 127 l 2
 333 56 373 21 442 21 c 0
 510 21 550 68 550 125 c 0
 550 201 488 268 342 333 c 1
 342 336 l 1
 490 531 l 1
EndSplineSet
EndChar

StartChar: afii00208
Encoding: 8213 8213 256
Width: 1500
Flags: HMW
LayerCount: 3
Fore
SplineSet
0 230 m 1
 1500 230 l 1
 1500 185 l 1
 0 185 l 1
 0 230 l 1
EndSplineSet
EndChar

StartChar: guilsinglright
Encoding: 8250 8250 257
Width: 240
Flags: HMW
LayerCount: 3
Fore
SplineSet
220 213 m 1
 220 207 l 1
 50 35 l 1
 25 45 l 1
 135 208 l 1
 135 210 l 1
 25 375 l 1
 50 385 l 1
 220 213 l 1
EndSplineSet
EndChar

StartChar: guilsinglleft
Encoding: 8249 8249 258
Width: 200
Flags: HMW
LayerCount: 3
Fore
SplineSet
47 45 m 0
 47 74 71 98 100 98 c 0
 129 98 153 74 153 45 c 0
 153 16 129 -8 100 -8 c 0
 71 -8 47 16 47 45 c 0
EndSplineSet
EndChar

StartChar: uniFB00
Encoding: 64256 64256 259
Width: 550
Flags: HMW
LayerCount: 3
Back
SplineSet
609 617 m 1
 587 631 557 640 534 640 c 0
 476 640 431 600 431 475 c 2
 431 400 l 1
 546 400 l 1
 541 357 l 1
 431 357 l 1
 431 32 l 1
 516 32 l 1
 516 0 l 1
 301 0 l 1
 301 32 l 1
 361 32 l 1
 361 359 l 1
 163 359 l 1
 163 32 l 1
 238 32 l 1
 238 0 l 1
 33 0 l 1
 33 32 l 1
 93 32 l 1
 93 357 l 1
 35 357 l 1
 35 378 l 1
 93 404 l 1
 93 410 l 2
 93 550 217 664 323 664 c 0
 365 664 404 646 431 625 c 1
 433 625 l 1
 474 671 527 698 571 698 c 0
 596 698 622 690 641 676 c 1
 611 617 l 1
 609 617 l 1
397 572 m 1
 371 596 332 611 293 611 c 0
 218 611 163 564 163 445 c 2
 163 399 l 1
 346 399 l 1
 361 406 l 1
 361 435 l 2
 361 487 375 534 397 572 c 1
EndSplineSet
Fore
SplineSet
611 622 m 1
 589 636 559 645 536 645 c 0
 478 645 433 605 433 480 c 2
 433 400 l 1
 550 400 l 1
 545 355 l 1
 433 355 l 1
 433 38 l 1
 523 38 l 1
 523 0 l 1
 299 0 l 1
 299 38 l 1
 363 38 l 1
 363 357 l 1
 165 357 l 1
 165 38 l 1
 248 38 l 1
 248 0 l 1
 31 0 l 1
 31 38 l 1
 95 38 l 1
 95 355 l 1
 35 355 l 1
 35 378 l 1
 95 405 l 1
 95 415 l 2
 95 555 219 669 325 669 c 0
 367 669 406 651 433 630 c 1
 435 630 l 1
 476 676 529 703 573 703 c 0
 598 703 624 695 643 681 c 1
 613 622 l 1
 611 622 l 1
399 577 m 1
 373 601 334 616 295 616 c 0
 220 616 165 569 165 450 c 2
 165 399 l 1
 348 399 l 1
 363 406 l 1
 363 440 l 2
 363 492 377 539 399 577 c 1
EndSplineSet
Layer: 2
SplineSet
397 577 m 1
 371 601 332 616 293 616 c 0
 218 616 163 569 163 450 c 2
 163 399 l 1
 346 399 l 1
 364 407 l 1
 364 357 l 1
 163 357 l 1
 163 34 l 1
 243 34 l 1
 243 0 l 1
 32 0 l 1
 32 34 l 1
 93 34 l 1
 93 357 l 1
 33 357 l 1
 33 378 l 1
 93 405 l 1
 93 415 l 2
 93 555 217 669 323 669 c 0
 365 669 404 651 431 630 c 1
 435 630 l 1
 397 577 l 1
EndSplineSet
LCarets2: 1 0
Ligature2: "'liga' Standard Ligatures in Latin lookup 1-1" f f
EndChar

StartChar: uniFB01
Encoding: 64257 64257 260
Width: 524
Flags: HMW
LayerCount: 3
Back
SplineSet
388 613 m 1
 362 633 327 647 288 647 c 0
 210 647 163 595 163 475 c 2
 163 399 l 1
 375 399 l 1
 423 415 l 1
 433 415 l 1
 433 34 l 1
 505 34 l 1
 505 0 l 1
 300 0 l 1
 300 34 l 1
 363 34 l 1
 363 330 l 1
 338 359 l 1
 163 359 l 1
 163 34 l 1
 243 34 l 1
 243 0 l 1
 32 0 l 1
 32 34 l 1
 93 34 l 1
 93 357 l 1
 33 357 l 1
 33 378 l 1
 93 405 l 1
 93 430 l 2
 93 590 211 703 330 703 c 0
 366 703 401 691 428 672 c 1
 390 613 l 1
 388 613 l 1
EndSplineSet
Fore
SplineSet
390 613 m 1
 364 633 329 647 290 647 c 0
 212 647 165 595 165 475 c 2
 165 399 l 1
 377 399 l 1
 425 415 l 1
 435 415 l 1
 435 38 l 1
 512 38 l 1
 512 0 l 1
 294 0 l 1
 294 38 l 1
 365 38 l 1
 365 328 l 1
 340 357 l 1
 165 357 l 1
 165 38 l 1
 248 38 l 1
 248 0 l 1
 31 0 l 1
 31 38 l 1
 95 38 l 1
 95 355 l 1
 35 355 l 1
 35 378 l 1
 95 405 l 1
 95 430 l 2
 95 590 213 703 332 703 c 0
 368 703 403 691 430 672 c 1
 392 613 l 1
 390 613 l 1
EndSplineSet
Layer: 2
SplineSet
390 359 m 1
 163 359 l 1
 163 34 l 1
 243 34 l 1
 243 0 l 1
 32 0 l 1
 32 34 l 1
 93 34 l 1
 93 357 l 1
 33 357 l 1
 33 378 l 1
 93 405 l 1
 93 430 l 2
 93 590 211 703 330 703 c 0
 366 703 401 691 428 672 c 1
 390 613 l 1
 388 613 l 1
 362 633 327 647 288 647 c 0
 210 647 163 595 163 475 c 2
 163 399 l 1
 390 399 l 1
 390 359 l 1
EndSplineSet
LCarets2: 1 0
Ligature2: "'liga' Standard Ligatures in Latin lookup 1-1" f i
EndChar

StartChar: uniFB02
Encoding: 64258 64258 261
Width: 525
Flags: HMW
LayerCount: 3
Back
SplineSet
369 613 m 1
 350 630 317 639 287 639 c 0
 212 639 162 590 162 466 c 2
 162 400 l 1
 272 400 l 1
 267 357 l 1
 162 357 l 1
 162 32 l 1
 242 32 l 1
 242 0 l 1
 32 0 l 1
 32 32 l 1
 92 32 l 1
 92 357 l 1
 34 357 l 1
 34 378 l 1
 92 404 l 1
 92 425 l 2
 92 583 217 695 322 695 c 0
 338 695 357 692 370 687 c 1
 429 710 l 1
 439 710 l 1
 439 32 l 1
 511 32 l 1
 511 0 l 1
 302 0 l 1
 302 32 l 1
 369 32 l 1
 369 613 l 1
EndSplineSet
Fore
SplineSet
370 613 m 1
 351 630 319 639 289 639 c 0
 214 639 165 590 165 466 c 2
 165 400 l 1
 275 400 l 1
 270 355 l 1
 165 355 l 1
 165 38 l 1
 247 38 l 1
 247 0 l 1
 32 0 l 1
 32 38 l 1
 95 38 l 1
 95 355 l 1
 35 355 l 1
 35 378 l 1
 95 405 l 1
 95 425 l 2
 95 583 219 695 324 695 c 0
 339 695 358 692 371 687 c 1
 430 712 l 1
 440 712 l 1
 440 38 l 1
 517 38 l 1
 517 0 l 1
 298 0 l 1
 298 38 l 1
 370 38 l 1
 370 613 l 1
EndSplineSet
Layer: 2
SplineSet
371 612 m 1
 350 630 315 639 287 639 c 0
 212 639 163 590 163 466 c 2
 163 400 l 1
 273 400 l 1
 268 357 l 1
 163 357 l 1
 163 34 l 1
 243 34 l 1
 243 0 l 1
 33 0 l 1
 33 34 l 1
 93 34 l 1
 93 357 l 1
 33 357 l 1
 33 378 l 1
 93 405 l 1
 93 425 l 2
 93 583 217 695 322 695 c 0
 342 695 364 690 380 682 c 1
 371 612 l 1
EndSplineSet
LCarets2: 1 0
Ligature2: "'liga' Standard Ligatures in Latin lookup 1-1" f l
EndChar

StartChar: uniFB03
Encoding: 64259 64259 262
Width: 792
Flags: HMW
LayerCount: 3
Back
SplineSet
341 622 m 1
 319 636 289 645 266 645 c 0
 208 645 163 605 163 480 c 2
 163 400 l 1
 280 400 l 1
 275 357 l 1
 163 357 l 1
 163 34 l 1
 248 34 l 1
 248 0 l 1
 32 0 l 1
 32 34 l 1
 93 34 l 1
 93 357 l 1
 33 357 l 1
 33 378 l 1
 93 405 l 1
 93 440 l 2
 93 600 218 703 303 703 c 0
 328 703 354 695 373 681 c 1
 343 622 l 1
 341 622 l 1
656 613 m 1
 630 633 595 647 556 647 c 0
 478 647 431 595 431 475 c 2
 431 399 l 1
 643 399 l 1
 691 415 l 1
 701 415 l 1
 701 34 l 1
 776 34 l 1
 776 0 l 1
 560 0 l 1
 560 34 l 1
 631 34 l 1
 631 330 l 1
 606 359 l 1
 431 359 l 1
 431 34 l 1
 511 34 l 1
 511 0 l 1
 300 0 l 1
 300 34 l 1
 361 34 l 1
 361 357 l 1
 301 357 l 1
 301 378 l 1
 361 405 l 1
 361 430 l 2
 361 590 479 703 598 703 c 0
 634 703 669 691 696 672 c 1
 658 613 l 1
 656 613 l 1
EndSplineSet
Fore
SplineSet
401 575 m 1
 375 600 335 616 295 616 c 0
 220 616 165 570 165 450 c 2
 165 399 l 1
 348 399 l 1
 363 406 l 1
 363 430 l 2
 363 485 377 534 401 575 c 1
658 613 m 1
 632 633 597 647 558 647 c 0
 480 647 433 595 433 475 c 2
 433 399 l 1
 645 399 l 1
 693 415 l 1
 703 415 l 1
 703 38 l 1
 782 38 l 1
 782 0 l 1
 562 0 l 1
 562 38 l 1
 633 38 l 1
 633 328 l 1
 608 357 l 1
 433 357 l 1
 433 38 l 1
 510 38 l 1
 510 0 l 1
 299 0 l 1
 299 38 l 1
 363 38 l 1
 363 357 l 1
 165 357 l 1
 165 38 l 1
 247 38 l 1
 247 0 l 1
 31 0 l 1
 31 38 l 1
 95 38 l 1
 95 355 l 1
 37 355 l 1
 37 378 l 1
 95 404 l 1
 95 415 l 2
 95 555 219 669 325 669 c 0
 366 669 405 652 436 627 c 1
 438 627 l 1
 481 675 541 703 600 703 c 0
 636 703 671 691 698 672 c 1
 660 613 l 1
 658 613 l 1
EndSplineSet
Layer: 2
SplineSet
399 570 m 1
 373 595 333 611 293 611 c 0
 218 611 163 565 163 445 c 2
 163 399 l 1
 346 399 l 1
 361 406 l 1
 361 425 l 2
 361 480 375 529 399 570 c 1
656 608 m 1
 630 628 595 642 556 642 c 0
 478 642 431 590 431 470 c 2
 431 399 l 1
 643 399 l 1
 691 415 l 1
 701 415 l 1
 701 32 l 1
 773 32 l 1
 773 0 l 1
 568 0 l 1
 568 32 l 1
 631 32 l 1
 631 330 l 1
 606 359 l 1
 431 359 l 1
 431 32 l 1
 506 32 l 1
 506 0 l 1
 301 0 l 1
 301 32 l 1
 361 32 l 1
 361 359 l 1
 163 359 l 1
 163 32 l 1
 238 32 l 1
 238 0 l 1
 33 0 l 1
 33 32 l 1
 93 32 l 1
 93 357 l 1
 35 357 l 1
 35 378 l 1
 93 404 l 1
 93 410 l 2
 93 550 217 664 323 664 c 0
 364 664 403 647 434 622 c 1
 436 622 l 1
 479 670 539 698 598 698 c 0
 634 698 669 686 696 667 c 1
 658 608 l 1
 656 608 l 1
EndSplineSet
LCarets2: 2 0 0
Ligature2: "'liga' Standard Ligatures in Latin lookup 1-1" f f i
EndChar

StartChar: uniFB04
Encoding: 64260 64260 263
Width: 793
Flags: HMW
LayerCount: 3
Back
SplineSet
636 613 m 1
 617 630 585 639 555 639 c 0
 480 639 431 590 431 466 c 2
 431 400 l 1
 541 400 l 1
 536 357 l 1
 431 357 l 1
 431 34 l 1
 511 34 l 1
 511 0 l 1
 301 0 l 1
 301 34 l 1
 361 34 l 1
 361 357 l 1
 301 357 l 1
 301 378 l 1
 361 405 l 1
 361 425 l 2
 361 583 485 695 590 695 c 0
 605 695 624 692 637 687 c 1
 696 712 l 1
 706 712 l 1
 706 34 l 1
 780 34 l 1
 780 0 l 1
 710.333007812 0 636.666992188 0 567 0 c 1
 567 34 l 1
 636 34 l 1
 636 613 l 1
341 622 m 1
 319 636 289 645 266 645 c 0
 208 645 163 605 163 480 c 2
 163 400 l 1
 280 400 l 1
 275 357 l 5
 163 357 l 1
 163 34 l 1
 248 34 l 1
 248 0 l 1
 32 0 l 1
 32 34 l 1
 93 34 l 1
 93 357 l 1
 33 357 l 1
 33 378 l 1
 93 405 l 1
 93 440 l 2
 93 600 218 703 303 703 c 0
 328 703 354 695 373 681 c 1
 343 622 l 1
 341 622 l 1
EndSplineSet
Fore
SplineSet
638 613 m 1
 619 630 587 639 557 639 c 0
 482 639 433 590 433 466 c 2
 433 400 l 1
 543 400 l 1
 538 355 l 1
 433 355 l 1
 433 38 l 1
 520 38 l 1
 520 0 l 1
 300 0 l 1
 300 38 l 1
 363 38 l 1
 363 357 l 1
 165 357 l 1
 165 38 l 1
 247 38 l 1
 247 0 l 1
 32 0 l 1
 32 38 l 1
 95 38 l 1
 95 355 l 1
 36 355 l 1
 36 378 l 1
 95 405 l 1
 95 410 l 2
 95 550 220 663 325 663 c 0
 366 663 407 648 439 622 c 1
 441 622 l 1
 484 667 540 695 592 695 c 0
 607 695 626 692 639 687 c 1
 698 712 l 1
 708 712 l 1
 708 38 l 1
 784 38 l 1
 784 0 l 1
 567 0 l 1
 567 38 l 1
 638 38 l 1
 638 613 l 1
403 570 m 1
 375 596 335 610 295 610 c 0
 220 610 165 565 165 445 c 2
 165 399 l 1
 348 399 l 1
 363 406 l 1
 363 425 l 2
 363 480 379 530 403 570 c 1
EndSplineSet
Layer: 2
SplineSet
638 613 m 1
 619 630 586 639 556 639 c 0
 481 639 431 590 431 466 c 2
 431 400 l 1
 541 400 l 1
 536 357 l 1
 431 357 l 1
 431 32 l 1
 511 32 l 1
 511 0 l 1
 301 0 l 1
 301 32 l 1
 361 32 l 1
 361 359 l 1
 163 359 l 1
 163 32 l 1
 238 32 l 1
 238 0 l 1
 33 0 l 1
 33 32 l 1
 93 32 l 1
 93 357 l 1
 35 357 l 1
 35 378 l 1
 93 404 l 1
 93 410 l 2
 93 550 218 663 323 663 c 0
 364 663 405 648 437 622 c 1
 439 622 l 1
 482 667 539 695 591 695 c 0
 607 695 626 692 639 687 c 1
 698 710 l 1
 708 710 l 1
 708 32 l 1
 780 32 l 1
 780 0 l 1
 571 0 l 1
 571 32 l 1
 638 32 l 1
 638 613 l 1
401 570 m 1
 373 596 333 610 293 610 c 0
 218 610 163 565 163 445 c 2
 163 399 l 1
 346 399 l 1
 361 406 l 1
 361 425 l 2
 361 480 377 530 401 570 c 1
EndSplineSet
LCarets2: 2 0 0
Ligature2: "'liga' Standard Ligatures in Latin lookup 1-1" f f l
EndChar

StartChar: uniFB05
Encoding: 64261 64261 264
Width: 562
Flags: HMW
LayerCount: 3
Fore
SplineSet
396 522 m 0
 396 602 349 648 284 648 c 0
 214 648 165 602 165 477 c 2
 165 38 l 1
 247 38 l 1
 247 0 l 1
 32 0 l 1
 32 38 l 1
 95 38 l 1
 95 355 l 1
 35 355 l 1
 35 378 l 1
 95 405 l 1
 95 435 l 2
 95 595 217 698 309 698 c 0
 384 698 444 648 444 560 c 0
 444 530 431 492 419 470 c 9
 419 400 l 1
 552 400 l 1
 552 354 l 1
 419 354 l 1
 419 105 l 2
 419 64 441 42 473 42 c 0
 501 42 522 53 541 75 c 1
 557 60 l 1
 532 19 488 -14 438 -14 c 0
 382 -14 349 20 349 80 c 2
 349 354 l 1
 293 354 l 1
 293 374 l 1
 354 426 l 2
 384 452 396 481 396 522 c 0
EndSplineSet
Layer: 2
SplineSet
394 522 m 0
 394 602 347 648 282 648 c 0
 212 648 162 602 162 477 c 2
 162 32 l 1
 240 32 l 1
 240 0 l 1
 32 0 l 1
 32 32 l 1
 92 32 l 1
 92 357 l 1
 34 357 l 1
 34 378 l 1
 92 404 l 1
 92 435 l 2
 92 595 215 698 307 698 c 0
 382 698 442 648 442 560 c 0
 442 505 417 480 417 450 c 2
 417 400 l 1
 550 400 l 1
 550 357 l 1
 417 357 l 1
 417 105 l 2
 417 64 439 42 471 42 c 0
 499 42 520 53 539 75 c 1
 555 60 l 1
 530 19 486 -14 436 -14 c 0
 380 -14 347 20 347 80 c 2
 347 357 l 1
 291 357 l 1
 291 377 l 1
 357 431 l 2
 384 454 394 480 394 522 c 0
EndSplineSet
EndChar

StartChar: uniFB06
Encoding: 64262 64262 265
Width: 614
Flags: HMW
LayerCount: 3
Fore
SplineSet
471 400 m 1
 604 400 l 1
 604 354 l 1
 471 354 l 1
 471 105 l 2
 471 64 493 42 525 42 c 0
 553 42 574 53 593 75 c 1
 609 60 l 1
 584 19 540 -14 490 -14 c 0
 434 -14 401 20 401 80 c 2
 401 354 l 1
 345 354 l 1
 345 374 l 1
 419 439 l 1
 419 450 l 2
 419 543 381 597 316 597 c 0
 263 597 224 558 224 498 c 0
 224 460 239 430 262 410 c 1
 273 290 l 1
 239 290 l 1
 236 314 l 2
 231 355 205 380 161 380 c 0
 129 380 104 361 104 332 c 0
 104 300 125 277 185 237 c 0
 256 189 286 157 286 108 c 0
 286 36 224 -14 144 -14 c 0
 109 -14 70 -3 45 14 c 1
 31 125 l 1
 65 125 l 1
 71 95 l 2
 80 49 108 21 154 21 c 0
 196 21 221 45 221 80 c 0
 221 110 196 138 129 182 c 0
 64 225 44 262 44 307 c 0
 44 366 99 413 169 413 c 0
 185 413 202 410 212 406 c 1
 213 408 l 1
 195 430 185 460 185 495 c 0
 185 573 248 637 329 637 c 0
 419 637 471 563 471 470 c 2
 471 400 l 1
EndSplineSet
EndChar

StartChar: Ydieresis
Encoding: 376 376 266
Width: 200
Flags: HMW
LayerCount: 3
Fore
SplineSet
47 45 m 0
 47 74 71 98 100 98 c 0
 129 98 153 74 153 45 c 0
 153 16 129 -8 100 -8 c 0
 71 -8 47 16 47 45 c 0
EndSplineSet
EndChar

StartChar: longs
Encoding: 383 383 267
Width: 280
Flags: HMW
LayerCount: 3
Fore
SplineSet
163 38 m 1
 255 38 l 1
 255 0 l 1
 27 0 l 1
 27 38 l 1
 93 38 l 1
 93 355 l 1
 33 355 l 1
 33 378 l 1
 93 405 l 1
 93 440 l 2
 93 600 218 703 303 703 c 0
 328 703 354 695 373 681 c 1
 343 622 l 1
 341 622 l 1
 319 636 289 645 266 645 c 0
 208 645 163 605 163 480 c 2
 163 38 l 1
EndSplineSet
EndChar
